<svg preserveAspectRatio="none" width="100%" height="100%" overflow="visible" style="display: block;" viewBox="0 0 653.288 320.08" fill="none" xmlns="http://www.w3.org/2000/svg">
<g id="Shadows">
<path id="Shadow" d="M84.1701 185.489L270.981 293.343C273.539 294.64 276.367 295.316 279.235 295.316C282.103 295.316 284.931 294.64 287.489 293.343L588.869 119.362C593.435 116.731 593.435 112.472 588.869 109.842L402.031 1.97339C399.473 0.676079 396.645 0 393.777 0C390.908 0 388.081 0.676079 385.522 1.97339L84.1423 175.955C79.6046 178.585 79.6046 182.858 84.1701 185.489Z" fill="var(--fill-0, #E0E0E0)"/>
<path id="shadow" d="M157.886 320.08L239.787 272.938L81.901 182.092L0 229.221L157.886 320.08Z" fill="var(--fill-0, #E0E0E0)"/>
<path id="shadow_2" d="M565.958 258.728C614.189 258.728 653.288 236.157 653.288 208.315C653.288 180.473 614.189 157.902 565.958 157.902C517.727 157.902 478.629 180.473 478.629 208.315C478.629 236.157 517.727 258.728 565.958 258.728Z" fill="var(--fill-0, #E0E0E0)"/>
</g>
</svg>
