<svg preserveAspectRatio="none" width="100%" height="100%" overflow="visible" style="display: block;" viewBox="0 0 515.788 536.04" fill="none" xmlns="http://www.w3.org/2000/svg">
<g id="Laptop">
<path id="Vector" d="M23.3797 422.123C23.3797 426.8 26.8595 429.778 31.1745 432.27L207.615 534.181C210.032 535.403 212.702 536.04 215.41 536.04C218.118 536.04 220.788 535.403 223.205 534.181L507.993 369.79C512.308 367.298 515.788 364.097 515.788 359.434C515.788 354.772 512.308 351.877 507.993 349.399L331.497 247.46C329.082 246.232 326.411 245.591 323.702 245.591C320.993 245.591 318.322 246.232 315.907 247.46L31.1745 411.879C26.8595 414.371 23.3797 417.461 23.3797 422.123Z" fill="var(--fill-0, #37474F)"/>
<path id="Vector_2" d="M31.1744 420.885L207.615 522.782C210.03 524.01 212.701 524.651 215.41 524.651C218.119 524.651 220.79 524.01 223.205 522.782L507.993 358.404C512.308 355.913 512.308 351.877 507.993 349.399L331.497 247.46C329.082 246.232 326.411 245.591 323.702 245.591C320.993 245.591 318.322 246.232 315.907 247.46L31.1744 411.879C26.8594 414.371 26.8594 418.393 31.1744 420.885Z" fill="var(--fill-0, #455A64)"/>
<path id="Vector_3" d="M215.48 524.661V536.018C212.744 536.091 210.036 535.458 207.615 534.181L31.1745 432.27C26.8595 429.778 23.3797 426.8 23.3797 422.123C23.3797 417.753 26.5116 414.705 30.5621 412.227C27.2214 414.593 27.1518 418.56 31.1745 420.885L207.615 522.782C210.03 524.079 212.74 524.727 215.48 524.661Z" fill="var(--fill-0, #263238)"/>
<path id="Vector_4" d="M55.2546 413.202L316.937 262.144C318.076 261.568 319.335 261.268 320.612 261.268C321.888 261.268 323.147 261.568 324.286 262.144L333.821 267.489C335.853 268.672 335.853 270.565 333.821 271.734L72.0969 422.833C70.9576 423.409 69.6989 423.709 68.4222 423.709C67.1456 423.709 65.8868 423.409 64.7475 422.833L55.2546 417.502C53.2224 416.278 53.2224 414.385 55.2546 413.202Z" fill="var(--fill-0, #263238)"/>
<path id="Vector_5" d="M80.9496 428.4L342.632 277.301C343.647 276.721 344.783 276.387 345.951 276.324C347.118 276.261 348.284 276.472 349.355 276.939L417.462 316.259C419.132 317.22 418.854 318.959 416.822 320.129L155.446 470.991C154.431 471.57 153.295 471.905 152.128 471.971C150.962 472.036 149.796 471.829 148.723 471.367L80.3232 432.228C78.639 431.268 78.9174 429.528 80.9496 428.4Z" fill="var(--fill-0, #263238)"/>
<path id="Vector_6" d="M307.681 340.714L315.866 335.982C316.214 335.773 316.255 335.467 315.935 335.286L308.099 330.762C307.913 330.675 307.712 330.63 307.507 330.63C307.303 330.63 307.101 330.675 306.915 330.762L298.717 335.495C298.369 335.689 298.341 335.996 298.647 336.177L306.484 340.7C306.67 340.791 306.874 340.84 307.081 340.842C307.288 340.845 307.493 340.801 307.681 340.714ZM295.71 324.346L287.526 329.078C287.178 329.273 287.15 329.579 287.456 329.76L295.293 334.284C295.476 334.379 295.678 334.428 295.884 334.428C296.09 334.428 296.293 334.379 296.476 334.284L304.674 329.551C305.022 329.357 305.05 329.05 304.674 328.869L296.838 324.346C296.659 324.268 296.465 324.232 296.269 324.239C296.074 324.246 295.883 324.297 295.71 324.388V324.346ZM269.264 339.656L255.345 347.659C254.997 347.854 254.969 348.16 255.345 348.341L263.181 352.865C263.364 352.96 263.567 353.01 263.773 353.01C263.979 353.01 264.182 352.96 264.364 352.865L278.283 344.862C278.631 344.667 278.673 344.361 278.353 344.18L270.517 339.656C270.322 339.548 270.103 339.493 269.881 339.496C269.659 339.498 269.442 339.558 269.25 339.67L269.264 339.656ZM283.754 331.305L275.569 336.037C275.221 336.246 275.179 336.552 275.5 336.733L283.336 341.257C283.521 341.344 283.723 341.389 283.928 341.389C284.132 341.389 284.334 341.344 284.519 341.257L292.718 336.525C293.066 336.316 293.094 336.01 292.787 335.843L284.951 331.305C284.763 331.212 284.557 331.162 284.347 331.16C284.137 331.157 283.93 331.202 283.74 331.291L283.754 331.305ZM251.6 349.845L243.416 354.577C243.068 354.786 243.026 355.092 243.346 355.273L251.183 359.796C251.368 359.883 251.57 359.928 251.774 359.928C251.979 359.928 252.181 359.883 252.366 359.796L260.564 355.064C260.912 354.869 260.94 354.563 260.634 354.382L252.797 349.858C252.611 349.767 252.407 349.719 252.2 349.716C251.993 349.714 251.788 349.758 251.6 349.845ZM239.63 356.804L231.431 361.536C231.083 361.731 231.055 362.051 231.362 362.218L239.198 366.742C239.383 366.837 239.589 366.886 239.797 366.886C240.005 366.886 240.21 366.837 240.395 366.742L248.594 362.023C248.942 361.814 248.97 361.508 248.663 361.327L240.813 356.804C240.631 356.71 240.43 356.658 240.226 356.651C240.021 356.644 239.818 356.682 239.63 356.762V356.804ZM270.35 375.274L278.548 370.541C278.896 370.333 278.924 370.026 278.618 369.859L270.781 365.322C270.594 365.233 270.39 365.187 270.182 365.187C269.975 365.187 269.771 365.233 269.584 365.322L261.399 370.054C261.051 370.263 261.01 370.569 261.316 370.736L269.166 375.274C269.355 375.354 269.558 375.392 269.763 375.385C269.967 375.378 270.168 375.325 270.35 375.232V375.274ZM258.379 382.233L266.563 377.514C266.911 377.306 266.953 377 266.633 376.819L258.797 372.295C258.611 372.208 258.409 372.163 258.205 372.163C258 372.163 257.798 372.208 257.613 372.295L249.415 377.027C249.067 377.222 249.039 377.528 249.345 377.709L257.182 382.233C257.375 382.313 257.584 382.347 257.792 382.33C258.001 382.313 258.202 382.246 258.379 382.135V382.233ZM246.408 389.192L254.593 384.46C254.941 384.265 254.969 383.959 254.662 383.778L246.826 379.254C246.643 379.159 246.44 379.109 246.234 379.109C246.028 379.109 245.825 379.159 245.643 379.254L237.444 383.861C237.096 384.07 237.069 384.376 237.375 384.557L245.211 389.081C245.4 389.165 245.606 389.207 245.813 389.202C246.02 389.197 246.223 389.146 246.408 389.053V389.192ZM234.424 396.151L242.622 391.419C242.97 391.21 242.998 390.904 242.622 390.723L234.786 386.2C234.599 386.111 234.394 386.064 234.187 386.064C233.98 386.064 233.776 386.111 233.589 386.2L225.404 390.932C225.056 391.141 225.028 391.447 225.335 391.614L233.171 396.151C233.379 396.222 233.602 396.243 233.819 396.212C234.037 396.18 234.244 396.097 234.424 395.97V396.151ZM295.669 347.84L303.853 343.108C304.201 342.913 304.229 342.607 303.923 342.426L296.086 337.902C295.904 337.807 295.701 337.758 295.495 337.758C295.289 337.758 295.086 337.807 294.903 337.902L286.705 342.635C286.357 342.83 286.329 343.136 286.635 343.317L294.472 347.84C294.676 347.918 294.896 347.943 295.112 347.914C295.329 347.885 295.534 347.802 295.71 347.673L295.669 347.84ZM282.278 368.495L300.554 357.945C300.902 357.75 300.93 357.43 300.624 357.263L281.596 346.267C281.409 346.178 281.205 346.132 280.998 346.132C280.791 346.132 280.586 346.178 280.399 346.267L270.948 351.724C270.6 351.932 270.572 352.239 270.878 352.419L280.956 358.223C281.262 358.404 281.234 358.711 280.886 358.919L273.328 363.276C272.98 363.485 272.939 363.791 273.259 363.972L281.095 368.495C281.299 368.562 281.516 368.58 281.729 368.549C281.941 368.517 282.144 368.437 282.32 368.314L282.278 368.495ZM227.659 363.68L219.461 368.412C219.113 368.607 219.085 368.913 219.461 369.094L227.297 373.617C227.482 373.713 227.688 373.762 227.896 373.762C228.104 373.762 228.309 373.713 228.494 373.617L236.679 368.885C237.027 368.69 237.069 368.384 236.679 368.203L228.842 363.68C228.66 363.584 228.457 363.535 228.251 363.535C228.045 363.535 227.842 363.584 227.659 363.68ZM215.689 370.639L207.49 375.371C207.142 375.58 207.114 375.886 207.49 376.067L215.327 380.59C215.512 380.677 215.714 380.722 215.918 380.722C216.123 380.722 216.325 380.677 216.51 380.59L224.708 375.858C225.056 375.663 225.084 375.343 224.778 375.176L216.941 370.653C216.755 370.537 216.543 370.47 216.324 370.458C216.105 370.446 215.886 370.489 215.689 370.583V370.639ZM149.419 444.407C149.604 444.502 149.809 444.552 150.017 444.552C150.226 444.552 150.431 444.502 150.616 444.407L158.8 439.674C159.148 439.48 159.19 439.173 158.8 438.992L150.964 434.469C150.781 434.374 150.578 434.324 150.372 434.324C150.166 434.324 149.963 434.374 149.781 434.469L141.582 439.201C141.234 439.396 141.206 439.702 141.513 439.883L149.419 444.407ZM119.924 425.895L111.725 430.614C111.377 430.822 111.35 431.129 111.656 431.309L119.492 435.833C119.679 435.922 119.884 435.968 120.091 435.968C120.298 435.968 120.503 435.922 120.689 435.833L128.874 431.101C129.222 430.906 129.264 430.6 128.944 430.419L121.107 425.895C120.924 425.8 120.721 425.75 120.516 425.75C120.31 425.75 120.107 425.8 119.924 425.895ZM135.11 439.744C135.293 439.839 135.495 439.889 135.701 439.889C135.907 439.889 136.11 439.839 136.293 439.744L144.491 435.026C144.839 434.817 144.867 434.511 144.561 434.33L136.697 429.792C136.51 429.703 136.305 429.657 136.098 429.657C135.891 429.657 135.687 429.703 135.5 429.792L127.315 434.525C126.953 434.719 126.925 435.026 127.232 435.207L135.11 439.744ZM168.14 447.177L176.339 442.444C176.687 442.249 176.715 441.943 176.408 441.762L168.572 437.239C168.387 437.144 168.181 437.094 167.973 437.094C167.765 437.094 167.56 437.144 167.375 437.239L159.176 441.971C158.828 442.166 158.8 442.472 159.107 442.653L166.943 447.177C167.125 447.267 167.325 447.314 167.528 447.314C167.731 447.314 167.931 447.267 168.112 447.177H168.14ZM154.973 454.136C155.16 454.225 155.364 454.271 155.571 454.271C155.778 454.271 155.983 454.225 156.17 454.136L164.354 449.403C164.702 449.209 164.744 448.902 164.354 448.722L156.518 444.198C156.334 444.105 156.132 444.057 155.926 444.057C155.721 444.057 155.518 444.105 155.335 444.198L147.136 448.93C146.788 449.139 146.76 449.445 147.067 449.626L154.973 454.136ZM131.895 418.978L123.696 423.71C123.348 423.905 123.32 424.211 123.626 424.392L131.463 428.915C131.648 429.011 131.853 429.06 132.062 429.06C132.27 429.06 132.475 429.011 132.66 428.915L140.803 424.225C141.165 424.016 141.193 423.71 140.886 423.529L133.036 419.006C132.855 418.916 132.656 418.868 132.454 418.863C132.252 418.858 132.052 418.897 131.867 418.978H131.895ZM191.747 384.418L183.549 389.15C183.215 389.345 183.173 389.651 183.549 389.832L191.399 394.356C191.582 394.451 191.785 394.501 191.991 394.501C192.197 394.501 192.4 394.451 192.583 394.356L200.781 389.624C201.129 389.429 201.157 389.122 200.851 388.942L193.014 384.418C192.818 384.308 192.598 384.251 192.374 384.251C192.15 384.251 191.929 384.308 191.733 384.418H191.747ZM143.851 412.06L135.667 416.792C135.319 417.001 135.277 417.307 135.597 417.474L143.434 422.012C143.619 422.099 143.821 422.144 144.025 422.144C144.23 422.144 144.432 422.099 144.617 422.012L152.815 417.28C153.163 417.071 153.191 416.765 152.815 416.598L144.979 412.018C144.796 411.944 144.6 411.91 144.403 411.917C144.207 411.924 144.014 411.973 143.837 412.06H143.851ZM203.704 377.501L195.519 382.233C195.172 382.428 195.13 382.734 195.45 382.915L203.286 387.438C203.469 387.534 203.672 387.583 203.878 387.583C204.084 387.583 204.287 387.534 204.47 387.438L212.668 382.72C213.016 382.511 213.044 382.205 212.738 382.024L204.901 377.501C204.714 377.412 204.51 377.365 204.303 377.365C204.095 377.365 203.891 377.412 203.704 377.501ZM179.777 391.322L171.578 396.054C171.23 396.263 171.203 396.569 171.578 396.75L179.415 401.273C179.602 401.362 179.806 401.409 180.013 401.409C180.221 401.409 180.425 401.362 180.612 401.273L188.796 396.541C189.144 396.346 189.186 396.026 188.866 395.859L181.03 391.322C180.835 391.224 180.621 391.173 180.403 391.173C180.186 391.173 179.971 391.224 179.777 391.322ZM167.806 398.281L159.608 403.013C159.26 403.208 159.232 403.514 159.538 403.695L167.375 408.219C167.56 408.314 167.765 408.364 167.973 408.364C168.181 408.364 168.387 408.314 168.572 408.219L176.756 403.5C177.104 403.292 177.132 402.985 176.826 402.804L168.989 398.281C168.806 398.185 168.603 398.132 168.396 398.125C168.188 398.117 167.982 398.157 167.792 398.239L167.806 398.281ZM155.822 405.24L147.637 409.958C147.289 410.167 147.261 410.473 147.568 410.654L155.404 415.178C155.589 415.265 155.791 415.31 155.996 415.31C156.2 415.31 156.402 415.265 156.587 415.178L164.786 410.446C165.134 410.251 165.162 409.945 164.855 409.764L157.019 405.24C156.839 405.129 156.634 405.064 156.424 405.049C156.213 405.035 156.001 405.072 155.808 405.157L155.822 405.24ZM210.497 409.875L218.681 405.143C219.029 404.948 219.071 404.642 218.765 404.461L210.914 399.937C210.732 399.842 210.529 399.792 210.323 399.792C210.117 399.792 209.914 399.842 209.731 399.937L201.533 404.656C201.185 404.864 201.157 405.171 201.463 405.351L209.3 409.875C209.491 409.949 209.696 409.98 209.9 409.966C210.105 409.951 210.304 409.892 210.483 409.791L210.497 409.875ZM322.199 309.189L314 313.921C313.652 314.116 313.625 314.422 313.931 314.603L321.767 319.126C321.952 319.222 322.158 319.271 322.366 319.271C322.574 319.271 322.779 319.222 322.964 319.126L331.163 314.394C331.511 314.199 331.539 313.893 331.232 313.712L323.382 309.189C323.204 309.078 323.002 309.013 322.794 308.998C322.585 308.983 322.376 309.02 322.185 309.105L322.199 309.189ZM307.709 317.54L299.483 322.202C299.135 322.397 299.107 322.703 299.413 322.884L307.249 327.408C307.435 327.503 307.64 327.553 307.848 327.553C308.056 327.553 308.261 327.503 308.447 327.408L316.631 322.69C316.979 322.481 317.007 322.175 316.701 321.994L308.864 317.47C308.681 317.385 308.481 317.341 308.28 317.341C308.078 317.341 307.878 317.385 307.695 317.47L307.709 317.54ZM334.155 302.229L325.971 306.962C325.623 307.157 325.581 307.477 325.971 307.644L333.807 312.167C333.991 312.26 334.193 312.309 334.399 312.309C334.605 312.309 334.807 312.26 334.991 312.167L343.189 307.435C343.537 307.226 343.565 306.92 343.189 306.739L335.353 302.215C335.168 302.122 334.964 302.071 334.757 302.066C334.55 302.061 334.344 302.103 334.155 302.188V302.229ZM267.969 363.707L276.168 358.989C276.516 358.78 276.544 358.474 276.237 358.293L268.401 353.77C268.216 353.683 268.014 353.638 267.809 353.638C267.605 353.638 267.403 353.683 267.218 353.77L259.019 358.502C258.671 358.697 258.643 359.003 258.95 359.184L266.786 363.707C266.972 363.796 267.177 363.839 267.383 363.831C267.589 363.824 267.79 363.767 267.969 363.666V363.707ZM347.309 295.284C347.124 295.189 346.919 295.139 346.711 295.139C346.502 295.139 346.297 295.189 346.112 295.284L337.928 300.002C337.58 300.211 337.552 300.517 337.858 300.698L345.695 305.222C345.88 305.309 346.082 305.354 346.286 305.354C346.491 305.354 346.693 305.309 346.878 305.222L355.076 300.49C355.424 300.295 355.452 299.988 355.146 299.808L347.309 295.284ZM222.439 402.916L230.638 398.183C230.986 397.989 231.014 397.682 230.638 397.501L222.927 392.936C222.741 392.841 222.536 392.791 222.328 392.791C222.12 392.791 221.915 392.841 221.729 392.936L213.545 397.668C213.197 397.863 213.155 398.17 213.545 398.35L221.382 402.874C221.55 402.951 221.732 402.992 221.917 402.992C222.102 402.992 222.285 402.951 222.453 402.874L222.439 402.916ZM369.274 318.152L377.472 313.42C377.82 313.225 377.848 312.905 377.472 312.738L369.636 308.214C369.449 308.125 369.244 308.079 369.037 308.079C368.83 308.079 368.626 308.125 368.439 308.214L360.254 312.947C359.906 313.155 359.864 313.462 360.184 313.643L368.021 318.166C368.222 318.258 368.441 318.3 368.661 318.291C368.881 318.281 369.096 318.219 369.288 318.11L369.274 318.152ZM346.112 318.597L354.297 313.865C354.645 313.67 354.672 313.364 354.366 313.183L346.53 308.66C346.347 308.565 346.144 308.515 345.938 308.515C345.732 308.515 345.529 308.565 345.347 308.66L337.148 313.378C336.8 313.587 336.772 313.893 337.079 314.074L344.915 318.597C345.107 318.682 345.316 318.723 345.525 318.715C345.735 318.708 345.94 318.654 346.126 318.556L346.112 318.597ZM358.5 301.742C358.315 301.655 358.113 301.61 357.909 301.61C357.704 301.61 357.502 301.655 357.317 301.742L349.119 306.474C348.771 306.669 348.743 306.976 349.049 307.157L356.886 311.68C357.071 311.775 357.276 311.825 357.484 311.825C357.692 311.825 357.898 311.775 358.083 311.68L366.267 306.962C366.615 306.753 366.657 306.447 366.337 306.266L358.5 301.742ZM361.02 300.35L380.061 311.332C380.244 311.427 380.447 311.477 380.653 311.477C380.859 311.477 381.062 311.427 381.244 311.332L389.443 306.6C389.791 306.405 389.819 306.099 389.512 305.918L370.471 294.783C370.284 294.694 370.079 294.648 369.872 294.648C369.665 294.648 369.461 294.694 369.274 294.783L361.075 299.515C360.727 299.766 360.727 300.072 361.034 300.253L361.02 300.35ZM333.362 315.661L325.178 320.393C324.83 320.602 324.802 320.908 325.108 321.075L332.945 325.612C333.13 325.699 333.332 325.744 333.536 325.744C333.741 325.744 333.943 325.699 334.128 325.612L342.326 320.88C342.674 320.671 342.702 320.365 342.326 320.184L334.49 315.661C334.321 315.568 334.135 315.512 333.943 315.495C333.751 315.479 333.558 315.502 333.376 315.563L333.362 315.661ZM243.249 367.688L235.064 372.42C234.702 372.615 234.674 372.935 234.981 373.102L242.831 377.626C243.014 377.719 243.217 377.767 243.423 377.767C243.628 377.767 243.831 377.719 244.014 377.626L252.213 372.894C252.561 372.685 252.589 372.379 252.213 372.198L244.376 367.674C244.206 367.584 244.02 367.53 243.828 367.516C243.636 367.501 243.444 367.527 243.263 367.591L243.249 367.688ZM356.106 325.153C356.291 325.248 356.496 325.298 356.705 325.298C356.913 325.298 357.118 325.248 357.303 325.153L365.502 320.435C365.85 320.226 365.878 319.92 365.571 319.739L357.721 315.215C357.536 315.128 357.334 315.083 357.129 315.083C356.925 315.083 356.723 315.128 356.538 315.215L348.339 319.948C347.991 320.142 347.963 320.449 348.27 320.63L356.106 325.153ZM255.219 360.784L247.035 365.503C246.687 365.712 246.645 366.018 246.965 366.199L254.802 370.722C254.987 370.809 255.189 370.854 255.393 370.854C255.598 370.854 255.8 370.809 255.985 370.722L264.183 365.99C264.531 365.795 264.559 365.489 264.183 365.308L256.347 360.784C256.18 360.687 255.993 360.628 255.801 360.611C255.608 360.594 255.414 360.62 255.233 360.687L255.219 360.784ZM161.403 437.475C161.586 437.57 161.789 437.62 161.995 437.62C162.201 437.62 162.404 437.57 162.586 437.475L170.785 432.757C171.133 432.548 171.161 432.242 170.855 432.061L163.074 427.496C162.887 427.407 162.682 427.361 162.475 427.361C162.268 427.361 162.064 427.407 161.877 427.496L153.692 432.228C153.344 432.423 153.302 432.743 153.609 432.91L161.403 437.475ZM147.484 422.889L139.3 427.621C138.952 427.83 138.91 428.136 139.3 428.317L147.136 432.84C147.321 432.927 147.523 432.972 147.728 432.972C147.932 432.972 148.134 432.927 148.319 432.84L156.518 428.108C156.866 427.913 156.894 427.593 156.587 427.426L148.667 422.833C148.48 422.744 148.276 422.698 148.069 422.698C147.862 422.698 147.657 422.744 147.47 422.833L147.484 422.889ZM174.571 430.53L182.769 425.798C183.117 425.603 183.145 425.283 182.839 425.116L175.003 420.592C174.817 420.497 174.612 420.447 174.404 420.447C174.196 420.447 173.991 420.497 173.805 420.592L165.621 425.311C165.273 425.519 165.231 425.826 165.621 426.007L173.457 430.53C173.631 430.605 173.818 430.643 174.007 430.643C174.196 430.643 174.383 430.605 174.557 430.53H174.571ZM186.542 423.571L194.74 418.838C195.088 418.644 195.116 418.337 194.74 418.157L186.903 413.633C186.721 413.538 186.518 413.488 186.312 413.488C186.106 413.488 185.903 413.538 185.72 413.633L177.522 418.365C177.174 418.56 177.146 418.866 177.522 419.047L185.358 423.571C185.536 423.67 185.735 423.726 185.938 423.733C186.141 423.74 186.343 423.699 186.528 423.613L186.542 423.571ZM198.526 416.612L206.711 411.879C207.059 411.67 207.1 411.364 206.711 411.183L198.874 406.66C198.689 406.573 198.487 406.528 198.282 406.528C198.078 406.528 197.876 406.573 197.691 406.66L189.492 411.392C189.144 411.587 189.117 411.907 189.423 412.074L197.259 416.598C197.445 416.713 197.655 416.783 197.872 416.803C198.09 416.822 198.309 416.79 198.512 416.709L198.526 416.612ZM159.469 415.888L151.27 420.62C150.922 420.815 150.894 421.121 151.27 421.302L159.107 425.826C159.292 425.921 159.497 425.97 159.705 425.97C159.913 425.97 160.119 425.921 160.304 425.826L168.488 421.093C168.836 420.898 168.864 420.592 168.488 420.411L160.652 415.888C160.459 415.805 160.25 415.77 160.041 415.787C159.832 415.804 159.631 415.872 159.455 415.985L159.469 415.888ZM171.439 408.929L163.241 413.661C162.893 413.856 162.865 414.162 163.171 414.343L171.008 418.866C171.193 418.962 171.398 419.011 171.606 419.011C171.814 419.011 172.02 418.962 172.205 418.866L180.389 414.148C180.737 413.939 180.779 413.633 180.389 413.452L172.553 408.929C172.366 408.871 172.168 408.854 171.974 408.878C171.78 408.902 171.593 408.967 171.425 409.068L171.439 408.929ZM219.335 381.286L211.137 386.005C210.789 386.214 210.761 386.52 211.067 386.701L218.904 391.224C219.091 391.313 219.295 391.359 219.502 391.359C219.709 391.359 219.914 391.313 220.101 391.224L228.285 386.492C228.633 386.297 228.661 385.991 228.285 385.81L220.449 381.286C220.263 381.221 220.064 381.2 219.869 381.224C219.673 381.248 219.486 381.317 219.321 381.426L219.335 381.286ZM207.351 388.246L199.166 392.978C198.818 393.173 198.791 393.493 199.166 393.66L207.003 398.183C207.186 398.276 207.389 398.325 207.594 398.325C207.8 398.325 208.003 398.276 208.186 398.183L216.384 393.451C216.732 393.242 216.76 392.936 216.384 392.755L208.548 388.232C208.352 388.155 208.141 388.124 207.931 388.141C207.722 388.158 207.518 388.222 207.337 388.329L207.351 388.246ZM231.278 374.508L223.08 379.24C222.732 379.435 222.704 379.741 223.01 379.922L230.847 384.446C231.032 384.541 231.237 384.591 231.445 384.591C231.653 384.591 231.859 384.541 232.044 384.446L240.228 379.714C240.576 379.519 240.618 379.213 240.298 379.032L232.461 374.508C232.279 374.413 232.076 374.363 231.87 374.363C231.664 374.363 231.461 374.413 231.278 374.508ZM183.396 402.15L175.197 406.883C174.849 407.091 174.822 407.397 175.128 407.578L182.964 412.102C183.151 412.191 183.356 412.237 183.563 412.237C183.77 412.237 183.974 412.191 184.161 412.102L192.36 407.37C192.694 407.175 192.736 406.855 192.429 406.688L184.579 402.164C184.397 402.069 184.195 402.018 183.989 402.016C183.783 402.013 183.58 402.059 183.396 402.15ZM195.366 395.191L187.182 399.923C186.834 400.118 186.792 400.424 187.182 400.605L195.018 405.129C195.201 405.224 195.404 405.274 195.61 405.274C195.816 405.274 196.019 405.224 196.202 405.129L204.4 400.396C204.748 400.202 204.776 399.895 204.47 399.714L196.633 395.191C196.434 395.092 196.214 395.045 195.993 395.055C195.771 395.065 195.555 395.131 195.366 395.247V395.191ZM180.055 440.217L188.254 435.485C188.602 435.276 188.629 434.97 188.254 434.789L180.417 430.266C180.23 430.177 180.026 430.13 179.819 430.13C179.611 430.13 179.407 430.177 179.22 430.266L171.036 434.998C170.688 435.193 170.646 435.513 171.036 435.68L178.872 440.217C179.057 440.317 179.261 440.374 179.471 440.384C179.681 440.394 179.89 440.356 180.083 440.273L180.055 440.217ZM116.917 437.225L109.081 432.701C108.896 432.614 108.694 432.569 108.489 432.569C108.285 432.569 108.083 432.614 107.898 432.701L99.6992 437.434C99.3512 437.642 99.3234 437.949 99.6296 438.116L107.466 442.653C107.653 442.742 107.858 442.788 108.065 442.788C108.272 442.788 108.476 442.742 108.663 442.653L116.848 437.921C117.224 437.768 117.251 437.461 116.945 437.28L116.917 437.225ZM132.521 441.15L124.712 436.752C124.529 436.656 124.327 436.607 124.121 436.607C123.915 436.607 123.712 436.656 123.529 436.752L110.918 444.031C110.57 444.226 110.542 444.532 110.849 444.713L118.685 449.236C118.87 449.332 119.075 449.381 119.284 449.381C119.492 449.381 119.697 449.332 119.882 449.236L132.479 441.957C132.827 441.693 132.869 441.386 132.549 441.206L132.521 441.15ZM105.253 428.4L97.4165 423.877C97.2295 423.788 97.025 423.742 96.8179 423.742C96.6108 423.742 96.4064 423.788 96.2194 423.877L86.1419 429.695C85.7939 429.904 85.7521 430.21 86.1419 430.391L93.9784 434.914C94.1635 435.001 94.3655 435.046 94.57 435.046C94.7745 435.046 94.9764 435.001 95.1616 434.914L105.253 429.096C105.531 428.832 105.559 428.526 105.253 428.4ZM112.978 423.947C113.165 424.036 113.37 424.082 113.577 424.082C113.784 424.082 113.988 424.036 114.175 423.947L122.36 419.214C122.708 419.019 122.736 418.699 122.429 418.532L114.593 414.009C114.409 413.916 114.207 413.867 114.001 413.867C113.796 413.867 113.593 413.916 113.41 414.009L105.211 418.741C104.863 418.95 104.835 419.256 105.142 419.437L112.978 423.947ZM146.899 445.91L139.063 441.386C138.88 441.293 138.677 441.245 138.471 441.245C138.266 441.245 138.063 441.293 137.88 441.386L122.123 450.489C121.775 450.684 121.747 450.99 122.054 451.171L129.89 455.695C130.073 455.788 130.276 455.836 130.482 455.836C130.687 455.836 130.89 455.788 131.073 455.695L146.83 446.495C147.178 446.341 147.206 446.021 146.899 445.854V445.91ZM152.467 455.653L144.631 451.129C144.446 451.042 144.244 450.997 144.039 450.997C143.835 450.997 143.633 451.042 143.447 451.129L133.356 456.947C133.008 457.156 132.98 457.462 133.286 457.643L141.123 462.167C141.31 462.256 141.514 462.302 141.722 462.302C141.929 462.302 142.133 462.256 142.32 462.167L152.356 456.237C152.704 456.07 152.732 455.764 152.425 455.583L152.467 455.653ZM202.048 372.49C202.23 372.585 202.433 372.635 202.639 372.635C202.845 372.635 203.048 372.585 203.231 372.49L211.429 367.758C211.777 367.563 211.805 367.257 211.429 367.076L203.593 362.552C203.408 362.457 203.202 362.407 202.994 362.407C202.786 362.407 202.581 362.457 202.396 362.552L194.211 367.284C193.863 367.479 193.835 367.785 194.211 367.966L202.048 372.49ZM178.093 386.311C178.28 386.4 178.484 386.446 178.691 386.446C178.898 386.446 179.103 386.4 179.29 386.311L187.474 381.579C187.822 381.37 187.864 381.064 187.544 380.883L179.707 376.359C179.522 376.272 179.32 376.227 179.116 376.227C178.911 376.227 178.709 376.272 178.524 376.359L170.326 381.092C169.978 381.286 169.95 381.593 170.256 381.774L178.093 386.311ZM124.991 416.932C125.176 417.027 125.381 417.077 125.589 417.077C125.797 417.077 126.002 417.027 126.188 416.932L134.372 412.199C134.72 412.004 134.762 411.698 134.442 411.517L126.605 406.994C126.423 406.899 126.22 406.849 126.014 406.849C125.808 406.849 125.605 406.899 125.422 406.994L117.224 411.726C116.876 411.921 116.848 412.227 117.154 412.408L124.991 416.932ZM190.077 379.352C190.262 379.439 190.464 379.484 190.669 379.484C190.873 379.484 191.075 379.439 191.26 379.352L199.459 374.619C199.807 374.425 199.834 374.104 199.459 373.937L191.622 369.414C191.435 369.325 191.231 369.279 191.024 369.279C190.816 369.279 190.612 369.325 190.425 369.414L182.241 374.146C181.893 374.355 181.851 374.661 182.241 374.842L190.077 379.352ZM166.122 393.173C166.307 393.268 166.512 393.318 166.721 393.318C166.929 393.318 167.134 393.268 167.319 393.173L175.504 388.441C175.852 388.246 175.893 387.939 175.504 387.758L167.667 383.235C167.484 383.14 167.281 383.09 167.075 383.09C166.87 383.09 166.667 383.14 166.484 383.235L158.285 387.967C157.937 388.162 157.91 388.468 158.216 388.649L166.122 393.173ZM158.355 456.015C158.168 455.926 157.964 455.88 157.757 455.88C157.549 455.88 157.345 455.926 157.158 456.015L144.561 463.294C144.213 463.489 144.171 463.795 144.561 463.976L152.398 468.5C152.58 468.595 152.783 468.645 152.989 468.645C153.195 468.645 153.398 468.595 153.581 468.5L166.192 461.234C166.54 461.025 166.567 460.719 166.261 460.538L158.355 456.015ZM148.946 403.125C149.131 403.211 149.333 403.256 149.537 403.256C149.742 403.256 149.944 403.211 150.129 403.125L158.327 398.392C158.675 398.197 158.703 397.891 158.397 397.71L150.546 393.173C150.361 393.078 150.156 393.028 149.948 393.028C149.74 393.028 149.534 393.078 149.349 393.173L141.165 397.891C140.817 398.1 140.775 398.406 141.095 398.587L148.946 403.125ZM136.961 410.084C137.148 410.173 137.353 410.219 137.56 410.219C137.767 410.219 137.971 410.173 138.158 410.084L146.357 405.351C146.705 405.143 146.732 404.836 146.357 404.656L138.506 400.132C138.321 400.045 138.119 400 137.915 400C137.71 400 137.508 400.045 137.323 400.132L129.125 404.864C128.777 405.059 128.749 405.379 129.125 405.546L136.961 410.084ZM380.173 328.034C379.99 327.939 379.787 327.889 379.581 327.889C379.375 327.889 379.172 327.939 378.989 328.034L358.82 339.67C358.472 339.879 358.445 340.185 358.751 340.366L366.587 344.89C366.774 344.979 366.979 345.025 367.186 345.025C367.393 345.025 367.597 344.979 367.784 344.89L387.94 333.24C388.288 333.045 388.329 332.739 388.009 332.558L380.173 328.034ZM353.726 343.345C353.541 343.249 353.336 343.2 353.127 343.2C352.919 343.2 352.714 343.249 352.529 343.345L344.344 348.077C343.996 348.272 343.955 348.578 344.275 348.759L352.111 353.282C352.294 353.378 352.497 353.427 352.703 353.427C352.909 353.427 353.112 353.378 353.294 353.282L361.493 348.55C361.841 348.355 361.869 348.049 361.563 347.868L353.726 343.345ZM192.054 433.355L200.252 428.623C200.6 428.428 200.628 428.122 200.252 427.941L192.416 423.418C192.23 423.322 192.025 423.273 191.817 423.273C191.609 423.273 191.404 423.322 191.218 423.418L183.034 428.136C182.686 428.345 182.658 428.651 183.034 428.832L190.87 433.355C191.056 433.442 191.258 433.487 191.462 433.487C191.667 433.487 191.869 433.442 192.054 433.355ZM329.715 357.11C329.53 357.023 329.328 356.978 329.124 356.978C328.919 356.978 328.717 357.023 328.532 357.11L320.334 361.842C319.986 362.037 319.958 362.343 320.264 362.524L328.101 367.048C328.286 367.143 328.491 367.193 328.699 367.193C328.907 367.193 329.113 367.143 329.298 367.048L337.482 362.329C337.83 362.121 337.872 361.814 337.552 361.633L329.715 357.11ZM392.115 321.089C391.928 321 391.724 320.954 391.517 320.954C391.31 320.954 391.105 321 390.918 321.089L382.72 325.821C382.372 326.03 382.344 326.336 382.65 326.503L390.487 331.041C390.674 331.13 390.878 331.176 391.085 331.176C391.292 331.176 391.497 331.13 391.684 331.041L399.882 326.308C400.23 326.1 400.258 325.793 399.952 325.612L392.115 321.089ZM411.922 318.709L392.881 307.713C392.696 307.626 392.494 307.581 392.289 307.581C392.085 307.581 391.883 307.626 391.698 307.713L383.499 312.446C383.151 312.64 383.123 312.961 383.43 313.128L402.471 324.123C402.656 324.21 402.858 324.255 403.063 324.255C403.267 324.255 403.469 324.21 403.654 324.123L411.853 319.391C412.229 319.196 412.229 318.89 411.922 318.709ZM284.979 382.943C284.792 382.854 284.587 382.807 284.38 382.807C284.173 382.807 283.969 382.854 283.782 382.943L273.704 388.761C273.356 388.969 273.328 389.276 273.634 389.457L281.471 393.98C281.656 394.067 281.858 394.112 282.063 394.112C282.267 394.112 282.469 394.067 282.654 393.98L292.746 388.162C293.094 387.953 293.121 387.647 292.746 387.466L284.979 382.943ZM315.225 365.475C315.04 365.388 314.838 365.343 314.634 365.343C314.429 365.343 314.227 365.388 314.042 365.475L301.431 372.754C301.083 372.963 301.055 373.269 301.431 373.436L309.226 378.016C309.413 378.105 309.617 378.151 309.825 378.151C310.032 378.151 310.236 378.105 310.423 378.016L323.02 370.736C323.368 370.527 323.396 370.221 323.09 370.04L315.225 365.475ZM257.251 398.879C257.065 398.79 256.86 398.744 256.653 398.744C256.446 398.744 256.241 398.79 256.054 398.879L188.629 437.851C188.281 438.046 188.254 438.366 188.56 438.533L196.396 443.057C196.58 443.15 196.782 443.198 196.988 443.198C197.194 443.198 197.396 443.15 197.58 443.057L265.018 404.085C265.366 403.876 265.394 403.57 265.018 403.389L257.251 398.879ZM186.04 440.064C185.855 439.969 185.65 439.919 185.442 439.919C185.234 439.919 185.029 439.969 184.843 440.064L174.766 445.882C174.418 446.077 174.376 446.397 174.696 446.564L182.533 451.102C182.718 451.188 182.92 451.234 183.124 451.234C183.329 451.234 183.531 451.188 183.716 451.102L193.807 445.27C194.155 445.075 194.183 444.769 193.807 444.588L186.04 440.064ZM271.115 390.946C270.928 390.857 270.724 390.811 270.517 390.811C270.309 390.811 270.105 390.857 269.918 390.946L259.84 396.764C259.492 396.973 259.465 397.279 259.771 397.46L267.607 401.983C267.793 402.07 267.994 402.115 268.199 402.115C268.403 402.115 268.605 402.07 268.791 401.983L278.882 396.165C279.23 395.956 279.258 395.65 278.952 395.469L271.115 390.946ZM172.177 448.012C171.992 447.916 171.787 447.867 171.578 447.867C171.37 447.867 171.165 447.916 170.98 448.012L160.902 453.83C160.554 454.038 160.513 454.345 160.833 454.525L168.669 459.049C168.854 459.136 169.056 459.181 169.261 459.181C169.465 459.181 169.667 459.136 169.852 459.049L179.944 453.217C180.292 453.022 180.32 452.716 179.944 452.535L172.177 448.012ZM298.842 374.884C298.657 374.789 298.452 374.739 298.244 374.739C298.036 374.739 297.83 374.789 297.645 374.884L287.568 380.702C287.22 380.911 287.192 381.217 287.498 381.384L295.335 385.921C295.52 386.008 295.722 386.053 295.926 386.053C296.131 386.053 296.333 386.008 296.518 385.921L306.609 380.089C306.957 379.895 306.985 379.588 306.679 379.407L298.842 374.884ZM341.7 350.151C341.513 350.062 341.308 350.015 341.101 350.015C340.894 350.015 340.69 350.062 340.503 350.151L332.304 354.883C331.956 355.092 331.928 355.398 332.235 355.579L340.085 360.102C340.27 360.189 340.472 360.234 340.677 360.234C340.881 360.234 341.083 360.189 341.268 360.102L349.467 355.37C349.815 355.175 349.842 354.855 349.467 354.688L341.7 350.151ZM368.508 331.43L376.707 326.698C377.055 326.503 377.083 326.183 376.707 326.016L368.87 321.493C368.685 321.397 368.48 321.348 368.272 321.348C368.063 321.348 367.858 321.397 367.673 321.493L359.489 326.211C359.141 326.42 359.113 326.726 359.419 326.907L367.256 331.43C367.445 331.537 367.658 331.598 367.875 331.607C368.093 331.617 368.31 331.575 368.508 331.486V331.43ZM319.652 333.783L327.85 329.05C328.198 328.855 328.226 328.549 327.92 328.368L320.083 323.845C319.898 323.75 319.693 323.7 319.485 323.7C319.276 323.7 319.071 323.75 318.886 323.845L310.688 328.563C310.34 328.772 310.312 329.078 310.618 329.259L318.455 333.783C318.637 333.88 318.84 333.936 319.047 333.946C319.254 333.955 319.46 333.919 319.652 333.838V333.783ZM287.846 378.002L311.801 364.167C312.149 363.972 312.177 363.666 311.801 363.485L303.965 358.961C303.779 358.866 303.574 358.816 303.366 358.816C303.158 358.816 302.953 358.866 302.767 358.961L278.826 372.782C278.478 372.991 278.437 373.297 278.826 373.478L286.663 378.002C286.844 378.097 287.044 378.152 287.248 378.162C287.453 378.171 287.657 378.136 287.846 378.057V378.002ZM355.355 338.376C355.538 338.469 355.741 338.517 355.946 338.517C356.152 338.517 356.354 338.469 356.538 338.376L364.736 333.643C365.084 333.435 365.112 333.128 364.806 332.947L356.969 328.424C356.782 328.335 356.578 328.289 356.371 328.289C356.164 328.289 355.959 328.335 355.772 328.424L347.588 333.156C347.24 333.351 347.198 333.671 347.518 333.838L355.355 338.376ZM345.416 331.931L353.601 327.199C353.949 327.004 353.99 326.698 353.67 326.517L345.834 321.994C345.651 321.898 345.448 321.849 345.242 321.849C345.036 321.849 344.833 321.898 344.651 321.994L336.452 326.726C336.104 326.921 336.076 327.227 336.383 327.408L344.219 331.931C344.404 332.027 344.609 332.076 344.818 332.076C345.026 332.076 345.231 332.027 345.416 331.931ZM275.82 384.961L284.018 380.242C284.366 380.034 284.394 379.728 284.088 379.547L276.251 375.023C276.064 374.934 275.86 374.888 275.653 374.888C275.446 374.888 275.241 374.934 275.054 375.023L266.856 379.755C266.508 379.95 266.48 380.256 266.856 380.437L274.692 384.961C274.868 385.045 275.061 385.089 275.256 385.089C275.451 385.089 275.644 385.045 275.82 384.961ZM328.824 353.714C329.01 353.809 329.215 353.859 329.423 353.859C329.631 353.859 329.836 353.809 330.021 353.714L338.206 348.996C338.554 348.787 338.582 348.481 338.276 348.3L330.439 343.776C330.254 343.689 330.052 343.644 329.847 343.644C329.643 343.644 329.441 343.689 329.256 343.776L321.057 348.508C320.709 348.703 320.682 349.009 320.988 349.19L328.824 353.714ZM215.967 419.534L224.151 414.802C224.499 414.593 224.541 414.287 224.235 414.106L216.384 409.583C216.199 409.496 215.997 409.451 215.793 409.451C215.588 409.451 215.386 409.496 215.201 409.583L207.003 414.315C206.655 414.524 206.627 414.83 206.933 414.997L214.77 419.534C214.957 419.623 215.161 419.67 215.368 419.67C215.575 419.67 215.78 419.623 215.967 419.534ZM227.937 412.575L236.136 407.843C236.484 407.648 236.512 407.342 236.136 407.161L228.299 402.637C228.114 402.542 227.909 402.492 227.701 402.492C227.493 402.492 227.287 402.542 227.102 402.637L218.918 407.356C218.57 407.565 218.528 407.871 218.834 408.052L226.685 412.575C226.881 412.687 227.101 412.749 227.327 412.756C227.552 412.763 227.776 412.715 227.979 412.617L227.937 412.575ZM203.996 426.396L212.181 421.664C212.529 421.469 212.571 421.163 212.25 420.982L204.414 416.458C204.231 416.363 204.028 416.314 203.822 416.314C203.616 416.314 203.413 416.363 203.231 416.458L195.032 421.191C194.684 421.386 194.657 421.692 194.963 421.873L202.799 426.396C202.986 426.505 203.197 426.566 203.413 426.573C203.63 426.58 203.844 426.534 204.038 426.438L203.996 426.396ZM251.893 398.754L260.077 394.022C260.425 393.813 260.453 393.507 260.147 393.326L252.31 388.802C252.125 388.715 251.923 388.67 251.719 388.67C251.514 388.67 251.312 388.715 251.127 388.802L242.97 393.604C242.622 393.813 242.594 394.119 242.901 394.286L250.737 398.824C250.926 398.908 251.132 398.95 251.339 398.945C251.546 398.94 251.749 398.889 251.934 398.796L251.893 398.754ZM239.908 405.713L248.107 400.981C248.454 400.786 248.482 400.48 248.107 400.299L240.27 395.776C240.085 395.68 239.88 395.631 239.671 395.631C239.463 395.631 239.258 395.68 239.073 395.776L231 400.564C230.652 400.758 230.61 401.065 230.93 401.246L238.767 405.769C238.955 405.854 239.161 405.891 239.367 405.879C239.573 405.867 239.773 405.805 239.95 405.699L239.908 405.713ZM263.863 391.892L272.048 387.16C272.396 386.965 272.437 386.659 272.117 386.478L264.281 381.954C264.098 381.859 263.895 381.81 263.689 381.81C263.483 381.81 263.28 381.859 263.098 381.954L254.941 386.645C254.593 386.854 254.565 387.16 254.871 387.341L262.708 391.864C262.894 391.956 263.098 392.004 263.305 392.007C263.512 392.009 263.717 391.965 263.905 391.878L263.863 391.892ZM329.2 295.729C329.385 295.816 329.587 295.861 329.792 295.861C329.996 295.861 330.198 295.816 330.383 295.729L338.582 290.997C338.93 290.802 338.958 290.496 338.651 290.315L336.564 289.104C336.378 289.017 336.176 288.972 335.972 288.972C335.767 288.972 335.565 289.017 335.38 289.104L327.182 293.837C326.834 294.031 326.806 294.351 327.112 294.519L329.2 295.729ZM269.681 333.407C269.867 333.502 270.072 333.552 270.28 333.552C270.488 333.552 270.693 333.502 270.878 333.407L279.063 328.675C279.411 328.48 279.453 328.173 279.147 327.992L271.296 323.469C271.113 323.374 270.91 323.324 270.704 323.324C270.498 323.324 270.296 323.374 270.113 323.469L261.901 328.187C261.553 328.382 261.525 328.688 261.901 328.869L269.681 333.407ZM293.636 319.586C293.822 319.673 294.024 319.718 294.228 319.718C294.433 319.718 294.634 319.673 294.82 319.586L303.018 314.853C303.366 314.659 303.394 314.338 303.088 314.171L295.307 309.578C295.12 309.489 294.915 309.443 294.708 309.443C294.501 309.443 294.297 309.489 294.11 309.578L285.925 314.311C285.577 314.519 285.549 314.826 285.856 315.007L293.636 319.586ZM255.066 341.855C255.253 341.944 255.458 341.991 255.665 341.991C255.872 341.991 256.076 341.944 256.263 341.855L264.448 337.123C264.796 336.914 264.824 336.608 264.448 336.427L256.611 331.904C256.426 331.817 256.224 331.772 256.02 331.772C255.815 331.772 255.613 331.817 255.428 331.904L247.23 336.636C246.882 336.831 246.854 337.151 247.23 337.318L255.066 341.855ZM281.666 326.545C281.849 326.64 282.051 326.69 282.257 326.69C282.463 326.69 282.666 326.64 282.849 326.545L291.047 321.827C291.395 321.618 291.423 321.312 291.047 321.131L283.211 316.607C283.024 316.518 282.819 316.472 282.612 316.472C282.405 316.472 282.201 316.518 282.014 316.607L273.829 321.339C273.481 321.534 273.44 321.841 273.829 322.021L281.666 326.545ZM231.125 355.774C231.31 355.861 231.512 355.906 231.717 355.906C231.921 355.906 232.123 355.861 232.308 355.774L240.507 351.042C240.855 350.847 240.882 350.527 240.576 350.359L232.74 345.836C232.553 345.747 232.348 345.701 232.141 345.701C231.934 345.701 231.73 345.747 231.543 345.836L223.344 350.568C222.996 350.777 222.968 351.083 223.344 351.264L231.125 355.774ZM243.096 348.815C243.278 348.91 243.481 348.959 243.687 348.959C243.893 348.959 244.096 348.91 244.279 348.815L252.477 344.082C252.825 343.887 252.853 343.581 252.547 343.4L244.71 338.877C244.525 338.782 244.32 338.732 244.112 338.732C243.903 338.732 243.698 338.782 243.513 338.877L235.329 343.609C234.981 343.804 234.939 344.11 235.259 344.291L243.096 348.815ZM305.259 309.606C305.442 309.701 305.645 309.751 305.851 309.751C306.057 309.751 306.26 309.701 306.442 309.606L314.641 304.874C314.989 304.679 315.016 304.373 314.71 304.192L312.622 302.995C312.435 302.906 312.231 302.86 312.024 302.86C311.817 302.86 311.612 302.906 311.425 302.995L303.241 307.727C302.893 307.936 302.851 308.242 303.171 308.423L305.259 309.606ZM341.24 288.798C341.426 288.893 341.631 288.943 341.839 288.943C342.047 288.943 342.252 288.893 342.437 288.798L350.622 284.08C350.97 283.871 351.012 283.565 350.622 283.384L348.534 282.187C348.351 282.092 348.148 282.042 347.943 282.042C347.737 282.042 347.534 282.092 347.351 282.187L339.152 286.905C338.805 287.114 338.777 287.42 339.152 287.601L341.24 288.798ZM357.707 298.304C357.892 298.4 358.097 298.449 358.305 298.449C358.514 298.449 358.719 298.4 358.904 298.304L367.088 293.572C367.436 293.377 367.464 293.071 367.158 292.89L359.335 288.325C359.153 288.23 358.95 288.18 358.744 288.18C358.538 288.18 358.335 288.23 358.152 288.325L349.954 293.057C349.606 293.252 349.578 293.558 349.884 293.739L357.707 298.304ZM380.493 324.569L388.677 319.836C389.025 319.641 389.053 319.335 388.747 319.154L380.91 314.631C380.728 314.536 380.525 314.486 380.319 314.486C380.113 314.486 379.91 314.536 379.727 314.631L371.529 319.363C371.181 319.558 371.153 319.864 371.459 320.045L379.296 324.569C379.481 324.664 379.686 324.713 379.894 324.713C380.102 324.713 380.308 324.664 380.493 324.569ZM317.271 302.633C317.456 302.72 317.658 302.765 317.863 302.765C318.067 302.765 318.269 302.72 318.455 302.633L326.653 297.901C327.001 297.692 327.029 297.386 326.723 297.205L324.635 296.008C324.45 295.913 324.244 295.863 324.036 295.863C323.828 295.863 323.623 295.913 323.438 296.008L315.253 300.74C314.905 300.935 314.877 301.241 315.183 301.422L317.271 302.633ZM219.182 362.566C219.367 362.661 219.573 362.711 219.781 362.711C219.989 362.711 220.194 362.661 220.379 362.566L228.564 357.848C228.912 357.639 228.954 357.333 228.564 357.152L220.727 352.628C220.542 352.541 220.34 352.496 220.136 352.496C219.931 352.496 219.729 352.541 219.544 352.628L211.346 357.36C210.998 357.555 210.97 357.862 211.346 358.043L219.182 362.566Z" fill="var(--fill-0, #455A64)"/>
<g id="tuch-pad">
<path id="Vector_7" d="M253.479 430.711L255.261 431.727L302.573 459.049L386.715 410.46L388.469 409.471L339.375 381.133L253.479 430.711Z" fill="var(--fill-0, #263238)"/>
<path id="Vector_8" d="M385.643 411.086L339.375 384.404L256.347 432.354L302.573 459.049L385.643 411.086Z" fill="var(--fill-0, #37474F)"/>
</g>
<path id="Vector_9" d="M19.9832 413.09C16.573 411.517 15.6404 408.803 15.3203 404.015L0.00905503 180.178C-0.00419901 177.557 0.646161 174.975 1.89956 172.673C3.15296 170.37 4.96863 168.423 7.17748 167.011L291.952 2.63383C296.253 0.142423 299.413 -1.20767 303.394 1.52035C307.374 4.24838 307.458 5.6959 307.778 10.5256L323.089 234.349C323.106 236.975 322.453 239.563 321.191 241.867C319.929 244.171 318.101 246.115 315.879 247.516L31.1326 411.907C26.8315 414.385 24.3956 415.122 19.9832 413.09Z" fill="var(--fill-0, #37474F)"/>
<path id="Vector_10" d="M307.834 10.5118C307.513 5.73778 303.755 3.8727 299.482 6.33628L14.6519 170.742C12.3846 172.13 10.5409 174.114 9.32084 176.476L1.88795 172.732C3.11494 170.391 4.93992 168.418 7.17727 167.011L291.952 2.63396C296.253 0.142549 299.426 -1.23538 303.379 1.50656C307.569 4.40161 307.458 5.73778 307.834 10.5118Z" fill="var(--fill-0, #455A64)"/>
<path id="Vector_11" d="M30.5618 412.227C26.6366 414.552 24.159 414.83 19.9832 413.076C16.7957 411.684 15.6404 408.803 15.3202 404.015L0.00903361 180.164C-0.0849434 177.565 0.561915 174.992 1.87422 172.746L9.32103 176.476C8.02557 178.734 7.37555 181.305 7.44193 183.908L22.7531 407.759C23.0454 412.172 26.8872 414.399 30.5618 412.227Z" fill="var(--fill-0, #263238)"/>
<path id="Vector_12" d="M19.5937 179.259L293.609 21.1593C296.197 19.6561 298.452 20.7835 298.647 23.6507L312.928 232.428C312.933 234.002 312.538 235.552 311.781 236.932C311.024 238.312 309.929 239.478 308.6 240.32L34.5848 398.504C31.9958 400.007 29.7408 398.879 29.546 396.012L15.2787 187.235C15.2574 185.648 15.6427 184.082 16.398 182.685C17.1533 181.289 18.2535 180.11 19.5937 179.259Z" fill="var(--fill-0, black)"/>
<path id="Vector_13" d="M19.5934 179.26C18.2652 180.103 17.1727 181.269 16.4181 182.649C15.6634 184.029 15.2713 185.578 15.2784 187.151L29.309 392.533L300.192 236.2C301.524 235.356 302.62 234.189 303.377 232.806C304.134 231.423 304.528 229.871 304.521 228.294L290.476 22.9549L19.5934 179.26Z" fill="var(--fill-0, white)"/>
</g>
</svg>
