<svg preserveAspectRatio="none" width="100%" height="100%" overflow="visible" style="display: block;" viewBox="0 0 84.8937 415.69" fill="none" xmlns="http://www.w3.org/2000/svg">
<g id="Arrow">
<path id="Vector" d="M19.2504 405.571L36.7886 415.69L65.6433 399.029V46.613L84.8937 35.5061L51.8771 10.1187L34.3388 0L0 64.2617L17.5383 74.3943L19.2504 73.4061V405.571Z" fill="var(--fill-0, #167287)"/>
<path id="Vector_2" opacity="0.8" d="M19.2504 405.571L36.7886 415.69L65.6433 399.029V46.613L84.8937 35.5061L51.8771 10.1187L34.3388 0L0 64.2617L17.5383 74.3943L19.2504 73.4061V405.571Z" fill="var(--fill-0, white)"/>
<path id="down-arrow" d="M36.7885 415.69L65.6432 399.029V46.613L84.8935 35.506L51.877 10.1187L17.5381 74.3943L36.7885 63.2734V415.69Z" fill="var(--fill-0, #167287)"/>
<path id="down-arrow_2" opacity="0.7" d="M36.7885 415.69L65.6432 399.029V46.613L84.8935 35.506L51.877 10.1187L17.5381 74.3943L36.7885 63.2734V415.69Z" fill="var(--fill-0, white)"/>
<path id="Vector_3" d="M19.2501 405.571L36.7874 415.69V63.2735L19.2501 73.4061V405.571Z" fill="var(--fill-0, #167287)"/>
<path id="Vector_4" opacity="0.5" d="M19.2501 405.571L36.7874 415.69V63.2735L19.2501 73.4061V405.571Z" fill="var(--fill-0, white)"/>
</g>
</svg>
