<svg preserveAspectRatio="none" width="100%" height="100%" overflow="visible" style="display: block;" viewBox="0 0 144.479 203.8" fill="none" xmlns="http://www.w3.org/2000/svg">
<g id="coins">
<path id="Vector" d="M141.053 155.962C138.06 150.91 133.091 146.219 126.104 142.141C101.675 128.028 62.0751 128.028 37.605 142.141C30.6454 146.163 25.6622 150.91 22.6696 155.962H19.2872V168.725C19.7326 177.619 25.8154 186.43 37.5632 193.208C62.0055 207.321 101.592 207.321 126.062 193.208C137.824 186.43 143.948 177.619 144.394 168.725V155.948L141.053 155.962Z" fill="var(--fill-0, #167287)"/>
<path id="Vector_2" opacity="0.3" d="M141.053 155.962C138.06 150.91 133.091 146.219 126.104 142.141C101.675 128.028 62.0751 128.028 37.605 142.141C30.6454 146.163 25.6622 150.91 22.6696 155.962H19.2872V168.725C19.7326 177.619 25.8154 186.43 37.5632 193.208C62.0055 207.321 101.592 207.321 126.062 193.208C137.824 186.43 143.948 177.619 144.394 168.725V155.948L141.053 155.962Z" fill="var(--fill-0, black)"/>
<path id="Vector_3" opacity="0.1" d="M81.8683 131.563C65.8472 131.563 49.854 135.084 37.605 142.141C30.6454 146.163 25.6622 150.909 22.6696 155.962H19.2872V168.725C19.7326 177.619 25.8154 186.429 37.5632 193.208C49.7844 200.264 65.8054 203.8 81.8265 203.8L81.8683 131.563Z" fill="var(--fill-0, black)"/>
<path id="Vector_4" opacity="0.1" d="M47.6825 137.423C44.2137 138.718 40.8571 140.296 37.6467 142.141C30.6871 146.163 25.704 150.91 22.7113 155.962H19.329V168.725C19.7744 177.619 25.8571 186.43 37.605 193.208C40.8288 195.055 44.1994 196.633 47.6825 197.926V137.423Z" fill="var(--fill-0, black)"/>
<path id="Vector_5" opacity="0.5" d="M116.04 137.423C119.52 138.713 122.886 140.291 126.104 142.141C133.063 146.163 138.06 150.91 141.053 155.962H144.435V168.725C143.99 177.619 137.852 186.43 126.104 193.208C122.886 195.057 119.52 196.636 116.04 197.926V137.423Z" fill="var(--fill-0, #167287)"/>
<path id="Vector_6" d="M37.6467 130.422C13.2183 144.535 13.2183 167.403 37.6467 181.516C59.0406 193.862 92.0432 195.435 116.332 186.137L117.307 185.762C120.351 184.56 123.305 183.142 126.145 181.516C146.523 169.741 149.92 151.884 136.307 138.091C133.286 135.088 129.872 132.509 126.159 130.422C101.675 116.308 62.0472 116.308 37.6467 130.422Z" fill="var(--fill-0, #167287)"/>
<path id="Vector_7" opacity="0.2" d="M37.6467 130.422C13.2183 144.535 13.2183 167.403 37.6467 181.516C59.0406 193.862 92.0432 195.435 116.332 186.137L117.307 185.762C120.351 184.56 123.305 183.142 126.145 181.516C146.523 169.741 149.92 151.884 136.307 138.091C133.286 135.088 129.872 132.509 126.159 130.422C101.675 116.308 62.0472 116.308 37.6467 130.422Z" fill="var(--fill-0, black)"/>
<path id="Vector_8" opacity="0.5" d="M136.265 138.105C136.516 138.411 145.076 147.43 142.807 160.374C140.636 172.789 123.251 183.242 117.265 185.748C120.31 184.546 123.263 183.128 126.104 181.502C146.482 169.741 149.878 151.884 136.265 138.105Z" fill="var(--fill-0, #F5F5F5)"/>
<path id="Vector_9" opacity="0.5" d="M27.4575 173.833C27.193 173.541 18.6466 164.522 20.9154 151.564C23.0729 139.149 40.4024 128.696 46.4573 126.19C43.4071 127.388 40.4484 128.807 37.6046 130.436C17.2268 142.183 13.8444 160.04 27.4575 173.833Z" fill="var(--fill-0, #F5F5F5)"/>
<path id="Vector_10" d="M81.8822 189.506C114.008 189.506 140.051 174.469 140.051 155.92C140.051 137.372 114.008 122.335 81.8822 122.335C49.7566 122.335 23.7136 137.372 23.7136 155.92C23.7136 174.469 49.7566 189.506 81.8822 189.506Z" fill="var(--fill-0, #167287)"/>
<path id="Vector_11" opacity="0.1" d="M81.8822 189.506C114.008 189.506 140.051 174.469 140.051 155.92C140.051 137.372 114.008 122.335 81.8822 122.335C49.7566 122.335 23.7136 137.372 23.7136 155.92C23.7136 174.469 49.7566 189.506 81.8822 189.506Z" fill="var(--fill-0, white)"/>
<path id="Vector_12" opacity="0.2" d="M137.406 165.942C142.083 157.298 140.566 147.778 132.841 139.691C131.319 138.121 129.671 136.678 127.913 135.377C126.402 134.258 124.832 133.221 123.208 132.273C122.276 131.73 121.329 131.215 120.341 130.728C122.763 134.708 121.872 138.967 108.176 139.761C81.3532 141.334 115.33 166.958 115.33 166.958C115.33 166.958 132.618 158.606 137.406 165.942Z" fill="var(--fill-0, white)"/>
<path id="Vector_13" opacity="0.3" d="M134.65 158.857C138.672 158.412 140.662 154.264 139.09 149.615C137.517 144.966 133.007 141.556 128.985 142.002C124.962 142.447 122.958 146.595 124.531 151.244C126.104 155.892 130.613 159.316 134.65 158.857Z" fill="var(--fill-0, white)"/>
<path id="Vector_14" d="M92.238 180.208C90.8461 170.256 47.3901 142.698 47.3901 142.698C47.3901 142.698 37.744 138.828 40.9455 132.078C39.341 132.993 37.7889 133.996 36.2964 135.084C35.2803 135.808 34.3477 136.56 33.5126 137.325C20.5537 148.544 20.5398 163.283 33.5126 174.515C34.3895 175.267 35.336 176.019 36.2964 176.756C37.6841 177.76 39.1245 178.69 40.6114 179.54C42.0868 180.403 43.6319 181.21 45.2187 181.962C46.4853 182.56 47.8077 183.131 49.1439 183.646C50.4802 184.161 51.8303 184.662 53.2223 185.121C57.4618 186.503 61.8043 187.545 66.2089 188.239L69.1181 188.671C73.4251 189.219 77.763 189.488 82.1048 189.478C87.4254 189.471 92.7367 189.034 97.9867 188.169C97.9867 188.169 90.9853 186.819 92.238 180.208Z" fill="var(--fill-0, #167287)"/>
<path id="Vector_15" opacity="0.2" d="M91.6117 180.208C90.2893 170.256 46.7777 142.698 46.7777 142.698C46.7777 142.698 37.1177 138.828 40.3331 132.078C38.7241 132.993 37.1674 133.996 35.6701 135.084C34.6679 135.808 33.7214 136.56 32.8862 137.325C19.9274 148.544 19.9135 163.283 32.8862 174.515C33.7632 175.267 34.7097 176.019 35.6701 176.756C37.0577 177.76 38.4981 178.69 39.9851 179.54C41.4605 180.403 43.0056 181.21 44.5924 181.962C45.8729 182.56 47.1814 183.131 48.5176 183.646C49.8539 184.161 51.204 184.662 52.5959 185.121C56.8359 186.501 61.1784 187.544 65.5826 188.239L68.5057 188.671C72.8127 189.219 77.1506 189.489 81.4924 189.478C86.8129 189.47 92.1242 189.033 97.3743 188.169C97.3743 188.169 90.3729 186.819 91.6117 180.208Z" fill="var(--fill-0, white)"/>
<path id="Vector_16" d="M51.2179 138.23C34.988 147.597 34.3199 162.546 49.2414 172.372C49.8677 172.79 50.5359 173.207 51.2179 173.611C68.1437 183.354 95.5786 183.354 112.463 173.611C129.347 163.868 129.389 148.001 112.463 138.23C111.781 137.826 111.071 137.437 110.347 137.075C93.3237 128.473 67.4478 128.849 51.2179 138.23Z" fill="var(--fill-0, #167287)"/>
<path id="Vector_17" opacity="0.2" d="M51.2179 138.23C34.988 147.597 34.3199 162.546 49.2414 172.372C49.8677 172.79 50.5359 173.207 51.2179 173.611C68.1437 183.354 95.5786 183.354 112.463 173.611C129.347 163.868 129.389 148.001 112.463 138.23C111.781 137.826 111.071 137.437 110.347 137.075C93.3237 128.473 67.4478 128.849 51.2179 138.23Z" fill="var(--fill-0, black)"/>
<path id="Vector_18" d="M81.8821 179.832C104.76 179.832 123.306 169.126 123.306 155.92C123.306 142.714 104.76 132.008 81.8821 132.008C59.0044 132.008 40.4583 142.714 40.4583 155.92C40.4583 169.126 59.0044 179.832 81.8821 179.832Z" fill="var(--fill-0, #167287)"/>
<path id="Vector_19" opacity="0.5" d="M81.8821 179.832C104.76 179.832 123.306 169.126 123.306 155.92C123.306 142.714 104.76 132.008 81.8821 132.008C59.0044 132.008 40.4583 142.714 40.4583 155.92C40.4583 169.126 59.0044 179.832 81.8821 179.832Z" fill="var(--fill-0, black)"/>
<path id="Vector_20" d="M52.5959 145.676C68.7701 136.337 94.9941 136.337 111.168 145.676C117.794 149.49 121.691 154.278 122.902 159.247C121.691 164.216 117.794 168.99 111.168 172.831C94.9941 182.171 68.7701 182.171 52.5959 172.831C45.9843 169.004 42.073 164.216 40.862 159.247C42.073 154.278 45.9982 149.49 52.5959 145.676Z" fill="var(--fill-0, #167287)"/>
<path id="Vector_21" opacity="0.35" d="M52.5959 145.676C68.7701 136.337 94.9941 136.337 111.168 145.676C117.794 149.49 121.691 154.278 122.902 159.247C121.691 164.216 117.794 168.99 111.168 172.831C94.9941 182.171 68.7701 182.171 52.5959 172.831C45.9843 169.004 42.073 164.216 40.862 159.247C42.073 154.278 45.9982 149.49 52.5959 145.676Z" fill="var(--fill-0, black)"/>
<path id="Vector_22" d="M107.967 163.158C107.967 162.351 107.967 159.066 107.967 158.217C107.967 156.185 106.575 154.222 103.554 152.455H103.443C97.8751 149.253 92.1404 149.671 87.0181 150.951C84.8328 151.494 82.7727 152.204 80.8797 152.858C78.7112 153.637 76.4988 154.287 74.2541 154.807C73.2291 155.052 72.1753 155.155 71.1223 155.113C70.2201 155.065 69.3381 154.828 68.5333 154.417L68.7421 154.278C68.9369 154.139 69.1596 154.013 69.3823 153.874C69.9452 153.553 70.5261 153.265 71.1223 153.011C72.5692 152.373 74.1278 152.026 75.7088 151.99C77.2899 151.954 78.8625 152.23 80.3369 152.802L85.6401 147.444V142.531C80.957 140.937 75.9089 140.753 71.1223 142.002C69.5407 142.408 67.9951 142.943 66.5011 143.602L61.1979 140.54L54.8506 144.201V149.114L57.0221 150.367C56.4418 151.213 56.1179 152.208 56.0895 153.234C56.0895 154.055 56.0895 157.312 56.0895 158.147C56.0895 160.165 57.4814 162.128 60.5993 163.896C63.2648 165.445 66.2728 166.311 69.3545 166.415C69.9391 166.415 70.5238 166.415 71.1084 166.415C74.32 166.181 77.4829 165.497 80.5039 164.383L82.3412 163.756L76.9962 169.115V174.028C80.2903 175.277 83.8041 175.844 87.3239 175.693C90.8438 175.542 94.2962 174.678 97.4715 173.151L102.719 176.172L109.052 172.511V167.598L106.881 166.345C107.551 165.414 107.928 164.304 107.967 163.158ZM94.6041 162.74C94.1266 163.014 93.634 163.26 93.1286 163.478C89.8267 164.891 86.101 164.946 82.7588 163.631C87.728 161.877 91.8759 160.346 95.4114 162.239C95.1609 162.351 94.8964 162.532 94.6041 162.699V162.74Z" fill="var(--fill-0, #167287)"/>
<path id="Vector_23" d="M87.0181 150.84C84.8328 151.383 82.7727 152.093 80.8797 152.747C78.7135 153.563 76.5012 154.251 74.2541 154.807C73.2291 155.052 72.1753 155.155 71.1223 155.113C70.058 155.055 69.0229 154.744 68.1018 154.208C66.0696 153.025 65.7773 151.313 68.7421 149.365C68.9369 149.225 69.1596 149.1 69.3824 148.961C69.9423 148.635 70.5236 148.346 71.1223 148.098C72.5692 147.46 74.1278 147.113 75.7088 147.077C77.2899 147.041 78.8625 147.317 80.3369 147.889L85.6401 142.531C80.957 140.937 75.9089 140.753 71.1223 142.002C69.5407 142.408 67.9951 142.943 66.5011 143.602L61.1979 140.54L54.8506 144.201L60.1122 147.235C54.7811 151.285 54.6697 155.489 60.6689 158.954C63.3344 160.504 66.3424 161.37 69.4241 161.474C70.0087 161.474 70.5933 161.474 71.178 161.474C74.3896 161.24 77.5525 160.556 80.5735 159.442C86.6562 157.409 91.5836 155.016 95.6898 157.382C98.4737 158.968 97.6663 160.959 94.6598 162.699C94.1823 162.972 93.6897 163.218 93.1843 163.436C91.5188 164.149 89.7277 164.523 87.916 164.535C86.1042 164.547 84.3083 164.197 82.6335 163.506L77.0658 169.073C80.3615 170.317 83.8754 170.88 87.3947 170.726C90.9141 170.573 94.3658 169.708 97.5411 168.182L102.789 171.217L109.122 167.556L103.833 164.55C109.094 160.472 109.707 156.032 103.554 152.427H103.443C97.889 149.142 92.1404 149.559 87.0181 150.84Z" fill="var(--fill-0, #167287)"/>
<g id="Group" opacity="0.2">
<path id="Vector_24" d="M87.0181 150.84C84.8328 151.383 82.7727 152.093 80.8797 152.747C78.7135 153.563 76.5012 154.251 74.2541 154.807C73.2291 155.052 72.1753 155.155 71.1223 155.113C70.058 155.055 69.0229 154.744 68.1018 154.208C66.0696 153.025 65.7773 151.313 68.7421 149.365C68.9369 149.225 69.1596 149.1 69.3824 148.961C69.9423 148.635 70.5236 148.346 71.1223 148.098C72.5692 147.46 74.1278 147.113 75.7088 147.077C77.2899 147.041 78.8625 147.317 80.3369 147.889L85.6401 142.531C80.957 140.937 75.9089 140.753 71.1223 142.002C69.5407 142.408 67.9951 142.943 66.5011 143.602L61.1979 140.54L54.8506 144.201L60.1122 147.235C54.7811 151.285 54.6697 155.489 60.6689 158.954C63.3344 160.504 66.3424 161.37 69.4241 161.474C70.0087 161.474 70.5933 161.474 71.178 161.474C74.3896 161.24 77.5525 160.556 80.5735 159.442C86.6562 157.409 91.5836 155.016 95.6898 157.382C98.4737 158.968 97.6663 160.959 94.6598 162.699C94.1823 162.972 93.6897 163.218 93.1843 163.436C91.5188 164.149 89.7277 164.523 87.916 164.535C86.1042 164.547 84.3083 164.197 82.6335 163.506L77.0658 169.073C80.3615 170.317 83.8754 170.88 87.3947 170.726C90.9141 170.573 94.3658 169.708 97.5411 168.182L102.789 171.217L109.122 167.556L103.833 164.55C109.094 160.472 109.707 156.032 103.554 152.427H103.443C97.889 149.142 92.1404 149.559 87.0181 150.84Z" fill="var(--fill-0, white)"/>
</g>
<path id="Vector_25" opacity="0.45" d="M54.8649 144.187L61.2534 141.278L66.5007 143.588L61.1978 140.526L54.8649 144.187Z" fill="var(--fill-0, #F5F5F5)"/>
<path id="Vector_26" opacity="0.45" d="M70.385 142.197C74.9013 141.293 79.5659 141.45 84.0112 142.656L80.3367 147.847L85.6396 142.489C80.7053 140.828 75.3793 140.726 70.385 142.197Z" fill="var(--fill-0, #F5F5F5)"/>
<path id="Vector_27" opacity="0.45" d="M103.443 152.343H103.555C109.707 155.948 109.122 160.388 103.833 164.466C108.496 159.386 107.661 155.837 102.58 152.9C97.4998 149.963 91.0274 150.005 87.0186 150.77C92.1409 149.56 97.8896 149.142 103.443 152.343Z" fill="var(--fill-0, #F5F5F5)"/>
<path id="Vector_28" opacity="0.45" d="M103.832 164.55L107.855 167.626L102.733 171.231L109.066 167.57L103.832 164.55Z" fill="var(--fill-0, #F5F5F5)"/>
<path id="Vector_29" opacity="0.45" d="M93.1281 163.436C89.9966 165.012 86.3795 165.326 83.0233 164.313L77.0105 169.087L82.5779 163.52C84.2535 164.209 86.0498 164.556 87.8614 164.542C89.6731 164.527 91.4636 164.152 93.1281 163.436Z" fill="var(--fill-0, #F5F5F5)"/>
<path id="Vector_30" opacity="0.45" d="M74.254 154.807C71.86 155.753 68.4083 155.6 66.6545 154.097C64.9008 152.594 66.0004 150.826 68.7423 149.365C65.7777 151.313 66.07 153.025 68.1021 154.208C69.0231 154.745 70.0582 155.055 71.1224 155.113C72.1753 155.155 73.229 155.052 74.254 154.807Z" fill="var(--fill-0, #F5F5F5)"/>
<path id="Vector_31" opacity="0.45" d="M60.0565 147.249C59.6112 147.653 55.7975 151.216 57.4816 154.765C59.2632 158.551 64.8584 160.987 69.368 161.474C66.2889 161.378 63.2812 160.523 60.6133 158.982C54.6144 155.503 54.7258 151.299 60.0565 147.249Z" fill="var(--fill-0, #F5F5F5)"/>
<path id="Vector_32" d="M131.797 138.661C128.804 133.609 123.821 128.918 116.847 124.84C92.4052 110.727 52.8188 110.727 28.3488 124.84C21.3891 128.863 16.3921 133.609 13.3994 138.661H10.017V151.438C10.4764 160.332 16.5591 169.143 28.307 175.921C52.7492 190.034 92.3356 190.034 116.806 175.921C128.554 169.143 134.678 160.332 135.137 151.438V138.661H131.797Z" fill="var(--fill-0, #167287)"/>
<path id="Vector_33" opacity="0.3" d="M131.797 138.661C128.804 133.609 123.821 128.918 116.847 124.84C92.4052 110.727 52.8188 110.727 28.3488 124.84C21.3891 128.863 16.3921 133.609 13.3994 138.661H10.017V151.438C10.4764 160.332 16.5591 169.143 28.307 175.921C52.7492 190.034 92.3356 190.034 116.806 175.921C128.554 169.143 134.678 160.332 135.137 151.438V138.661H131.797Z" fill="var(--fill-0, black)"/>
<path id="Vector_34" opacity="0.1" d="M72.5981 114.262C56.577 114.262 40.5838 117.784 28.3488 124.84C21.3891 128.863 16.3921 133.609 13.3994 138.661H10.017V151.439C10.4764 160.332 16.5591 169.143 28.307 175.921C40.5281 182.978 56.5353 186.513 72.5563 186.513L72.5981 114.262Z" fill="var(--fill-0, black)"/>
<path id="Vector_35" opacity="0.1" d="M38.4124 120.122C34.9348 121.418 31.5691 122.996 28.3488 124.84C21.3891 128.863 16.3921 133.609 13.3994 138.661H10.017V151.439C10.4764 160.332 16.5591 169.143 28.307 175.921C31.5273 177.766 34.8931 179.344 38.3706 180.64L38.4124 120.122Z" fill="var(--fill-0, black)"/>
<path id="Vector_36" opacity="0.5" d="M106.77 120.122C110.253 121.415 113.624 122.993 116.847 124.84C123.807 128.863 128.804 133.609 131.797 138.661H135.179V151.439C134.72 160.332 128.595 169.143 116.847 175.935C113.62 177.772 110.25 179.345 106.77 180.64V120.122Z" fill="var(--fill-0, #167287)"/>
<path id="Vector_37" d="M28.3487 113.121C3.90649 127.234 3.90649 150.102 28.3487 164.216C49.7287 176.561 82.7313 178.134 107.02 168.837L107.981 168.461C111.031 167.263 113.99 165.844 116.834 164.216C137.211 152.441 140.594 134.583 126.981 120.79C123.954 117.794 120.542 115.215 116.834 113.121C92.4052 99.0075 52.791 99.0075 28.3487 113.121Z" fill="var(--fill-0, #167287)"/>
<path id="Vector_38" opacity="0.2" d="M28.3487 113.121C3.90649 127.234 3.90649 150.102 28.3487 164.216C49.7287 176.561 82.7313 178.134 107.02 168.837L107.981 168.461C111.031 167.263 113.99 165.844 116.834 164.216C137.211 152.441 140.594 134.583 126.981 120.79C123.954 117.794 120.542 115.215 116.834 113.121C92.4052 99.0075 52.791 99.0075 28.3487 113.121Z" fill="var(--fill-0, black)"/>
<path id="Vector_39" opacity="0.5" d="M126.994 120.79C127.259 121.096 135.805 130.115 133.536 143.06C131.379 155.475 114.049 165.928 107.995 168.433C111.045 167.235 114.003 165.816 116.847 164.188C137.225 152.441 140.649 134.583 126.994 120.79Z" fill="var(--fill-0, #F5F5F5)"/>
<path id="Vector_40" opacity="0.5" d="M18.1595 156.533C17.895 156.24 9.34857 147.221 11.6035 134.263C13.7749 121.848 31.1601 111.395 37.1454 108.89C34.0985 110.085 31.1442 111.504 28.3066 113.135C7.97057 124.882 4.58817 142.739 18.1595 156.533Z" fill="var(--fill-0, #F5F5F5)"/>
<path id="Vector_41" d="M72.612 172.205C104.738 172.205 130.781 157.168 130.781 138.62C130.781 120.071 104.738 105.034 72.612 105.034C40.4864 105.034 14.4434 120.071 14.4434 138.62C14.4434 157.168 40.4864 172.205 72.612 172.205Z" fill="var(--fill-0, #167287)"/>
<path id="Vector_42" opacity="0.1" d="M72.612 172.205C104.738 172.205 130.781 157.168 130.781 138.62C130.781 120.071 104.738 105.034 72.612 105.034C40.4864 105.034 14.4434 120.071 14.4434 138.62C14.4434 157.168 40.4864 172.205 72.612 172.205Z" fill="var(--fill-0, white)"/>
<path id="Vector_43" opacity="0.2" d="M128.122 148.641C132.799 139.998 131.268 130.477 123.556 122.405C122.035 120.829 120.387 119.381 118.629 118.076C117.111 116.96 115.536 115.924 113.91 114.972C112.978 114.429 112.031 113.914 111.043 113.427C113.465 117.408 112.574 121.667 98.8775 122.46C72.069 124.033 106.046 149.657 106.046 149.657C106.046 149.657 123.348 141.306 128.122 148.641Z" fill="var(--fill-0, white)"/>
<path id="Vector_44" opacity="0.3" d="M125.338 141.556C129.36 141.111 131.351 136.977 129.792 132.314C128.233 127.652 123.695 124.256 119.673 124.701C115.65 125.146 113.66 129.294 115.219 133.943C116.778 138.592 121.357 142.016 125.338 141.556Z" fill="var(--fill-0, white)"/>
<path id="Vector_45" d="M82.9678 162.907C81.6455 152.956 38.1338 125.397 38.1338 125.397C38.1338 125.397 28.4739 121.528 31.6892 114.777C30.0803 115.692 28.5235 116.696 27.0262 117.784C26.0241 118.507 25.0775 119.259 24.2424 120.024C11.2835 131.243 11.2696 145.982 24.2424 157.215C25.1193 157.98 26.0658 158.718 27.0262 159.455C28.4139 160.46 29.8543 161.389 31.3412 162.239C32.8167 163.116 34.3617 163.909 35.9485 164.661C37.2291 165.259 38.5375 165.83 39.8737 166.345C41.21 166.86 42.5741 167.361 43.9521 167.821C48.192 169.2 52.5345 170.243 56.9387 170.938L59.8618 171.37C64.1688 171.918 68.5067 172.188 72.8485 172.177C78.1691 172.17 83.4803 171.732 88.7304 170.869C88.7304 170.869 81.729 169.463 82.9678 162.907Z" fill="var(--fill-0, #167287)"/>
<path id="Vector_46" opacity="0.2" d="M82.3554 162.907C81.0331 152.956 37.5075 125.397 37.5075 125.397C37.5075 125.397 27.8614 121.528 31.0628 114.777C29.4584 115.692 27.9063 116.696 26.4138 117.784C25.3977 118.507 24.4651 119.259 23.63 120.024C10.685 131.243 10.6572 145.982 23.63 157.215C24.5069 157.98 25.4534 158.718 26.4138 159.455C27.7972 160.466 29.2379 161.395 30.7288 162.239C32.2042 163.116 33.7493 163.909 35.3361 164.661C36.6027 165.259 37.9251 165.83 39.2613 166.345C40.5976 166.86 41.9477 167.361 43.3397 167.821C47.5792 169.202 51.9218 170.244 56.3264 170.938L59.2355 171.37C63.5425 171.918 67.8804 172.188 72.2222 172.177C77.5428 172.171 82.8541 171.733 88.1041 170.869C88.1041 170.869 81.1027 169.463 82.3554 162.907Z" fill="var(--fill-0, white)"/>
<path id="Vector_47" d="M41.9476 120.929C25.7177 130.296 25.0635 145.245 39.9711 155.071C40.6114 155.489 41.2656 155.906 41.9615 156.31C58.8874 166.053 86.3083 166.053 103.206 156.31C120.104 146.567 120.146 130.7 103.206 120.929C102.51 120.526 101.814 120.136 101.077 119.774C84.0952 111.172 58.1914 111.548 41.9476 120.929Z" fill="var(--fill-0, #167287)"/>
<path id="Vector_48" opacity="0.2" d="M41.9476 120.929C25.7177 130.296 25.0635 145.245 39.9711 155.071C40.6114 155.489 41.2656 155.906 41.9615 156.31C58.8874 166.053 86.3083 166.053 103.206 156.31C120.104 146.567 120.146 130.7 103.206 120.929C102.51 120.526 101.814 120.136 101.077 119.774C84.0952 111.172 58.1914 111.548 41.9476 120.929Z" fill="var(--fill-0, black)"/>
<path id="Vector_49" d="M72.6258 162.531C95.5035 162.531 114.05 151.826 114.05 138.62C114.05 125.413 95.5035 114.708 72.6258 114.708C49.7481 114.708 31.202 125.413 31.202 138.62C31.202 151.826 49.7481 162.531 72.6258 162.531Z" fill="var(--fill-0, #167287)"/>
<path id="Vector_50" opacity="0.5" d="M72.6258 162.531C95.5035 162.531 114.05 151.826 114.05 138.62C114.05 125.413 95.5035 114.708 72.6258 114.708C49.7481 114.708 31.202 125.413 31.202 138.62C31.202 151.826 49.7481 162.531 72.6258 162.531Z" fill="var(--fill-0, black)"/>
<path id="Vector_51" d="M43.3257 128.362C59.4999 119.022 85.7377 119.022 101.912 128.362C108.524 132.175 112.435 136.963 113.632 141.932C112.435 146.901 108.524 151.675 101.912 155.517C85.7377 164.856 59.4999 164.856 43.3257 155.517C36.714 151.689 32.8027 146.901 31.6057 141.932C32.8027 136.977 36.714 132.189 43.3257 128.362Z" fill="var(--fill-0, #167287)"/>
<path id="Vector_52" opacity="0.35" d="M43.3257 128.362C59.4999 119.022 85.7377 119.022 101.912 128.362C108.524 132.175 112.435 136.963 113.632 141.932C112.435 146.901 108.524 151.675 101.912 155.517C85.7377 164.856 59.4999 164.856 43.3257 155.517C36.714 151.689 32.8027 146.901 31.6057 141.932C32.8027 136.977 36.714 132.189 43.3257 128.362Z" fill="var(--fill-0, black)"/>
<path id="Vector_53" d="M98.6967 145.815C98.6967 145.008 98.6967 141.723 98.6967 140.874C98.6967 138.842 97.3048 136.88 94.2704 135.112L94.173 135.042C88.6053 131.841 82.8566 132.259 77.7343 133.539C75.5629 134.082 73.5585 134.792 71.6099 135.446C69.4561 136.249 67.2579 136.928 65.0261 137.478C64.001 137.723 62.9473 137.826 61.8942 137.784C60.9926 137.732 60.1113 137.496 59.3052 137.088L59.514 136.949L60.1682 136.546C60.7264 136.225 61.3027 135.937 61.8942 135.683C63.3412 135.045 64.8997 134.698 66.4807 134.662C68.0618 134.626 69.6344 134.902 71.1088 135.474L76.4259 130.115V125.202C71.7379 123.609 66.6857 123.425 61.8942 124.673C60.3178 125.082 58.777 125.617 57.2869 126.274L51.9698 123.212L45.6365 126.872V131.786L47.8079 133.038C47.2217 133.881 46.8973 134.879 46.8753 135.905V140.888C46.8753 142.906 48.2672 144.869 51.3991 146.637C54.0605 148.184 57.0634 149.05 60.1404 149.156C60.7111 149.156 61.3096 149.156 61.8803 149.156C65.0965 148.923 68.2639 148.238 71.2897 147.124L73.1132 146.497L67.7682 151.856V156.769C71.0648 158.018 74.5807 158.584 78.1027 158.434C81.6248 158.283 85.0794 157.418 88.2573 155.892L93.5049 158.913L99.8381 155.252V150.339L97.6667 149.086C98.3341 148.126 98.6933 146.985 98.6967 145.815ZM85.3343 145.398C84.8615 145.671 84.3735 145.918 83.8727 146.136C80.5708 147.548 76.8451 147.603 73.5029 146.289C78.4582 144.535 82.6061 143.004 86.1416 144.897C85.891 145.064 85.6266 145.231 85.3343 145.398Z" fill="var(--fill-0, #167287)"/>
<path id="Vector_54" d="M77.7481 133.539C75.5767 134.082 73.5723 134.792 71.6237 135.446C69.4699 136.249 67.2716 136.928 65.0398 137.478C64.0148 137.723 62.961 137.826 61.908 137.784C60.8482 137.726 59.8175 137.416 58.9014 136.88C56.8553 135.697 56.563 133.985 59.5278 132.036L60.182 131.632C60.7372 131.306 61.3138 131.018 61.908 130.77C63.3549 130.131 64.9134 129.784 66.4945 129.749C68.0755 129.713 69.6482 129.989 71.1225 130.561L76.4397 125.202C71.7517 123.609 66.6994 123.425 61.908 124.673C60.3316 125.082 58.7908 125.617 57.3007 126.274L51.9835 123.212L45.6503 126.872L50.8978 129.907C45.5807 133.957 45.4693 138.16 51.4685 141.626C54.1299 143.174 57.1329 144.039 60.2098 144.145C60.7805 144.145 61.379 144.145 61.9497 144.145C65.1659 143.912 68.3334 143.228 71.3592 142.113C77.4419 140.081 82.3693 137.687 86.4616 140.053C89.2455 141.64 88.452 143.63 85.4315 145.37C84.9588 145.643 84.4708 145.89 83.97 146.108C82.3022 146.821 80.5088 147.195 78.6947 147.207C76.8807 147.219 75.0824 146.869 73.4053 146.177L67.8376 151.745C71.1351 152.991 74.6516 153.555 78.1736 153.402C81.6957 153.249 85.1499 152.382 88.3268 150.854L93.5743 153.888L99.9076 150.228L94.66 147.207C99.9354 143.115 100.534 138.675 94.3817 135.07L94.2842 135.001C88.6191 131.841 82.8704 132.259 77.7481 133.539Z" fill="var(--fill-0, #167287)"/>
<g id="Group_2" opacity="0.2">
<path id="Vector_55" d="M77.7481 133.539C75.5767 134.082 73.5723 134.792 71.6237 135.446C69.4699 136.249 67.2716 136.928 65.0398 137.478C64.0148 137.723 62.961 137.826 61.908 137.784C60.8482 137.726 59.8175 137.416 58.9014 136.88C56.8553 135.697 56.563 133.985 59.5278 132.036L60.182 131.632C60.7372 131.306 61.3138 131.018 61.908 130.77C63.3549 130.131 64.9134 129.784 66.4945 129.749C68.0755 129.713 69.6482 129.989 71.1225 130.561L76.4397 125.202C71.7517 123.609 66.6994 123.425 61.908 124.673C60.3316 125.082 58.7908 125.617 57.3007 126.274L51.9835 123.212L45.6503 126.872L50.8978 129.907C45.5807 133.957 45.4693 138.16 51.4685 141.626C54.1299 143.174 57.1329 144.039 60.2098 144.145C60.7805 144.145 61.379 144.145 61.9497 144.145C65.1659 143.912 68.3334 143.228 71.3592 142.113C77.4419 140.081 82.3693 137.687 86.4616 140.053C89.2455 141.64 88.452 143.63 85.4315 145.37C84.9588 145.643 84.4708 145.89 83.97 146.108C82.3022 146.821 80.5088 147.195 78.6947 147.207C76.8807 147.219 75.0824 146.869 73.4053 146.177L67.8376 151.745C71.1351 152.991 74.6516 153.555 78.1736 153.402C81.6957 153.249 85.1499 152.382 88.3268 150.854L93.5743 153.888L99.9076 150.228L94.66 147.207C99.9354 143.115 100.534 138.675 94.3817 135.07L94.2842 135.001C88.6191 131.841 82.8704 132.259 77.7481 133.539Z" fill="var(--fill-0, white)"/>
</g>
<path id="Vector_56" opacity="0.45" d="M45.5947 126.886L51.9972 123.977L57.2444 126.288L51.9276 123.226L45.5947 126.886Z" fill="var(--fill-0, #F5F5F5)"/>
<path id="Vector_57" opacity="0.45" d="M61.1281 124.896C65.6398 123.992 70.2998 124.149 74.7404 125.355L71.052 130.575L76.3688 125.216C71.4417 123.549 66.1209 123.437 61.1281 124.896Z" fill="var(--fill-0, #F5F5F5)"/>
<path id="Vector_58" opacity="0.45" d="M94.1866 135.042L94.2841 135.112C100.436 138.717 99.8518 143.157 94.5625 147.249C99.2394 142.155 98.3903 138.606 93.3236 135.669C88.257 132.732 81.7706 132.788 77.748 133.539C82.8703 132.259 88.6189 131.841 94.1866 135.042Z" fill="var(--fill-0, #F5F5F5)"/>
<path id="Vector_59" opacity="0.45" d="M94.5627 147.235L98.5851 150.339L93.477 153.93L99.8099 150.269L94.5627 147.235Z" fill="var(--fill-0, #F5F5F5)"/>
<path id="Vector_60" opacity="0.45" d="M83.8719 146.135C80.7407 147.713 77.1231 148.027 73.7671 147.012L67.7403 151.786L73.3077 146.219C74.9857 146.908 76.7843 147.256 78.5982 147.242C80.4122 147.227 82.205 146.851 83.8719 146.135Z" fill="var(--fill-0, #F5F5F5)"/>
<path id="Vector_61" opacity="0.45" d="M64.9838 137.492C62.5898 138.439 59.138 138.285 57.3982 136.782C55.6584 135.279 56.744 133.511 59.4721 132.05C56.5074 133.999 56.7997 135.711 58.8457 136.894C59.7618 137.43 60.7924 137.74 61.8521 137.798C62.9051 137.84 63.9588 137.737 64.9838 137.492Z" fill="var(--fill-0, #F5F5F5)"/>
<path id="Vector_62" opacity="0.45" d="M50.7861 129.948C50.3407 130.352 46.527 133.915 48.2112 137.464C50.0067 141.25 55.588 143.686 60.1115 144.173C57.0347 144.067 54.0319 143.202 51.3706 141.654C45.3579 138.202 45.4692 133.999 50.7861 129.948Z" fill="var(--fill-0, #F5F5F5)"/>
<path id="Vector_63" d="M136.209 116.211C133.216 111.158 128.233 106.468 121.26 102.39C96.8174 88.2763 57.2309 88.2763 32.7608 102.39C25.8012 106.412 20.8042 111.158 17.8115 116.211H14.4292V128.988C14.8885 137.882 20.9712 146.692 32.7191 153.47C57.1613 167.584 96.7478 167.584 121.218 153.47C132.966 146.692 139.09 137.882 139.55 128.988V116.211H136.209Z" fill="var(--fill-0, #167287)"/>
<path id="Vector_64" opacity="0.3" d="M136.209 116.211C133.216 111.158 128.233 106.468 121.26 102.39C96.8174 88.2763 57.2309 88.2763 32.7608 102.39C25.8012 106.412 20.8042 111.158 17.8115 116.211H14.4292V128.988C14.8885 137.882 20.9712 146.692 32.7191 153.47C57.1613 167.584 96.7478 167.584 121.218 153.47C132.966 146.692 139.09 137.882 139.55 128.988V116.211H136.209Z" fill="var(--fill-0, black)"/>
<path id="Vector_65" opacity="0.1" d="M77.0102 91.7977C61.003 91.7977 44.9959 95.333 32.7608 102.39C25.8012 106.412 20.8042 111.158 17.8115 116.211H14.4292V128.988C14.8885 137.882 20.9712 146.692 32.7191 153.471C44.9402 160.527 60.9613 164.063 76.9685 164.049L77.0102 91.7977Z" fill="var(--fill-0, black)"/>
<path id="Vector_66" opacity="0.1" d="M42.8384 97.7409C39.3552 99.0341 35.9846 100.612 32.7608 102.459C25.8012 106.482 20.8042 111.228 17.8115 116.28H14.4292V129.058C14.8885 137.951 20.9712 146.762 32.7191 153.54C35.9429 155.387 39.3135 156.965 42.7967 158.259L42.8384 97.7409Z" fill="var(--fill-0, black)"/>
<path id="Vector_67" opacity="0.5" d="M111.182 97.7409C114.665 99.0341 118.036 100.612 121.26 102.459C128.219 106.482 133.216 111.228 136.209 116.28H139.591V129.058C139.132 137.951 133.007 146.762 121.26 153.54C118.036 155.387 114.665 156.965 111.182 158.259V97.7409Z" fill="var(--fill-0, #167287)"/>
<path id="Vector_68" d="M32.7608 90.6703C8.3186 104.77 8.3186 127.652 32.7608 141.751C54.1408 154.097 87.1435 155.67 111.433 146.386L112.393 146.01C115.443 144.807 118.402 143.384 121.246 141.751C141.623 129.99 145.006 112.133 131.393 98.3394C128.37 95.3394 124.957 92.7599 121.246 90.6703C96.8174 76.557 57.2031 76.557 32.7608 90.6703Z" fill="var(--fill-0, #167287)"/>
<path id="Vector_69" opacity="0.2" d="M32.7608 90.6703C8.3186 104.77 8.3186 127.652 32.7608 141.751C54.1408 154.097 87.1435 155.67 111.433 146.386L112.393 146.01C115.443 144.807 118.402 143.384 121.246 141.751C141.623 129.99 145.006 112.133 131.393 98.3394C128.37 95.3394 124.957 92.7599 121.246 90.6703C96.8174 76.557 57.2031 76.557 32.7608 90.6703Z" fill="var(--fill-0, black)"/>
<path id="Vector_70" opacity="0.5" d="M131.407 98.3394C131.671 98.6317 140.218 107.651 137.949 120.609C135.791 133.024 118.462 143.463 112.407 145.982C115.457 144.78 118.416 143.356 121.259 141.723C141.637 129.99 145.02 112.133 131.407 98.3394Z" fill="var(--fill-0, #F5F5F5)"/>
<path id="Vector_71" opacity="0.5" d="M22.6142 134.082C22.3497 133.79 13.8033 124.771 16.0721 111.813C18.2296 99.3973 35.5591 88.9445 41.614 86.4252C38.5636 87.6281 35.6049 89.0515 32.7613 90.6843C12.3835 102.431 9.00113 120.289 22.6142 134.082Z" fill="var(--fill-0, #F5F5F5)"/>
<path id="Vector_72" d="M77.0242 149.754C109.15 149.754 135.193 134.718 135.193 116.169C135.193 97.6204 109.15 82.5838 77.0242 82.5838C44.8985 82.5838 18.8555 97.6204 18.8555 116.169C18.8555 134.718 44.8985 149.754 77.0242 149.754Z" fill="var(--fill-0, #167287)"/>
<path id="Vector_73" opacity="0.1" d="M77.0242 149.754C109.15 149.754 135.193 134.718 135.193 116.169C135.193 97.6204 109.15 82.5838 77.0242 82.5838C44.8985 82.5838 18.8555 97.6204 18.8555 116.169C18.8555 134.718 44.8985 149.754 77.0242 149.754Z" fill="var(--fill-0, white)"/>
<path id="Vector_74" opacity="0.2" d="M132.562 126.19C137.239 117.547 135.708 108.027 127.997 99.9401C126.475 98.3691 124.827 96.9261 123.069 95.6254C121.555 94.5048 119.979 93.4686 118.351 92.5215C117.432 91.9787 116.471 91.4637 115.497 90.9766C117.905 94.9434 117.028 99.2163 103.318 100.01C76.5092 101.582 110.486 127.192 110.486 127.192C110.486 127.192 127.774 118.855 132.562 126.19Z" fill="var(--fill-0, white)"/>
<path id="Vector_75" opacity="0.3" d="M129.792 119.106C133.814 118.66 135.804 114.513 134.246 109.864C132.687 105.215 128.149 101.805 124.127 102.25C120.104 102.696 118.114 106.844 119.673 111.492C121.232 116.141 125.769 119.551 129.792 119.106Z" fill="var(--fill-0, white)"/>
<path id="Vector_76" d="M87.3804 140.457C86.072 130.505 42.5464 102.877 42.5464 102.877C42.5464 102.877 32.9004 99.0075 36.1018 92.2709C34.4929 93.1857 32.9361 94.1894 31.4388 95.2773C30.4741 95.9773 29.5449 96.7252 28.655 97.5182C15.6961 108.736 15.6822 123.462 28.655 134.694C29.518 135.46 30.4645 136.212 31.4388 136.935C32.8298 137.935 34.27 138.864 35.7538 139.719C37.2293 140.582 38.7743 141.389 40.375 142.141C41.6416 142.739 42.9501 143.296 44.2863 143.825C45.6226 144.354 46.9867 144.841 48.3647 145.3C52.6069 146.672 56.9487 147.714 61.3513 148.418L64.2744 148.836C68.5811 149.389 72.919 149.663 77.2611 149.657C82.5816 149.649 87.8929 149.212 93.143 148.348C93.143 148.348 86.1416 146.998 87.3804 140.457Z" fill="var(--fill-0, #167287)"/>
<path id="Vector_77" opacity="0.2" d="M86.7678 140.457C85.3759 130.505 41.9199 102.877 41.9199 102.877C41.9199 102.877 32.2739 99.0075 35.4753 92.2709C33.8708 93.1856 32.3187 94.1893 30.8263 95.2773C29.859 95.9741 28.9297 96.7221 28.0424 97.5182C15.0836 108.736 15.0696 123.462 28.0424 134.694C28.9193 135.46 29.8658 136.212 30.8263 136.935C32.2172 137.935 33.6574 138.864 35.1412 139.719C36.6167 140.582 38.1617 141.389 39.7485 142.141C41.0152 142.739 42.3375 143.296 43.6737 143.825C45.01 144.354 46.3602 144.841 47.7521 145.3C51.9935 146.675 56.3355 147.718 60.7388 148.418C61.6992 148.571 62.6875 148.71 63.6618 148.836C67.9638 149.389 72.2972 149.663 76.6346 149.657C81.9552 149.65 87.2666 149.213 92.5165 148.348C92.5165 148.348 85.5151 146.998 86.7678 140.457Z" fill="var(--fill-0, white)"/>
<path id="Vector_78" d="M46.3744 98.4648C30.1306 107.846 29.4764 122.794 44.3839 132.621C45.0242 133.038 45.6784 133.456 46.3744 133.846C63.3002 143.589 90.7351 143.589 107.619 133.846C124.503 124.103 124.545 108.236 107.619 98.4648C106.923 98.075 106.227 97.6854 105.49 97.3235C88.508 88.7079 62.6042 89.0976 46.3744 98.4648Z" fill="var(--fill-0, #167287)"/>
<path id="Vector_79" opacity="0.2" d="M46.3744 98.4648C30.1306 107.846 29.4764 122.794 44.3839 132.621C45.0242 133.038 45.6784 133.456 46.3744 133.846C63.3002 143.589 90.7351 143.589 107.619 133.846C124.503 124.103 124.545 108.236 107.619 98.4648C106.923 98.075 106.227 97.6854 105.49 97.3235C88.508 88.7079 62.6042 89.0976 46.3744 98.4648Z" fill="var(--fill-0, black)"/>
<path id="Vector_80" d="M77.0378 140.067C99.9155 140.067 118.462 129.361 118.462 116.155C118.462 102.949 99.9155 92.2431 77.0378 92.2431C54.1601 92.2431 35.6141 102.949 35.6141 116.155C35.6141 129.361 54.1601 140.067 77.0378 140.067Z" fill="var(--fill-0, #167287)"/>
<path id="Vector_81" opacity="0.5" d="M77.0378 140.067C99.9155 140.067 118.462 129.361 118.462 116.155C118.462 102.949 99.9155 92.2431 77.0378 92.2431C54.1601 92.2431 35.6141 102.949 35.6141 116.155C35.6141 129.361 54.1601 140.067 77.0378 140.067Z" fill="var(--fill-0, black)"/>
<path id="Vector_82" d="M47.7378 105.925C63.9259 96.5857 90.1498 96.5857 106.324 105.925C112.936 109.739 116.847 114.527 118.058 119.496C116.847 124.464 112.936 129.239 106.324 133.066C90.1498 142.405 63.9259 142.405 47.7378 133.066C41.1261 129.252 37.2148 124.464 36.0177 119.496C37.2148 114.527 41.1261 109.739 47.7378 105.925Z" fill="var(--fill-0, #167287)"/>
<path id="Vector_83" opacity="0.35" d="M47.7378 105.925C63.9259 96.5857 90.1498 96.5857 106.324 105.925C112.936 109.739 116.847 114.527 118.058 119.496C116.847 124.464 112.936 129.239 106.324 133.066C90.1498 142.405 63.9259 142.405 47.7378 133.066C41.1261 129.252 37.2148 124.464 36.0177 119.496C37.2148 114.527 41.1261 109.739 47.7378 105.925Z" fill="var(--fill-0, black)"/>
<path id="Vector_84" d="M103.067 123.365C103.067 122.558 103.067 119.273 103.067 118.424C103.067 116.392 101.675 114.429 98.6408 112.662L98.5433 112.592C92.9756 109.377 87.227 109.808 82.1047 111.089C79.9333 111.632 77.8593 112.342 75.9802 112.982C73.8243 113.782 71.6264 114.465 69.3964 115.028C68.3766 115.275 67.3264 115.373 66.2785 115.32C65.3731 115.275 64.4869 115.043 63.6756 114.638L63.8844 114.499L64.5386 114.095C65.0985 113.769 65.6798 113.481 66.2785 113.232C67.7231 112.594 69.2793 112.248 70.858 112.212C72.4368 112.176 74.0071 112.452 75.4791 113.024L80.7963 107.665V102.752C76.113 101.159 71.0653 100.975 66.2785 102.223C64.6969 102.629 63.1513 103.164 61.6573 103.823L56.3401 100.761L50.0068 104.408V109.335L52.1783 110.588C51.5921 111.431 51.2677 112.428 51.2456 113.455C51.2456 114.262 51.2456 117.533 51.2456 118.354C51.2456 120.386 52.7072 122.349 55.7694 124.117C58.4308 125.664 61.4338 126.53 64.5107 126.636C65.0814 126.636 65.6799 126.636 66.2645 126.636C69.4762 126.402 72.6391 125.718 75.6601 124.604L77.4835 123.977L72.1385 129.336V134.249C75.4367 135.493 78.9527 136.055 82.4743 135.902C85.9958 135.749 89.4498 134.883 92.6277 133.358L97.8752 136.393L104.208 132.732V127.819L102.037 126.566C102.69 125.624 103.048 124.51 103.067 123.365ZM89.6907 122.947C89.2178 123.216 88.7298 123.458 88.2292 123.671C84.9288 125.091 81.2002 125.146 77.8593 123.824C82.8285 122.084 86.9625 120.553 90.498 122.432L89.6907 122.947Z" fill="var(--fill-0, #167287)"/>
<path id="Vector_85" d="M82.1883 111.089C80.0168 111.632 77.9429 112.342 76.0638 112.982C73.9078 113.782 71.71 114.465 69.4799 115.028C68.4601 115.275 67.41 115.373 66.362 115.32C65.2978 115.273 64.261 114.967 63.3415 114.429C61.2954 113.246 61.0031 111.52 63.9679 109.586C64.1789 109.44 64.3973 109.305 64.6221 109.182C65.1821 108.856 65.7633 108.567 66.362 108.319C67.8056 107.678 69.3621 107.329 70.9415 107.293C72.5208 107.257 74.0915 107.535 75.5627 108.11L80.8798 102.752C76.1966 101.159 71.1488 100.975 66.362 102.223C64.7804 102.629 63.2348 103.164 61.7408 103.823L56.4237 100.761L50.0904 104.408L55.338 107.442C50.0069 111.492 49.8955 115.696 55.8947 119.148C58.5508 120.708 61.557 121.574 64.6361 121.667C65.2068 121.667 65.8053 121.667 66.3899 121.667C69.6006 121.427 72.7626 120.744 75.7854 119.635C81.8681 117.603 86.7955 115.209 90.8878 117.575C93.6717 119.148 92.8783 121.152 89.8578 122.892C89.3849 123.161 88.8969 123.402 88.3962 123.615C86.7291 124.33 84.9362 124.706 83.1223 124.72C81.3084 124.735 79.5098 124.387 77.8315 123.699L72.2638 129.266C75.562 130.51 79.0781 131.072 82.5996 130.919C86.1212 130.766 89.5751 129.901 92.753 128.376L98.0005 131.41L104.334 127.749L99.0863 124.715C104.362 120.637 104.974 116.197 98.8079 112.592L98.7104 112.522C93.0314 109.377 87.2827 109.808 82.1883 111.089Z" fill="var(--fill-0, #167287)"/>
<g id="Group_3" opacity="0.2">
<path id="Vector_86" d="M82.1883 111.089C80.0168 111.632 77.9429 112.342 76.0638 112.982C73.9078 113.782 71.71 114.465 69.4799 115.028C68.4601 115.275 67.41 115.373 66.362 115.32C65.2978 115.273 64.261 114.967 63.3415 114.429C61.2954 113.246 61.0031 111.52 63.9679 109.586C64.1789 109.44 64.3973 109.305 64.6221 109.182C65.1821 108.856 65.7633 108.567 66.362 108.319C67.8056 107.678 69.3621 107.329 70.9415 107.293C72.5208 107.257 74.0915 107.535 75.5627 108.11L80.8798 102.752C76.1966 101.159 71.1488 100.975 66.362 102.223C64.7804 102.629 63.2348 103.164 61.7408 103.823L56.4237 100.761L50.0904 104.408L55.338 107.442C50.0069 111.492 49.8955 115.696 55.8947 119.148C58.5508 120.708 61.557 121.574 64.6361 121.667C65.2068 121.667 65.8053 121.667 66.3899 121.667C69.6006 121.427 72.7626 120.744 75.7854 119.635C81.8681 117.603 86.7955 115.209 90.8878 117.575C93.6717 119.148 92.8783 121.152 89.8578 122.892C89.3849 123.161 88.8969 123.402 88.3962 123.615C86.7291 124.33 84.9362 124.706 83.1223 124.72C81.3084 124.735 79.5098 124.387 77.8315 123.699L72.2638 129.266C75.562 130.51 79.0781 131.072 82.5996 130.919C86.1212 130.766 89.5751 129.901 92.753 128.376L98.0005 131.41L104.334 127.749L99.0863 124.715C104.362 120.637 104.974 116.197 98.8079 112.592L98.7104 112.522C93.0314 109.377 87.2827 109.808 82.1883 111.089Z" fill="var(--fill-0, white)"/>
</g>
<path id="Vector_87" opacity="0.45" d="M50.0068 104.436L56.4094 101.527L61.6566 103.837L56.3397 100.775L50.0068 104.436Z" fill="var(--fill-0, #F5F5F5)"/>
<path id="Vector_88" opacity="0.45" d="M65.4851 102.445C70.0003 101.527 74.6681 101.685 79.1113 102.905L75.4229 108.124L80.7397 102.766C75.8107 101.082 70.4804 100.97 65.4851 102.445Z" fill="var(--fill-0, #F5F5F5)"/>
<path id="Vector_89" opacity="0.45" d="M98.5992 112.592L98.6966 112.662C104.863 116.266 104.264 120.706 98.975 124.785C103.652 119.704 102.803 116.155 97.7362 113.218C92.6696 110.281 86.1832 110.323 82.1606 111.089C87.2829 109.808 93.0315 109.377 98.5992 112.592Z" fill="var(--fill-0, #F5F5F5)"/>
<path id="Vector_90" opacity="0.45" d="M98.9748 124.785L102.997 127.875L97.8891 131.479L104.222 127.819L98.9748 124.785Z" fill="var(--fill-0, #F5F5F5)"/>
<path id="Vector_91" opacity="0.45" d="M88.284 123.671C85.1555 125.256 81.5367 125.575 78.1791 124.562L72.1524 129.336L77.7198 123.769C79.3989 124.455 81.1979 124.8 83.0117 124.783C84.8255 124.766 86.6178 124.388 88.284 123.671Z" fill="var(--fill-0, #F5F5F5)"/>
<path id="Vector_92" opacity="0.45" d="M69.396 115.042C67.002 115.988 63.5502 115.821 61.8104 114.318C60.0706 112.815 61.1562 111.061 63.8843 109.6C60.9196 111.534 61.2119 113.26 63.2579 114.443C64.1774 114.981 65.2141 115.287 66.2782 115.334C67.3261 115.387 68.3762 115.289 69.396 115.042Z" fill="var(--fill-0, #F5F5F5)"/>
<path id="Vector_93" opacity="0.45" d="M55.2125 107.484C54.7532 107.887 50.9395 111.437 52.6236 115C54.4191 118.786 60.0143 121.221 64.5239 121.709C61.445 121.616 58.439 120.75 55.7831 119.189C49.7703 115.751 49.8817 111.548 55.2125 107.484Z" fill="var(--fill-0, #F5F5F5)"/>
<path id="Vector_94" d="M121.775 101.457C118.782 96.4048 113.799 91.7142 106.825 87.6361C82.383 73.5228 42.7966 73.5228 18.3265 87.6361C11.3669 91.6586 6.36988 96.4048 3.37724 101.457H0.0644463V114.248C0.509863 123.128 6.59259 131.939 18.3405 138.731C42.7827 152.83 82.3691 152.83 106.839 138.731C118.587 131.939 124.712 123.128 125.171 114.248V101.457H121.775Z" fill="var(--fill-0, #167287)"/>
<path id="Vector_95" opacity="0.3" d="M121.775 101.457C118.782 96.4048 113.799 91.7142 106.825 87.6361C82.383 73.5228 42.7966 73.5228 18.3265 87.6361C11.3669 91.6586 6.36988 96.4048 3.37724 101.457H0.0644463V114.248C0.509863 123.128 6.59259 131.939 18.3405 138.731C42.7827 152.83 82.3691 152.83 106.839 138.731C118.587 131.939 124.712 123.128 125.171 114.248V101.457H121.775Z" fill="var(--fill-0, black)"/>
<path id="Vector_96" opacity="0.1" d="M62.5759 77.0581C46.5687 77.0581 30.5616 80.5795 18.3265 87.6361C11.3669 91.6586 6.36988 96.4048 3.37724 101.457H0.0644463V114.248C0.509863 123.128 6.59259 131.939 18.3405 138.731C30.5616 145.788 46.5827 149.309 62.5898 149.309L62.5759 77.0581Z" fill="var(--fill-0, black)"/>
<path id="Vector_97" opacity="0.1" d="M28.4041 82.9178C24.9233 84.2168 21.5532 85.7947 18.3265 87.6362C11.3669 91.6586 6.36988 96.4048 3.37724 101.457H0.0644463V114.248C0.509863 123.128 6.59259 131.939 18.3405 138.731C21.5701 140.567 24.9397 142.145 28.418 143.449L28.4041 82.9178Z" fill="var(--fill-0, black)"/>
<path id="Vector_98" opacity="0.5" d="M96.7479 82.9178C100.229 84.2168 103.599 85.7947 106.826 87.6362C113.785 91.6586 118.782 96.4048 121.775 101.457H125.157V114.248C124.698 123.128 118.573 131.939 106.826 138.731C103.596 140.567 100.226 142.145 96.7479 143.449V82.9178Z" fill="var(--fill-0, #167287)"/>
<path id="Vector_99" d="M18.3265 75.9168C-6.11578 90.0301 -6.10186 112.898 18.3265 127.012C39.7065 139.357 72.7091 140.93 97.0121 131.646C97.3369 131.535 97.6571 131.41 97.9726 131.271C101.027 130.06 103.986 128.623 106.825 126.97C127.203 115.209 130.585 97.3373 116.972 83.558C113.946 80.5622 110.533 77.9831 106.825 75.8889C82.383 61.8173 42.7687 61.8034 18.3265 75.9168Z" fill="var(--fill-0, #167287)"/>
<path id="Vector_100" opacity="0.2" d="M18.3265 75.9168C-6.11578 90.0301 -6.10186 112.898 18.3265 127.012C39.7065 139.357 72.7091 140.93 97.0121 131.646C97.3369 131.535 97.6571 131.41 97.9726 131.271C101.027 130.06 103.986 128.623 106.825 126.97C127.203 115.209 130.585 97.3373 116.972 83.558C113.946 80.5622 110.533 77.9831 106.825 75.8889C82.383 61.8173 42.7687 61.8034 18.3265 75.9168Z" fill="var(--fill-0, black)"/>
<path id="Vector_101" opacity="0.5" d="M116.986 83.5997C117.251 83.892 125.797 92.9112 123.542 105.869C121.371 118.285 103.986 128.737 97.9865 131.243C101.035 130.041 103.99 128.612 106.825 126.97C127.203 115.25 130.585 97.379 116.986 83.5997Z" fill="var(--fill-0, #F5F5F5)"/>
<path id="Vector_102" opacity="0.5" d="M8.17915 119.329C7.91469 119.036 -0.631722 110.017 1.63712 97.059C3.79461 84.6437 21.1241 74.1909 27.179 71.6856C24.1289 72.8838 21.1702 74.3026 18.3263 75.9307C-2.0515 87.6918 -5.4339 105.549 8.17915 119.329Z" fill="var(--fill-0, #F5F5F5)"/>
<path id="Vector_103" d="M62.6039 135.001C94.7296 135.001 120.773 119.964 120.773 101.415C120.773 82.8668 94.7296 67.8302 62.6039 67.8302C30.4783 67.8302 4.43531 82.8668 4.43531 101.415C4.43531 119.964 30.4783 135.001 62.6039 135.001Z" fill="var(--fill-0, #167287)"/>
<path id="Vector_104" opacity="0.1" d="M62.6039 135.001C94.7296 135.001 120.773 119.964 120.773 101.415C120.773 82.8668 94.7296 67.8302 62.6039 67.8302C30.4783 67.8302 4.43531 82.8668 4.43531 101.415C4.43531 119.964 30.4783 135.001 62.6039 135.001Z" fill="var(--fill-0, white)"/>
<path id="Vector_105" opacity="0.2" d="M118.128 111.451C122.805 102.807 121.274 93.2731 113.563 85.2004C112.045 83.6256 110.396 82.1823 108.635 80.8857C107.126 79.7636 105.556 78.7273 103.93 77.7818C102.998 77.239 102.037 76.7101 101.063 76.223C103.471 80.2036 102.594 84.4627 88.8837 85.256C62.0752 86.8288 96.0521 112.453 96.0521 112.453C96.0521 112.453 113.34 104.102 118.128 111.451Z" fill="var(--fill-0, white)"/>
<path id="Vector_106" opacity="0.3" d="M115.357 104.352C119.38 103.907 121.384 99.7731 119.811 95.1104C118.238 90.4477 113.715 87.0516 109.692 87.5109C105.67 87.9702 103.68 92.0901 105.238 96.7528C106.797 101.415 111.335 104.812 115.357 104.352Z" fill="var(--fill-0, white)"/>
<path id="Vector_107" d="M72.9598 125.703C71.6375 115.751 28.1119 88.1929 28.1119 88.1929C28.1119 88.1929 18.4659 84.3236 21.6673 77.5731C20.0603 78.4911 18.5038 79.4947 17.0044 80.5795C16.0022 81.3032 15.0696 82.0548 14.2205 82.8203C1.26168 94.0386 1.24776 108.778 14.2205 120.011C15.0974 120.776 16.0439 121.514 17.0044 122.251C18.3954 123.251 19.8355 124.18 21.3193 125.035C22.8087 125.898 24.3398 126.691 25.9405 127.443C27.2072 128.042 28.5295 128.612 29.8518 129.127C31.1742 129.642 32.5522 130.157 33.9441 130.602C38.1793 131.982 42.5171 133.025 46.9169 133.72C47.8912 133.873 48.8656 134.026 49.8399 134.152C54.1469 134.7 58.4848 134.97 62.8266 134.959C68.1468 134.957 73.4581 134.524 78.7085 133.665C78.7085 133.665 71.7071 132.259 72.9598 125.703Z" fill="var(--fill-0, #167287)"/>
<path id="Vector_108" opacity="0.2" d="M72.3338 125.703C71.0115 115.751 27.4859 88.1929 27.4859 88.1929C27.4859 88.1929 17.8398 84.3236 21.0413 77.5731C19.4368 78.4878 17.8847 79.4915 16.3922 80.5795C15.39 81.3032 14.4435 82.0548 13.6084 82.8203C0.64952 94.0386 0.635601 108.778 13.6084 120.011C14.4853 120.776 15.4318 121.514 16.3922 122.251C17.7832 123.251 19.2233 124.18 20.7072 125.035C22.1826 125.898 23.7277 126.691 25.3145 127.443C26.5811 128.042 27.9034 128.612 29.2397 129.127C30.5759 129.642 31.9261 130.157 33.3181 130.602C37.558 131.982 41.9004 133.025 46.3047 133.72C47.2652 133.873 48.2534 134.026 49.2278 134.152C53.5301 134.7 57.8634 134.97 62.2006 134.959C67.5208 134.957 72.8321 134.524 78.0824 133.665C78.0824 133.665 71.0532 132.259 72.3338 125.703Z" fill="var(--fill-0, white)"/>
<path id="Vector_109" d="M31.9399 83.7251C15.6961 93.0922 15.0419 108.041 29.9494 117.881C30.5897 118.299 31.2579 118.702 31.9399 119.106C48.8657 128.849 76.3006 128.849 93.1847 119.106C110.069 109.363 110.111 93.4959 93.1847 83.7251C92.5027 83.3215 91.7928 82.9457 91.0551 82.5699C74.0735 73.9682 48.1698 74.344 31.9399 83.7251Z" fill="var(--fill-0, #167287)"/>
<path id="Vector_110" opacity="0.2" d="M31.9399 83.7251C15.6961 93.0922 15.0419 108.041 29.9494 117.881C30.5897 118.299 31.2579 118.702 31.9399 119.106C48.8657 128.849 76.3006 128.849 93.1847 119.106C110.069 109.363 110.111 93.4959 93.1847 83.7251C92.5027 83.3215 91.7928 82.9457 91.0551 82.5699C74.0735 73.9682 48.1698 74.344 31.9399 83.7251Z" fill="var(--fill-0, black)"/>
<path id="Vector_111" d="M62.6038 125.327C85.4815 125.327 104.028 114.622 104.028 101.416C104.028 88.2093 85.4815 77.5035 62.6038 77.5035C39.726 77.5035 21.18 88.2093 21.18 101.416C21.18 114.622 39.726 125.327 62.6038 125.327Z" fill="var(--fill-0, #167287)"/>
<path id="Vector_112" opacity="0.5" d="M62.6038 125.327C85.4815 125.327 104.028 114.622 104.028 101.416C104.028 88.2093 85.4815 77.5035 62.6038 77.5035C39.726 77.5035 21.18 88.2093 21.18 101.416C21.18 114.622 39.726 125.327 62.6038 125.327Z" fill="var(--fill-0, black)"/>
<path id="Vector_113" d="M33.3037 91.1714C49.4918 81.8321 75.7158 81.8321 91.8899 91.1714C98.5016 94.9851 102.413 99.787 103.624 104.742C102.413 109.711 98.5016 114.485 91.8899 118.326C75.7158 127.666 49.4918 127.666 33.3037 118.326C26.6921 114.499 22.7947 109.711 21.5837 104.742C22.7947 99.787 26.6921 94.9572 33.3037 91.1714Z" fill="var(--fill-0, #167287)"/>
<path id="Vector_114" opacity="0.35" d="M33.3037 91.1714C49.4918 81.8321 75.7158 81.8321 91.8899 91.1714C98.5016 94.9851 102.413 99.787 103.624 104.742C102.413 109.711 98.5016 114.485 91.8899 118.326C75.7158 127.666 49.4918 127.666 33.3037 118.326C26.6921 114.499 22.7947 109.711 21.5837 104.742C22.7947 99.787 26.6921 94.9572 33.3037 91.1714Z" fill="var(--fill-0, black)"/>
<path id="Vector_115" d="M88.6886 108.611C88.6886 107.804 88.6886 104.519 88.6886 103.67C88.6886 101.652 87.2966 99.6755 84.2622 97.9079H84.1648C78.5971 94.6927 72.8484 95.1242 67.7261 96.4047C65.5547 96.9615 63.4808 97.6574 61.6017 98.3115C59.4479 99.1148 57.2497 99.7932 55.0179 100.344C53.9958 100.577 52.9475 100.675 51.8999 100.636C50.9955 100.584 50.1106 100.352 49.297 99.9539L49.5058 99.8008L50.16 99.3972C50.7201 99.0751 51.3014 98.7915 51.8999 98.5481C53.3435 97.9066 54.9 97.5578 56.4793 97.522C58.0587 97.4862 59.6294 97.764 61.1006 98.3394L66.4178 92.9807V87.9979C61.7345 86.4049 56.6867 86.221 51.8999 87.469C50.3202 87.8815 48.7752 88.4167 47.2788 89.0696L41.9616 86.0076L35.6283 89.6682V94.5814L37.7997 95.8341C37.2135 96.6772 36.8892 97.6746 36.8671 98.7013C36.8671 99.5224 36.8671 102.793 36.8671 103.614C36.8671 105.647 38.259 107.595 41.377 109.363C44.033 110.923 47.0392 111.789 50.1183 111.882C50.7029 111.882 51.2875 111.882 51.8721 111.882C55.0822 111.647 58.2442 110.968 61.2676 109.864L63.091 109.224L57.746 114.582V119.509C61.0443 120.753 64.5603 121.315 68.0818 121.162C71.6034 121.009 75.0574 120.144 78.2352 118.619L83.4828 121.639L89.8161 117.978V113.051L87.6447 111.799C88.2995 110.862 88.6627 109.753 88.6886 108.611ZM75.3122 108.194C74.835 108.451 74.3422 108.679 73.8367 108.876C70.5347 110.288 66.8091 110.343 63.4668 109.029C68.436 107.275 72.5701 105.744 76.1056 107.637C75.8514 107.837 75.5865 108.023 75.3122 108.194Z" fill="var(--fill-0, #167287)"/>
<path id="Vector_116" d="M67.7261 96.349C65.5547 96.9058 63.4808 97.6017 61.6017 98.2559C59.4479 99.0591 57.2497 99.7376 55.0179 100.288C53.9958 100.521 52.9475 100.619 51.8999 100.58C50.8357 100.522 49.8006 100.212 48.8795 99.6756C46.8473 98.5064 46.541 96.7805 49.5058 94.8319L50.16 94.4283C50.7229 94.1073 51.3038 93.8192 51.8999 93.5653C53.3445 92.9275 54.9007 92.5808 56.4795 92.5449C58.0582 92.5091 59.6285 92.7849 61.1006 93.3566L66.4178 87.9979C61.7345 86.4049 56.6867 86.221 51.8999 87.469C50.3202 87.8815 48.7752 88.4167 47.2788 89.0696L41.9616 86.0076L35.6283 89.6682L40.8759 92.7024C35.5448 96.7388 35.4334 100.942 41.4326 104.408C44.094 105.956 47.097 106.821 50.174 106.927C50.7586 106.927 51.3432 106.927 51.9278 106.927C55.1395 106.694 58.3023 106.01 61.3233 104.895C67.406 102.863 72.3334 100.469 76.4257 102.835C79.2095 104.422 78.4162 106.412 75.3957 108.152C74.8925 108.427 74.3717 108.669 73.8367 108.876C72.165 109.581 70.3688 109.945 68.5543 109.945C66.7398 109.945 64.9437 109.581 63.272 108.876L57.7043 114.443C61.0016 115.689 64.5171 116.253 68.0386 116.103C71.5602 115.952 75.0147 115.089 78.1935 113.566L83.441 116.587L89.7743 112.926L84.5267 109.906C89.8021 105.828 90.4146 101.374 84.2484 97.7687H84.1509C78.5971 94.637 72.8484 95.0546 67.7261 96.349Z" fill="var(--fill-0, #167287)"/>
<g id="Group_4" opacity="0.2">
<path id="Vector_117" d="M67.7261 96.349C65.5547 96.9058 63.4808 97.6017 61.6017 98.2559C59.4479 99.0591 57.2497 99.7376 55.0179 100.288C53.9958 100.521 52.9475 100.619 51.8999 100.58C50.8357 100.522 49.8006 100.212 48.8795 99.6756C46.8473 98.5064 46.541 96.7805 49.5058 94.8319L50.16 94.4283C50.7229 94.1073 51.3038 93.8192 51.8999 93.5653C53.3445 92.9275 54.9007 92.5808 56.4795 92.5449C58.0582 92.5091 59.6285 92.7849 61.1006 93.3566L66.4178 87.9979C61.7345 86.4049 56.6867 86.221 51.8999 87.469C50.3202 87.8815 48.7752 88.4167 47.2788 89.0696L41.9616 86.0076L35.6283 89.6682L40.8759 92.7024C35.5448 96.7388 35.4334 100.942 41.4326 104.408C44.094 105.956 47.097 106.821 50.174 106.927C50.7586 106.927 51.3432 106.927 51.9278 106.927C55.1395 106.694 58.3023 106.01 61.3233 104.895C67.406 102.863 72.3334 100.469 76.4257 102.835C79.2095 104.422 78.4162 106.412 75.3957 108.152C74.8925 108.427 74.3717 108.669 73.8367 108.876C72.165 109.581 70.3688 109.945 68.5543 109.945C66.7398 109.945 64.9437 109.581 63.272 108.876L57.7043 114.443C61.0016 115.689 64.5171 116.253 68.0386 116.103C71.5602 115.952 75.0147 115.089 78.1935 113.566L83.441 116.587L89.7743 112.926L84.5267 109.906C89.8021 105.828 90.4146 101.374 84.2484 97.7687H84.1509C78.5971 94.637 72.8484 95.0546 67.7261 96.349Z" fill="var(--fill-0, white)"/>
</g>
<path id="Vector_118" opacity="0.45" d="M35.5727 89.6821L41.9752 86.787L47.2225 89.0836L41.9056 86.0215L35.5727 89.6821Z" fill="var(--fill-0, #F5F5F5)"/>
<path id="Vector_119" opacity="0.45" d="M51.1066 87.6918C55.623 86.7878 60.2876 86.945 64.7328 88.1511L61.0444 93.3705L66.3613 88.0258C61.4324 86.3448 56.1044 86.2281 51.1066 87.6918Z" fill="var(--fill-0, #F5F5F5)"/>
<path id="Vector_120" opacity="0.45" d="M84.1647 97.8522H84.2622C90.4284 101.457 89.8299 105.911 84.5406 109.989C89.2174 104.895 88.3683 101.346 83.3017 98.409C78.2351 95.4722 71.7487 95.5278 67.726 96.2934C72.8483 95.0546 78.597 94.637 84.1647 97.8522Z" fill="var(--fill-0, #F5F5F5)"/>
<path id="Vector_121" opacity="0.45" d="M84.5407 110.045L88.5631 113.135L83.4551 116.726L89.788 113.065L84.5407 110.045Z" fill="var(--fill-0, #F5F5F5)"/>
<path id="Vector_122" opacity="0.45" d="M73.8361 108.876C70.707 110.46 67.0866 110.774 63.7313 109.753L57.7046 114.527L63.272 108.959C64.9492 109.652 66.7481 110.001 68.5625 109.987C70.3769 109.972 72.1701 109.595 73.8361 108.876Z" fill="var(--fill-0, #F5F5F5)"/>
<path id="Vector_123" opacity="0.45" d="M54.9619 100.302C52.568 101.235 49.1161 101.081 47.3763 99.5782C45.6365 98.075 46.7222 96.3074 49.4502 94.8459C46.4856 96.7945 46.7918 98.5204 48.8239 99.6896C49.7449 100.226 50.78 100.536 51.8442 100.594C52.8918 100.633 53.9399 100.535 54.9619 100.302Z" fill="var(--fill-0, #F5F5F5)"/>
<path id="Vector_124" opacity="0.45" d="M40.7784 92.7582C40.333 93.148 36.5055 96.7111 38.1896 100.26C39.9851 104.06 45.5803 106.482 50.0899 106.983C47.0131 106.877 44.0103 106.011 41.3491 104.464C35.3363 100.998 35.4476 96.7946 40.7784 92.7582Z" fill="var(--fill-0, #F5F5F5)"/>
<path id="Vector_125" d="M135.081 81.2336C132.089 76.1812 127.12 71.4906 120.132 67.4125C95.7037 53.2992 56.1034 53.2992 31.6472 67.4125C24.6876 71.435 19.6906 76.1812 16.6979 81.2336H13.3155V94.0247C13.7609 102.905 19.8437 111.715 31.6055 118.507C56.0338 132.607 95.6341 132.607 120.09 118.507C131.852 111.715 137.977 102.905 138.422 94.0247V81.2336H135.081Z" fill="var(--fill-0, #167287)"/>
<path id="Vector_126" opacity="0.3" d="M135.081 81.2336C132.089 76.1812 127.12 71.4906 120.132 67.4125C95.7037 53.2992 56.1034 53.2992 31.6472 67.4125C24.6876 71.435 19.6906 76.1812 16.6979 81.2336H13.3155V94.0247C13.7609 102.905 19.8437 111.715 31.6055 118.507C56.0338 132.607 95.6341 132.607 120.09 118.507C131.852 111.715 137.977 102.905 138.422 94.0247V81.2336H135.081Z" fill="var(--fill-0, black)"/>
<path id="Vector_127" opacity="0.1" d="M75.9526 56.8345C59.9315 56.8345 43.9383 60.3559 31.7032 67.4126C24.7436 71.435 19.7466 76.1812 16.7539 81.2337H13.3715V94.0247C13.817 102.905 19.8997 111.715 31.6615 118.507C43.8687 125.564 59.8898 129.085 75.9108 129.085L75.9526 56.8345Z" fill="var(--fill-0, black)"/>
<path id="Vector_128" opacity="0.1" d="M41.8225 62.6941C38.3451 63.9905 34.9794 65.5685 31.7588 67.4125C24.7992 71.4349 19.8022 76.1811 16.8095 81.2336H13.4272V94.0246C13.8726 102.905 19.9553 111.715 31.7171 118.507C34.9404 120.346 38.3057 121.924 41.7807 123.226L41.8225 62.6941Z" fill="var(--fill-0, black)"/>
<path id="Vector_129" opacity="0.5" d="M110.124 62.6941C113.602 63.9905 116.967 65.5685 120.188 67.4125C127.148 71.4349 132.145 76.1811 135.137 81.2336H138.52V94.0246C138.074 102.905 131.95 111.715 120.188 118.507C116.965 120.346 113.599 121.924 110.124 123.226V62.6941Z" fill="var(--fill-0, #167287)"/>
<path id="Vector_130" d="M31.6893 55.6932C7.26098 69.8066 7.26098 92.6746 31.6893 106.788C53.0832 119.134 86.0858 120.706 110.375 111.423C110.695 111.298 111.029 111.186 111.349 111.047C114.394 109.846 117.347 108.427 120.188 106.802C140.566 95.0408 143.962 77.1694 130.349 63.3901C127.328 60.3878 123.915 57.808 120.202 55.721C95.7597 41.5938 56.1316 41.5799 31.6893 55.6932Z" fill="var(--fill-0, #167287)"/>
<path id="Vector_131" opacity="0.2" d="M31.6893 55.6932C7.26098 69.8066 7.26098 92.6746 31.6893 106.788C53.0832 119.134 86.0858 120.706 110.375 111.423C110.695 111.298 111.029 111.186 111.349 111.047C114.394 109.846 117.347 108.427 120.188 106.802C140.566 95.0408 143.962 77.1694 130.349 63.3901C127.328 60.3878 123.915 57.808 120.202 55.721C95.7597 41.5938 56.1316 41.5799 31.6893 55.6932Z" fill="var(--fill-0, black)"/>
<path id="Vector_132" opacity="0.5" d="M130.349 63.3762C130.613 63.6685 139.16 72.6877 136.891 85.6458C134.72 98.0611 117.335 108.514 111.349 111.019C114.394 109.818 117.347 108.399 120.188 106.774C140.566 95.0269 143.962 77.1555 130.349 63.3762Z" fill="var(--fill-0, #F5F5F5)"/>
<path id="Vector_133" opacity="0.5" d="M21.5419 99.1328C21.2774 98.8405 12.731 89.8213 14.9998 76.8632C17.1573 64.4479 34.4868 53.9951 40.5417 51.4898C37.4974 52.691 34.5435 54.1097 31.703 55.735C11.3112 67.4543 7.9288 85.3257 21.5419 99.1328Z" fill="var(--fill-0, #F5F5F5)"/>
<path id="Vector_134" d="M75.9666 114.777C108.092 114.777 134.135 99.7405 134.135 81.1918C134.135 62.6432 108.092 47.6065 75.9666 47.6065C43.8409 47.6065 17.7979 62.6432 17.7979 81.1918C17.7979 99.7405 43.8409 114.777 75.9666 114.777Z" fill="var(--fill-0, #167287)"/>
<path id="Vector_135" opacity="0.1" d="M75.9666 114.777C108.092 114.777 134.135 99.7405 134.135 81.1918C134.135 62.6432 108.092 47.6065 75.9666 47.6065C43.8409 47.6065 17.7979 62.6432 17.7979 81.1918C17.7979 99.7405 43.8409 114.777 75.9666 114.777Z" fill="var(--fill-0, white)"/>
<path id="Vector_136" opacity="0.2" d="M131.49 91.227C136.167 82.5837 134.65 73.0495 126.925 64.9768C125.41 63.3987 123.761 61.9551 121.997 60.662C120.493 59.5336 118.922 58.4971 117.293 57.5582C116.36 57.0154 115.413 56.4865 114.425 55.9994C116.847 59.98 115.956 64.2391 102.26 65.0324C75.4512 66.6052 109.414 92.2292 109.414 92.2292C109.414 92.2292 126.73 83.8224 131.49 91.227Z" fill="var(--fill-0, white)"/>
<path id="Vector_137" opacity="0.3" d="M128.734 84.1287C132.756 83.6833 134.746 79.5495 133.188 74.8868C131.629 70.2241 127.091 66.828 123.069 67.2873C119.046 67.7466 117.042 71.8665 118.615 76.5292C120.188 81.1919 124.711 84.588 128.734 84.1287Z" fill="var(--fill-0, white)"/>
<path id="Vector_138" d="M86.3642 105.48C84.9723 95.5279 41.5163 67.9693 41.5163 67.9693C41.5163 67.9693 31.8702 64.1 35.0716 57.3495C33.4672 58.2643 31.9151 59.268 30.4226 60.3559C29.4204 61.0797 28.4739 61.8313 27.6388 62.5968C14.6799 73.8151 14.666 88.5548 27.6388 99.787C28.5157 100.552 29.4622 101.29 30.4226 102.028C31.8136 103.027 33.2537 103.956 34.7376 104.812C36.213 105.674 37.7581 106.468 39.3449 107.219C40.6115 107.818 41.9339 108.389 43.2701 108.904C44.6064 109.419 45.9565 109.92 47.3485 110.379C51.5884 111.759 55.9308 112.801 60.3351 113.497C61.2956 113.65 62.2838 113.803 63.2582 113.928C72.8501 115.149 82.5676 114.985 92.1129 113.441C92.1129 113.441 85.0697 112.035 86.3642 105.48Z" fill="var(--fill-0, #167287)"/>
<path id="Vector_139" opacity="0.2" d="M85.696 105.48C84.3737 95.5279 40.8621 67.9693 40.8621 67.9693C40.8621 67.9693 31.2021 64.1 34.4174 57.3495C32.8085 58.2643 31.2518 59.268 29.7545 60.3559C28.7523 61.0797 27.8058 61.8313 26.9706 62.5968C14.0118 73.8151 13.9979 88.5548 26.9706 99.787C27.8336 100.553 28.7801 101.29 29.7545 102.028C31.1455 103.027 32.5856 103.956 34.0695 104.812C35.5449 105.674 37.09 106.468 38.6907 107.219C39.9573 107.818 41.2657 108.389 42.602 108.904C43.9382 109.419 45.3023 109.92 46.6803 110.379C50.9203 111.759 55.2627 112.801 59.667 113.497C60.6414 113.65 61.6157 113.803 62.5901 113.928C72.1866 115.149 81.9088 114.985 91.4586 113.441C91.4586 113.441 84.4572 112.035 85.696 105.48Z" fill="var(--fill-0, white)"/>
<path id="Vector_140" d="M45.3022 63.5015C29.0724 72.8687 28.4042 87.8171 43.3257 97.6575C43.952 98.0751 44.6202 98.4787 45.3022 98.8823C62.2281 108.625 89.663 108.625 106.547 98.8823C123.431 89.1394 123.473 73.2723 106.547 63.5015C105.865 63.0979 105.155 62.7221 104.431 62.3463C87.4359 53.7447 61.5321 54.1205 45.3022 63.5015Z" fill="var(--fill-0, #167287)"/>
<path id="Vector_141" opacity="0.2" d="M45.3022 63.5015C29.0724 72.8687 28.4042 87.8171 43.3257 97.6575C43.952 98.0751 44.6202 98.4787 45.3022 98.8823C62.2281 108.625 89.663 108.625 106.547 98.8823C123.431 89.1394 123.473 73.2723 106.547 63.5015C105.865 63.0979 105.155 62.7221 104.431 62.3463C87.4359 53.7447 61.5321 54.1205 45.3022 63.5015Z" fill="var(--fill-0, black)"/>
<path id="Vector_142" d="M75.9666 105.104C98.8443 105.104 117.39 94.398 117.39 81.1918C117.39 67.9856 98.8443 57.2798 75.9666 57.2798C53.0888 57.2798 34.5428 67.9856 34.5428 81.1918C34.5428 94.398 53.0888 105.104 75.9666 105.104Z" fill="var(--fill-0, #167287)"/>
<path id="Vector_143" opacity="0.5" d="M75.9666 105.104C98.8443 105.104 117.39 94.398 117.39 81.1918C117.39 67.9856 98.8443 57.2798 75.9666 57.2798C53.0888 57.2798 34.5428 67.9856 34.5428 81.1918C34.5428 94.398 53.0888 105.104 75.9666 105.104Z" fill="var(--fill-0, black)"/>
<path id="Vector_144" d="M46.6804 70.9478C62.8546 61.6085 89.0785 61.6085 105.267 70.9478C111.878 74.7615 115.776 79.5634 116.987 84.5183C115.79 89.4872 111.878 94.2613 105.267 98.1028C89.0785 107.442 62.8546 107.442 46.6804 98.1028C40.0687 94.2752 36.1574 89.4872 34.9464 84.5183C36.1574 79.5634 40.0687 74.7615 46.6804 70.9478Z" fill="var(--fill-0, #167287)"/>
<path id="Vector_145" opacity="0.35" d="M46.6804 70.9478C62.8546 61.6085 89.0785 61.6085 105.267 70.9478C111.878 74.7615 115.776 79.5634 116.987 84.5183C115.79 89.4872 111.878 94.2613 105.267 98.1028C89.0785 107.442 62.8546 107.442 46.6804 98.1028C40.0687 94.2752 36.1574 89.4872 34.9464 84.5183C36.1574 79.5634 40.0687 74.7615 46.6804 70.9478Z" fill="var(--fill-0, black)"/>
<path id="Vector_146" d="M102.051 88.3878C102.051 87.5805 102.051 84.2957 102.051 83.4467C102.051 81.4285 100.659 79.4521 97.6385 77.6844H97.5271C91.9594 74.4693 86.2247 74.9008 81.1024 76.1813C78.9171 76.7241 76.857 77.4339 74.964 78.0881C72.8149 78.8911 70.6213 79.5696 68.3941 80.1202C67.3674 80.354 66.3145 80.4522 65.2623 80.4124C64.3621 80.3621 63.4814 80.1301 62.6733 79.7305L62.8821 79.5774C63.0769 79.4382 63.2996 79.3129 63.5223 79.1737C64.0824 78.8517 64.6637 78.568 65.2623 78.3247C66.7073 77.6797 68.2665 77.3291 69.8485 77.2933C71.4306 77.2574 73.004 77.5371 74.4768 78.1159L79.78 72.7573V67.8302C75.0969 66.2364 70.0489 66.0524 65.2623 67.3012C63.6826 67.7137 62.1374 68.2489 60.641 68.9019L55.3378 65.8398L48.9906 69.5004V74.4136L51.162 75.6663C50.5817 76.5124 50.2579 77.5079 50.2295 78.5335C50.2295 79.3547 50.2295 82.6116 50.2295 83.4467C50.2295 85.4788 51.691 87.4274 54.7393 89.195C57.3997 90.757 60.4108 91.6234 63.4945 91.7143C64.0791 91.7143 64.6637 91.7143 65.2483 91.7143C68.4584 91.4793 71.6204 90.8001 74.6438 89.6961L76.4812 89.0559L71.0527 94.3588V99.2859C74.3484 100.53 77.8622 101.092 81.3816 100.939C84.901 100.786 88.3527 99.9206 91.5279 98.3951L96.7755 101.415L103.123 97.7549V92.8417L100.937 91.589C101.62 90.6569 102.007 89.542 102.051 88.3878ZM88.6884 87.9702C88.2124 88.2465 87.7196 88.4928 87.2129 88.7079C83.916 90.1213 80.1944 90.1763 76.857 88.861C81.8123 87.1072 85.9602 85.5762 89.4957 87.4691C89.2363 87.6598 88.9669 87.8364 88.6884 87.998V87.9702Z" fill="var(--fill-0, #167287)"/>
<path id="Vector_147" d="M81.1024 76.1255C78.9171 76.6684 76.857 77.3782 74.964 78.0324C72.8149 78.8354 70.6213 79.5139 68.3941 80.0645C67.3674 80.2983 66.3145 80.3966 65.2623 80.3568C64.2021 80.3004 63.1709 79.9901 62.2557 79.452C60.2096 78.2829 59.9173 76.557 62.8821 74.6084C63.0769 74.4693 63.2996 74.344 63.5223 74.2048C64.0852 73.8839 64.6661 73.5957 65.2623 73.3418C66.7092 72.7036 68.2677 72.3567 69.8488 72.3209C71.4298 72.285 73.0024 72.561 74.4768 73.1331L79.78 67.7745C75.0969 66.1806 70.0489 65.9967 65.2623 67.2455C63.6826 67.658 62.1374 68.1932 60.641 68.8462L55.3378 65.7841L48.9906 69.4447L54.2521 72.4789C48.921 76.5153 48.8236 80.7187 54.8089 84.1844C57.4744 85.7343 60.4824 86.5999 63.5641 86.7036C64.1487 86.7036 64.7333 86.7036 65.3179 86.7036C68.5296 86.4703 71.6924 85.7862 74.7135 84.6715C80.7962 82.6394 85.7236 80.2454 89.8298 82.6116C92.6136 84.1983 91.8063 86.1886 88.7998 87.9284C88.3237 88.2047 87.831 88.4511 87.3243 88.6661C85.6588 89.3792 83.8676 89.7526 82.0559 89.7646C80.2442 89.7765 78.4483 89.4267 76.7735 88.7357L71.2058 94.3031C74.5007 95.5484 78.014 96.1127 81.5333 95.962C85.0525 95.8113 88.5046 94.9487 91.6811 93.4262L96.9286 96.4466L103.276 92.786L98.0282 89.7657C103.304 85.6875 103.902 81.2336 97.7498 77.6287H97.6385C91.9316 74.4136 86.2247 74.8311 81.1024 76.1255Z" fill="var(--fill-0, #167287)"/>
<g id="Group_5" opacity="0.2">
<path id="Vector_148" d="M81.1024 76.1255C78.9171 76.6684 76.857 77.3782 74.964 78.0324C72.8149 78.8354 70.6213 79.5139 68.3941 80.0645C67.3674 80.2983 66.3145 80.3966 65.2623 80.3568C64.2021 80.3004 63.1709 79.9901 62.2557 79.452C60.2096 78.2829 59.9173 76.557 62.8821 74.6084C63.0769 74.4693 63.2996 74.344 63.5223 74.2048C64.0852 73.8839 64.6661 73.5957 65.2623 73.3418C66.7092 72.7036 68.2677 72.3567 69.8488 72.3209C71.4298 72.285 73.0024 72.561 74.4768 73.1331L79.78 67.7745C75.0969 66.1806 70.0489 65.9967 65.2623 67.2455C63.6826 67.658 62.1374 68.1932 60.641 68.8462L55.3378 65.7841L48.9906 69.4447L54.2521 72.4789C48.921 76.5153 48.8236 80.7187 54.8089 84.1844C57.4744 85.7343 60.4824 86.5999 63.5641 86.7036C64.1487 86.7036 64.7333 86.7036 65.3179 86.7036C68.5296 86.4703 71.6924 85.7862 74.7135 84.6715C80.7962 82.6394 85.7236 80.2454 89.8298 82.6116C92.6136 84.1983 91.8063 86.1886 88.7998 87.9284C88.3237 88.2047 87.831 88.4511 87.3243 88.6661C85.6588 89.3792 83.8676 89.7526 82.0559 89.7646C80.2442 89.7765 78.4483 89.4267 76.7735 88.7357L71.2058 94.3031C74.5007 95.5484 78.014 96.1127 81.5333 95.962C85.0525 95.8113 88.5046 94.9487 91.6811 93.4262L96.9286 96.4466L103.276 92.786L98.0282 89.7657C103.304 85.6875 103.902 81.2336 97.7498 77.6287H97.6385C91.9316 74.4136 86.2247 74.8311 81.1024 76.1255Z" fill="var(--fill-0, white)"/>
</g>
<path id="Vector_149" opacity="0.45" d="M48.9492 69.4585L55.3378 66.5635L60.599 68.8601L55.2822 65.798L48.9492 69.4585Z" fill="var(--fill-0, #F5F5F5)"/>
<path id="Vector_150" opacity="0.45" d="M64.4688 67.4682C68.9852 66.5642 73.6498 66.7215 78.0951 67.9275L74.4206 73.147L79.7235 67.7884C74.7921 66.1182 69.466 66.0064 64.4688 67.4682Z" fill="var(--fill-0, #F5F5F5)"/>
<path id="Vector_151" opacity="0.45" d="M97.4993 77.6287H97.6106C103.763 81.2336 103.178 85.6875 97.889 89.7657C102.552 84.6715 101.717 81.1223 96.6363 78.1855C91.5558 75.2487 85.0833 75.3044 81.0746 76.0699C86.2247 74.8311 91.9316 74.4136 97.4993 77.6287Z" fill="var(--fill-0, #F5F5F5)"/>
<path id="Vector_152" opacity="0.45" d="M97.9169 89.8214L101.939 92.9113L96.8174 96.5022L103.164 92.8417L97.9169 89.8214Z" fill="var(--fill-0, #F5F5F5)"/>
<path id="Vector_153" opacity="0.45" d="M87.2119 88.7079C84.0804 90.284 80.4634 90.5978 77.1071 89.5847L71.0526 94.3588L76.62 88.7914C78.3015 89.486 80.1052 89.8365 81.9244 89.8221C83.7437 89.8078 85.5416 89.4289 87.2119 88.7079Z" fill="var(--fill-0, #F5F5F5)"/>
<path id="Vector_154" opacity="0.45" d="M68.3379 80.0784C65.9439 81.0109 62.4922 80.8578 60.7384 79.3546C58.9847 77.8514 60.0843 76.0838 62.8262 74.6223C59.8616 76.5709 60.1539 78.2968 62.1999 79.466C63.1151 80.004 64.1461 80.3143 65.2063 80.3706C66.2584 80.4104 67.3113 80.3122 68.3379 80.0784Z" fill="var(--fill-0, #F5F5F5)"/>
<path id="Vector_155" opacity="0.45" d="M54.1406 72.5347C53.6952 72.9244 49.8815 76.4875 51.5656 80.0367C53.3472 83.8365 58.9425 86.2583 63.452 86.7593C60.3705 86.6556 57.3627 85.7901 54.6973 84.2401C48.7819 80.7744 48.782 76.571 54.1406 72.5347Z" fill="var(--fill-0, #F5F5F5)"/>
<path id="Vector_156" d="M138.492 57.0294C135.499 51.9909 130.516 47.2865 123.543 43.2083C99.1004 29.1089 59.514 29.1089 35.0439 43.2083C28.0843 47.2447 23.0873 51.9909 20.0946 57.0294H16.7679V69.8205C17.2133 78.7144 23.2961 87.5248 35.0439 94.3031C59.4862 108.416 99.0726 108.416 123.543 94.3031C135.291 87.5248 141.429 78.7005 141.874 69.8205V57.0294H138.492Z" fill="var(--fill-0, #167287)"/>
<path id="Vector_157" opacity="0.3" d="M138.492 57.0294C135.499 51.9909 130.516 47.2865 123.543 43.2083C99.1004 29.1089 59.514 29.1089 35.0439 43.2083C28.0843 47.2447 23.0873 51.9909 20.0946 57.0294H16.7679V69.8205C17.2133 78.7144 23.2961 87.5248 35.0439 94.3031C59.4862 108.416 99.0726 108.416 123.543 94.3031C135.291 87.5248 141.429 78.7005 141.874 69.8205V57.0294H138.492Z" fill="var(--fill-0, black)"/>
<path id="Vector_158" opacity="0.1" d="M79.2933 32.6302C63.2862 32.6302 47.279 36.1516 35.0439 43.2083C28.0843 47.2446 23.0873 51.9908 20.0946 57.0293H16.7679V69.8204C17.2133 78.7143 23.2961 87.5247 35.0439 94.303C47.2651 101.36 63.2862 104.881 79.2933 104.881V32.6302Z" fill="var(--fill-0, black)"/>
<path id="Vector_159" opacity="0.1" d="M45.1215 38.4899C41.6407 39.7889 38.2706 41.3668 35.0439 43.2083C28.0843 47.2447 23.0873 51.9909 20.0946 57.0294H16.7679V69.8205C17.2133 78.7144 23.2961 87.5248 35.0439 94.3031C38.2706 96.1446 41.6407 97.7225 45.1215 99.0215V38.4899Z" fill="var(--fill-0, black)"/>
<path id="Vector_160" opacity="0.5" d="M113.479 38.4899C116.952 39.7973 120.317 41.3749 123.543 43.2083C130.502 47.2447 135.499 51.9909 138.492 57.0294H141.874V69.8205C141.429 78.7005 135.29 87.5248 123.543 94.3031C120.319 96.1416 116.954 97.7195 113.479 99.0215V38.4899Z" fill="var(--fill-0, #167287)"/>
<path id="Vector_161" d="M35.0437 31.4889C10.6015 45.6023 10.6154 68.4843 35.0437 82.5837C56.4237 94.9294 89.4403 96.5022 113.729 87.2186L114.704 86.8428C117.748 85.6371 120.702 84.2137 123.542 82.5837C143.92 70.8226 147.303 52.9652 133.69 39.172C130.665 36.1739 127.252 33.5945 123.542 31.5029C99.1141 17.3895 59.486 17.3895 35.0437 31.4889Z" fill="var(--fill-0, #167287)"/>
<path id="Vector_162" opacity="0.2" d="M35.0437 31.4889C10.6015 45.6023 10.6154 68.4843 35.0437 82.5837C56.4237 94.9294 89.4403 96.5022 113.729 87.2186L114.704 86.8428C117.748 85.6371 120.702 84.2137 123.542 82.5837C143.92 70.8226 147.303 52.9652 133.69 39.172C130.665 36.1739 127.252 33.5945 123.542 31.5029C99.1141 17.3895 59.486 17.3895 35.0437 31.4889Z" fill="var(--fill-0, black)"/>
<path id="Vector_163" opacity="0.5" d="M133.69 39.1721C133.954 39.4643 142.5 48.4835 140.246 61.4416C138.074 73.8569 120.759 84.3097 114.704 86.829C117.748 85.6233 120.702 84.1999 123.542 82.5699C143.92 70.8227 147.303 52.9653 133.69 39.1721Z" fill="var(--fill-0, #F5F5F5)"/>
<path id="Vector_164" opacity="0.5" d="M24.8965 74.9146C24.632 74.6084 16.0856 65.6031 18.3544 52.645C20.5119 40.2297 37.8414 29.7769 43.8963 27.2716C40.8506 28.453 37.8924 29.8484 35.0436 31.4472C14.6658 43.264 11.2834 61.1214 24.8965 74.9146Z" fill="var(--fill-0, #F5F5F5)"/>
<path id="Vector_165" d="M79.3207 90.573C111.446 90.573 137.489 75.5363 137.489 56.9877C137.489 38.439 111.446 23.4023 79.3207 23.4023C47.1951 23.4023 21.1521 38.439 21.1521 56.9877C21.1521 75.5363 47.1951 90.573 79.3207 90.573Z" fill="var(--fill-0, #167287)"/>
<path id="Vector_166" opacity="0.1" d="M79.3207 90.573C111.446 90.573 137.489 75.5363 137.489 56.9877C137.489 38.439 111.446 23.4023 79.3207 23.4023C47.1951 23.4023 21.1521 38.439 21.1521 56.9877C21.1521 75.5363 47.1951 90.573 79.3207 90.573Z" fill="var(--fill-0, white)"/>
<path id="Vector_167" opacity="0.2" d="M134.845 67.0228C139.522 58.3794 137.991 48.8453 130.279 40.7725C128.752 39.2155 127.099 37.7864 125.338 36.4996C123.832 35.3743 122.261 34.3379 120.633 33.3957C119.701 32.8529 118.74 32.3379 117.766 31.8369C120.174 35.8175 119.297 40.0766 105.587 40.8839C78.7781 42.4427 112.755 68.0667 112.755 68.0667C112.755 68.0667 130.057 59.6877 134.845 67.0228Z" fill="var(--fill-0, white)"/>
<path id="Vector_168" opacity="0.3" d="M132.075 59.9383C136.097 59.479 138.101 55.3452 136.529 50.6965C134.956 46.0477 130.446 42.6377 126.424 43.0831C122.401 43.5284 120.397 47.6761 121.97 52.3249C123.543 56.9737 128.122 60.3837 132.075 59.9383Z" fill="var(--fill-0, white)"/>
<path id="Vector_169" d="M89.6771 81.2893C88.3548 71.3236 44.8292 43.7093 44.8292 43.7093C44.8292 43.7093 35.1831 39.84 38.3846 33.0895C36.7768 34.0039 35.2244 35.0124 33.7355 36.1098C32.7194 36.8336 31.7868 37.5713 30.9517 38.3368C18.0067 49.5551 17.9789 64.2948 30.9517 75.527C31.8286 76.2925 32.7751 77.0441 33.7355 77.7679C35.1222 78.7734 36.5627 79.7027 38.0505 80.5516C39.5259 81.4145 41.071 82.2218 42.6578 82.9595C43.9244 83.558 45.2468 84.1286 46.583 84.6575C47.9193 85.1864 49.2694 85.6736 50.6614 86.0494C54.9024 87.4289 59.2444 88.476 63.648 89.1811C64.6085 89.3342 65.5828 89.4733 66.5572 89.5986C70.8645 90.1446 75.202 90.4188 79.5439 90.4198C84.8645 90.4135 90.1758 89.9759 95.4258 89.1114C95.4258 89.1114 88.4244 87.8309 89.6771 81.2893Z" fill="var(--fill-0, #167287)"/>
<path id="Vector_170" opacity="0.2" d="M89.0505 81.2893C87.7282 71.3236 44.2166 43.7093 44.2166 43.7093C44.2166 43.7093 34.5566 39.84 37.758 33.0895C36.1523 34.0072 34.6001 35.0156 33.109 36.1098C32.1068 36.8336 31.1603 37.5713 30.3251 38.3368C17.3663 49.5551 17.3524 64.2948 30.3251 75.527C31.202 76.2925 32.1486 77.0441 33.109 77.7679C34.5 78.7672 35.9401 79.6962 37.424 80.5516C38.8994 81.4145 40.4444 82.2218 42.0312 82.9595C43.2979 83.558 44.6202 84.1286 45.9565 84.6575C47.2927 85.1864 48.6429 85.6736 50.0348 86.0494C54.2763 87.4272 58.6182 88.4743 63.0215 89.1811C63.982 89.3342 64.9702 89.4733 65.9445 89.5986C70.2518 90.1455 74.5894 90.4197 78.9313 90.4198C84.2518 90.4123 89.5631 89.9748 94.8131 89.1114C94.8131 89.1114 87.7561 87.8309 89.0505 81.2893Z" fill="var(--fill-0, white)"/>
<path id="Vector_171" d="M48.6567 39.2833C32.4129 48.6504 31.7587 63.6128 46.6662 73.4393C47.3065 73.8568 47.9746 74.2744 48.6567 74.6641C65.5825 84.4071 93.0174 84.4071 109.901 74.6641C126.786 64.9212 126.827 49.0541 109.901 39.2833C109.219 38.8797 108.51 38.5038 107.772 38.142C90.7903 29.5403 64.8865 29.9301 48.6567 39.2833Z" fill="var(--fill-0, #167287)"/>
<path id="Vector_172" opacity="0.2" d="M48.6567 39.2833C32.4129 48.6504 31.7587 63.6128 46.6662 73.4393C47.3065 73.8568 47.9746 74.2744 48.6567 74.6641C65.5825 84.4071 93.0174 84.4071 109.901 74.6641C126.786 64.9212 126.827 49.0541 109.901 39.2833C109.219 38.8797 108.51 38.5038 107.772 38.142C90.7903 29.5403 64.8865 29.9301 48.6567 39.2833Z" fill="var(--fill-0, black)"/>
<path id="Vector_173" d="M79.3211 80.8995C102.199 80.8995 120.745 70.1938 120.745 56.9876C120.745 43.7814 102.199 33.0756 79.3211 33.0756C56.4434 33.0756 37.8973 43.7814 37.8973 56.9876C37.8973 70.1938 56.4434 80.8995 79.3211 80.8995Z" fill="var(--fill-0, #167287)"/>
<path id="Vector_174" opacity="0.5" d="M79.3211 80.8995C102.199 80.8995 120.745 70.1938 120.745 56.9876C120.745 43.7814 102.199 33.0756 79.3211 33.0756C56.4434 33.0756 37.8973 43.7814 37.8973 56.9876C37.8973 70.1938 56.4434 80.8995 79.3211 80.8995Z" fill="var(--fill-0, black)"/>
<path id="Vector_175" d="M50.0349 46.7436C66.2091 37.4043 92.4331 37.4043 108.607 46.7436C115.233 50.5712 119.13 55.3592 120.341 60.3281C119.13 65.297 115.233 70.071 108.607 73.8986C92.4331 83.2379 66.2091 83.2379 50.0349 73.8986C43.4094 70.0849 39.512 65.2831 38.301 60.3281C39.512 55.3592 43.4094 50.5712 50.0349 46.7436Z" fill="var(--fill-0, #167287)"/>
<path id="Vector_176" opacity="0.35" d="M50.0349 46.7436C66.2091 37.4043 92.4331 37.4043 108.607 46.7436C115.233 50.5712 119.13 55.3592 120.341 60.3281C119.13 65.297 115.233 70.071 108.607 73.8986C92.4331 83.2379 66.2091 83.2379 50.0349 73.8986C43.4094 70.0849 39.512 65.2831 38.301 60.3281C39.512 55.3592 43.4094 50.5712 50.0349 46.7436Z" fill="var(--fill-0, black)"/>
<path id="Vector_177" d="M105.406 64.1973C105.406 63.3901 105.406 60.0914 105.406 59.2424C105.406 57.2242 104.014 55.2617 100.98 53.494H100.882C95.3144 50.2788 89.5657 50.7103 84.4574 51.9908C82.286 52.5476 80.2816 53.2574 78.3329 53.8977C76.1798 54.7029 73.9814 55.3814 71.7491 55.9297C70.7234 56.1698 69.6696 56.2682 68.6172 56.2221C67.7171 56.1717 66.8364 55.9397 66.0283 55.54L66.2231 55.4008L66.8773 54.9972C67.4372 54.6708 68.0185 54.3825 68.6172 54.1343C70.0608 53.4928 71.6173 53.144 73.1966 53.1081C74.776 53.0723 76.3467 53.3501 77.8179 53.9255L83.135 48.5669V43.598C78.4518 42.005 73.404 41.8211 68.6172 43.0691C67.0337 43.469 65.4876 44.0045 63.996 44.6697L58.6928 41.5937L52.3456 45.2543V50.1675L54.517 51.4202C53.9409 52.2683 53.6175 53.2626 53.5844 54.2874C53.5844 55.1086 53.5844 58.3794 53.5844 59.2006C53.5844 61.2327 54.9764 63.1952 58.0943 64.9489C60.7546 66.5109 63.7658 67.3773 66.8495 67.4682C67.4341 67.4682 68.0187 67.4682 68.6033 67.4682C71.8141 67.2287 74.9761 66.5448 77.9988 65.4361L79.8362 64.8098L74.4912 70.1684V75.0816C77.7869 76.3256 81.3007 76.888 84.8201 76.7349C88.3395 76.5818 91.7912 75.7163 94.9664 74.1908L100.214 77.2251L106.547 73.5645V68.6513L104.376 67.3847C105.03 66.4488 105.388 65.3387 105.406 64.1973ZM92.0434 63.7659C91.5659 64.0394 91.0733 64.2857 90.5679 64.5035C87.2659 65.9163 83.5403 65.9713 80.1981 64.6567C85.1673 62.9029 89.3152 61.3719 92.8368 63.2648C92.5836 63.4492 92.3186 63.6165 92.0434 63.7659Z" fill="var(--fill-0, #167287)"/>
<path id="Vector_178" d="M84.4574 51.9212C82.286 52.478 80.2816 53.1878 78.3329 53.8281C76.1798 54.6333 73.9814 55.3118 71.7491 55.8602C70.7234 56.1003 69.6696 56.1986 68.6172 56.1525C67.5541 56.0988 66.5188 55.7936 65.5967 55.2617C63.5645 54.0786 63.2583 52.3527 66.2231 50.4041L66.8773 50.0144C67.4343 49.6825 68.016 49.394 68.6172 49.1515C70.0608 48.5099 71.6173 48.1611 73.1966 48.1253C74.776 48.0895 76.3467 48.3673 77.8179 48.9427L83.135 43.5841C78.4518 41.9911 73.404 41.8072 68.6172 43.0552C67.0337 43.4551 65.4876 43.9906 63.996 44.6558L58.6928 41.5798L52.3456 45.2404L57.5932 48.2746C52.2621 52.3249 52.1508 56.5143 58.15 59.98C60.8103 61.542 63.8214 62.4084 66.9052 62.4993C67.4898 62.4993 68.0744 62.4993 68.659 62.4993C71.8691 62.2643 75.0311 61.5851 78.0545 60.4811C84.1372 58.449 89.0647 56.0411 93.1569 58.4073C95.9408 59.994 95.1474 61.9843 92.1408 63.7241C91.6633 63.9977 91.1707 64.244 90.6654 64.4618C89.0006 65.1763 87.21 65.5518 85.3984 65.5661C83.5867 65.5804 81.7905 65.2334 80.1146 64.5453L74.5469 70.1127C77.8426 71.3567 81.3564 71.9191 84.8758 71.766C88.3952 71.6129 91.8469 70.7474 95.0221 69.2219L100.27 72.2422L106.603 68.5956L101.355 65.5614C106.631 61.4833 107.243 57.0433 101.077 53.4384H100.98C95.3144 50.2093 89.5658 50.6268 84.4574 51.9212Z" fill="var(--fill-0, #167287)"/>
<g id="Group_6" opacity="0.2">
<path id="Vector_179" d="M84.4574 51.9212C82.286 52.478 80.2816 53.1878 78.3329 53.8281C76.1798 54.6333 73.9814 55.3118 71.7491 55.8602C70.7234 56.1003 69.6696 56.1986 68.6172 56.1525C67.5541 56.0988 66.5188 55.7936 65.5967 55.2617C63.5645 54.0786 63.2583 52.3527 66.2231 50.4041L66.8773 50.0144C67.4343 49.6825 68.016 49.394 68.6172 49.1515C70.0608 48.5099 71.6173 48.1611 73.1966 48.1253C74.776 48.0895 76.3467 48.3673 77.8179 48.9427L83.135 43.5841C78.4518 41.9911 73.404 41.8072 68.6172 43.0552C67.0337 43.4551 65.4876 43.9906 63.996 44.6558L58.6928 41.5798L52.3456 45.2404L57.5932 48.2746C52.2621 52.3249 52.1508 56.5143 58.15 59.98C60.8103 61.542 63.8214 62.4084 66.9052 62.4993C67.4898 62.4993 68.0744 62.4993 68.659 62.4993C71.8691 62.2643 75.0311 61.5851 78.0545 60.4811C84.1372 58.449 89.0647 56.0411 93.1569 58.4073C95.9408 59.994 95.1474 61.9843 92.1408 63.7241C91.6633 63.9977 91.1707 64.244 90.6654 64.4618C89.0006 65.1763 87.21 65.5518 85.3984 65.5661C83.5867 65.5804 81.7905 65.2334 80.1146 64.5453L74.5469 70.1127C77.8426 71.3567 81.3564 71.9191 84.8758 71.766C88.3952 71.6129 91.8469 70.7474 95.0221 69.2219L100.27 72.2422L106.603 68.5956L101.355 65.5614C106.631 61.4833 107.243 57.0433 101.077 53.4384H100.98C95.3144 50.2093 89.5658 50.6268 84.4574 51.9212Z" fill="var(--fill-0, white)"/>
</g>
<path id="Vector_180" opacity="0.45" d="M52.2896 45.2543L58.6921 42.3592L63.9394 44.6697L58.6364 41.5937L52.2896 45.2543Z" fill="var(--fill-0, #F5F5F5)"/>
<path id="Vector_181" opacity="0.45" d="M67.8234 43.2639C72.3398 42.3599 77.0044 42.5172 81.4496 43.7232L77.7751 49.0262L83.0781 43.6676C78.1564 41.9637 72.8283 41.8227 67.8234 43.2639Z" fill="var(--fill-0, #F5F5F5)"/>
<path id="Vector_182" opacity="0.45" d="M100.882 53.4244H100.979C107.146 57.0293 106.547 61.4693 101.258 65.5474C105.935 60.4533 105.099 56.9041 100.019 53.9812C94.9383 51.0583 88.4658 51.0861 84.4571 51.8516C89.5655 50.6268 95.3141 50.2093 100.882 53.4244Z" fill="var(--fill-0, #F5F5F5)"/>
<path id="Vector_183" opacity="0.45" d="M101.257 65.6171L105.28 68.707L100.172 72.3119L106.505 68.6513L101.257 65.6171Z" fill="var(--fill-0, #F5F5F5)"/>
<path id="Vector_184" opacity="0.45" d="M90.539 64.5036C87.4099 66.0881 83.7895 66.4023 80.4342 65.3804L74.4214 70.1684L79.9888 64.601C81.6656 65.2869 83.4622 65.6316 85.2737 65.6148C87.0852 65.5981 88.8753 65.2203 90.539 64.5036Z" fill="var(--fill-0, #F5F5F5)"/>
<path id="Vector_185" opacity="0.45" d="M71.693 55.8742C69.2851 56.8206 65.8472 56.6536 64.0935 55.1504C62.3398 53.6472 63.4393 51.8935 66.1673 50.4181C63.2027 52.3667 63.5089 54.0926 65.541 55.2757C66.4631 55.8075 67.4982 56.1128 68.5613 56.1665C69.6137 56.2126 70.6674 56.1143 71.693 55.8742Z" fill="var(--fill-0, #F5F5F5)"/>
<path id="Vector_186" opacity="0.45" d="M57.4955 48.3303C57.0502 48.734 53.2365 52.2832 54.9206 55.8324C56.7022 59.6322 62.2974 62.0679 66.807 62.555C63.7235 62.4642 60.7125 61.5977 58.0523 60.0358C52.0534 56.5701 52.1648 52.3806 57.4955 48.3303Z" fill="var(--fill-0, #F5F5F5)"/>
<path id="Vector_187" d="M125.617 36.1238C122.624 31.0714 117.641 26.3808 110.667 22.3027C86.2249 8.18938 46.6385 8.18938 22.1685 22.3027C15.2088 26.3252 10.2118 31.0714 7.21917 36.1238H3.85068V48.9149C4.2961 57.7949 10.3788 66.6053 22.1267 73.3975C46.5689 87.497 86.1553 87.497 110.625 73.3975C122.373 66.6053 128.512 57.7949 128.957 48.901V36.1099L125.617 36.1238Z" fill="var(--fill-0, #167287)"/>
<path id="Vector_188" opacity="0.3" d="M125.617 36.1238C122.624 31.0714 117.641 26.3808 110.667 22.3027C86.2249 8.18938 46.6385 8.18938 22.1685 22.3027C15.2088 26.3252 10.2118 31.0714 7.21917 36.1238H3.85068V48.9149C4.2961 57.7949 10.3788 66.6053 22.1267 73.3975C46.5689 87.497 86.1553 87.497 110.625 73.3975C122.373 66.6053 128.512 57.7949 128.957 48.901V36.1099L125.617 36.1238Z" fill="var(--fill-0, black)"/>
<path id="Vector_189" opacity="0.1" d="M66.4178 11.7247C50.4107 11.7247 34.4035 15.2461 22.1685 22.3028C15.2088 26.3252 10.2118 31.0714 7.21917 36.1238H3.85068V48.9149C4.2961 57.7949 10.3788 66.6053 22.1267 73.3976C34.3478 80.4403 50.3689 83.9756 66.3761 83.9756L66.4178 11.7247Z" fill="var(--fill-0, black)"/>
<path id="Vector_190" opacity="0.1" d="M32.246 17.5843C28.7653 18.8833 25.3952 20.4612 22.1685 22.3027C15.2088 26.3251 10.2118 31.0713 7.21917 36.1238H3.85068V48.9149C4.2961 57.7949 10.3788 66.6053 22.1267 73.3975C25.3537 75.2344 28.7239 76.8077 32.2042 78.1019L32.246 17.5843Z" fill="var(--fill-0, black)"/>
<path id="Vector_191" opacity="0.5" d="M100.604 17.5843C104.079 18.8863 107.444 20.4641 110.667 22.3027C117.627 26.3251 122.624 31.0713 125.617 36.1238H128.999V48.9149C128.554 57.8088 122.415 66.6191 110.667 73.4114C107.444 75.2456 104.078 76.8188 100.604 78.1158V17.5843Z" fill="var(--fill-0, #167287)"/>
<path id="Vector_192" d="M22.168 10.5834C-2.27422 24.6967 -2.2603 47.5648 22.168 61.6781C43.548 74.0238 76.5645 75.5966 100.854 66.2991L101.828 65.9233C104.872 64.7221 107.826 63.3034 110.667 61.6781C131.045 49.9031 134.427 32.0457 120.828 18.2664C117.807 15.264 114.394 12.6843 110.681 10.5973C86.2384 -3.52998 46.6103 -3.52999 22.168 10.5834Z" fill="var(--fill-0, #167287)"/>
<path id="Vector_193" opacity="0.2" d="M22.168 10.5834C-2.27422 24.6967 -2.2603 47.5648 22.168 61.6781C43.548 74.0238 76.5645 75.5966 100.854 66.2991L101.828 65.9233C104.872 64.7221 107.826 63.3034 110.667 61.6781C131.045 49.9031 134.427 32.0457 120.828 18.2664C117.807 15.264 114.394 12.6843 110.681 10.5973C86.2384 -3.52998 46.6103 -3.52999 22.168 10.5834Z" fill="var(--fill-0, black)"/>
<path id="Vector_194" opacity="0.5" d="M120.828 18.2664C121.079 18.5587 129.625 27.5779 127.37 40.536C125.199 52.9513 107.883 63.4041 101.828 65.9094C104.873 64.7083 107.826 63.2895 110.667 61.6643C131.045 49.9031 134.427 32.0457 120.828 18.2664Z" fill="var(--fill-0, #F5F5F5)"/>
<path id="Vector_195" opacity="0.5" d="M12.0215 53.9951C11.757 53.7028 3.21059 44.6836 5.47943 31.7255C7.63692 19.3102 24.9664 8.85741 31.0213 6.35208C27.9687 7.54451 25.0096 8.96353 22.1686 10.5972C1.79081 22.3445 -1.59159 40.2158 12.0215 53.9951Z" fill="var(--fill-0, #F5F5F5)"/>
<path id="Vector_196" d="M66.4457 69.6673C98.5714 69.6673 124.614 54.6307 124.614 36.0821C124.614 17.5334 98.5714 2.49673 66.4457 2.49673C34.3201 2.49673 8.27708 17.5334 8.27708 36.0821C8.27708 54.6307 34.3201 69.6673 66.4457 69.6673Z" fill="var(--fill-0, #167287)"/>
<path id="Vector_197" opacity="0.1" d="M66.4457 69.6673C98.5714 69.6673 124.614 54.6307 124.614 36.0821C124.614 17.5334 98.5714 2.49673 66.4457 2.49673C34.3201 2.49673 8.27708 17.5334 8.27708 36.0821C8.27708 54.6307 34.3201 69.6673 66.4457 69.6673Z" fill="var(--fill-0, white)"/>
<path id="Vector_198" opacity="0.2" d="M121.97 46.1033C126.647 37.4739 125.116 28.0093 117.404 19.867C115.883 18.2915 114.235 16.8437 112.477 15.5383C110.964 14.4226 109.393 13.3865 107.772 12.4345C106.84 11.8917 105.879 11.3767 104.905 10.8896C107.313 14.8702 106.436 19.1293 92.7255 19.9226C65.917 21.4954 99.8939 47.1194 99.8939 47.1194C99.8939 47.1194 117.182 38.7683 121.97 46.1033Z" fill="var(--fill-0, white)"/>
<path id="Vector_199" opacity="0.3" d="M119.199 39.0189C123.222 38.5735 125.226 34.4397 123.653 29.777C122.08 25.1143 117.571 21.7182 113.548 22.1775C109.526 22.6368 107.522 26.7567 109.094 31.4194C110.667 36.0821 115.177 39.4782 119.199 39.0189Z" fill="var(--fill-0, white)"/>
<path id="Vector_200" d="M76.8017 60.3697C75.4793 50.418 31.9538 22.8594 31.9538 22.8594C31.9538 22.8594 22.3077 18.9901 25.5091 12.2396C23.9046 13.1543 22.3526 14.158 20.8601 15.246C19.844 15.9698 18.9114 16.7213 18.0762 17.4868C5.13131 28.7052 5.10347 43.4448 18.0762 54.6771C18.9532 55.4426 19.8997 56.1803 20.8601 56.918C22.2435 57.9284 23.6842 58.8579 25.1751 59.7017C26.6505 60.5785 28.1956 61.3719 29.7824 62.1235C31.049 62.722 32.3714 63.2926 33.7076 63.8076C35.0439 64.3226 36.394 64.8236 37.7859 65.2829C42.0255 66.6644 46.368 67.7069 50.7726 68.4007C51.733 68.5538 52.7074 68.7069 53.6817 68.8322C57.9887 69.3805 62.3267 69.6501 66.6684 69.6394C71.9891 69.6331 77.3004 69.1956 82.5503 68.3311C82.5503 68.3311 75.5489 66.9253 76.8017 60.3697Z" fill="var(--fill-0, #167287)"/>
<path id="Vector_201" opacity="0.2" d="M76.1751 60.3697C74.8528 50.418 31.3412 22.8594 31.3412 22.8594C31.3412 22.8594 21.6812 18.9901 24.8826 12.2396C23.2801 13.1576 21.7282 14.1612 20.2336 15.246C19.2314 15.9698 18.2849 16.7213 17.4497 17.4868C4.49086 28.7052 4.47694 43.4448 17.4497 54.6771C18.3266 55.4426 19.2731 56.1803 20.2336 56.918C21.6212 57.9221 23.0616 58.8514 24.5485 59.7017C26.024 60.5785 27.569 61.3719 29.1558 62.1235C30.4225 62.722 31.7448 63.2926 33.0811 63.8076C34.4173 64.3226 35.7675 64.8236 37.1594 65.2829C41.3994 66.6628 45.7418 67.7053 50.1461 68.4007C51.1205 68.5538 52.0948 68.7069 53.0691 68.8322C57.3761 69.3813 61.714 69.651 66.0558 69.6394C71.3764 69.632 76.6877 69.1944 81.9377 68.3311C81.9377 68.3311 74.9363 66.9253 76.1751 60.3697Z" fill="var(--fill-0, white)"/>
<path id="Vector_202" d="M35.7817 18.4056C19.5379 27.7728 18.8837 42.7212 33.7912 52.5616C34.4315 52.9652 35.0996 53.3828 35.7817 53.7864C52.7075 63.5294 80.1424 63.5294 97.0265 53.7864C113.911 44.0435 113.952 28.1764 97.0265 18.4056C96.3444 18.002 95.6345 17.6262 94.8968 17.2504C77.9153 8.6627 52.0115 9.01064 35.7817 18.4056Z" fill="var(--fill-0, #167287)"/>
<path id="Vector_203" opacity="0.2" d="M35.7817 18.4056C19.5379 27.7728 18.8837 42.7212 33.7912 52.5616C34.4315 52.9652 35.0996 53.3828 35.7817 53.7864C52.7075 63.5294 80.1424 63.5294 97.0265 53.7864C113.911 44.0435 113.952 28.1764 97.0265 18.4056C96.3444 18.002 95.6345 17.6262 94.8968 17.2504C77.9153 8.6627 52.0115 9.01064 35.7817 18.4056Z" fill="var(--fill-0, black)"/>
<path id="Vector_204" d="M66.4456 59.994C89.3234 59.994 107.869 49.2883 107.869 36.082C107.869 22.8758 89.3234 12.17 66.4456 12.17C43.5679 12.17 25.0219 22.8758 25.0219 36.082C25.0219 49.2883 43.5679 59.994 66.4456 59.994Z" fill="var(--fill-0, #167287)"/>
<path id="Vector_205" opacity="0.5" d="M66.4456 59.994C89.3234 59.994 107.869 49.2883 107.869 36.082C107.869 22.8758 89.3234 12.17 66.4456 12.17C43.5679 12.17 25.0219 22.8758 25.0219 36.082C25.0219 49.2883 43.5679 59.994 66.4456 59.994Z" fill="var(--fill-0, black)"/>
<path id="Vector_206" d="M37.1594 25.838C53.3336 16.4987 79.5576 16.4987 95.7318 25.838C102.357 29.6517 106.255 34.4536 107.466 39.4086C106.255 44.3775 102.357 49.1515 95.7318 52.993C79.5576 62.3323 53.3336 62.3323 37.1594 52.993C30.5339 49.1654 26.6365 44.3775 25.4255 39.4086C26.6365 34.4397 30.5339 29.6517 37.1594 25.838Z" fill="var(--fill-0, #167287)"/>
<path id="Vector_207" opacity="0.35" d="M37.1594 25.838C53.3336 16.4987 79.5576 16.4987 95.7318 25.838C102.357 29.6517 106.255 34.4536 107.466 39.4086C106.255 44.3775 102.357 49.1515 95.7318 52.993C79.5576 62.3323 53.3336 62.3323 37.1594 52.993C30.5339 49.1654 26.6365 44.3775 25.4255 39.4086C26.6365 34.4397 30.5339 29.6517 37.1594 25.838Z" fill="var(--fill-0, black)"/>
<path id="Vector_208" d="M92.5304 43.278C92.5304 42.4707 92.5304 39.186 92.5304 38.3369C92.5304 36.3048 91.1385 34.3423 88.1041 32.5747L88.0067 32.5051C82.439 29.3038 76.6903 29.7214 71.582 31.0019C69.4105 31.5447 67.4062 32.2546 65.4575 32.9087C63.3044 33.7139 61.106 34.3925 58.8737 34.9408C57.8469 35.1741 56.794 35.2724 55.7418 35.2331C54.8416 35.1828 53.961 34.9508 53.1529 34.5511L53.3477 34.398L54.0019 33.9944C54.5648 33.6734 55.1457 33.3853 55.7418 33.1314C57.1864 32.4936 58.7426 32.1469 60.3214 32.111C61.9001 32.0752 63.4704 32.351 64.9424 32.9226L70.2596 27.564V22.6508C65.5763 21.0578 60.5286 20.8739 55.7418 22.1219C54.1621 22.5344 52.617 23.0696 51.1206 23.7225L45.8174 20.6604L39.4702 24.321V29.2342L41.6416 30.4869C41.0613 31.333 40.7375 32.3285 40.709 33.3541C40.709 34.1753 40.709 37.4322 40.709 38.2673C40.709 40.2994 42.1009 42.248 45.2188 44.0157C47.8844 45.5656 50.8924 46.4312 53.9741 46.5349C54.5587 46.5349 55.1433 46.5349 55.7279 46.5349C58.9395 46.3016 62.1024 45.6175 65.1234 44.5028L66.9607 43.8765L61.6158 49.2351V54.1483C64.9099 55.3976 68.4236 55.9641 71.9435 55.8134C75.4633 55.6626 78.9158 54.7978 82.091 53.2714L87.3386 56.2918L93.6718 52.6312V47.718L91.5004 46.4653C92.1503 45.5276 92.5086 44.4187 92.5304 43.278ZM79.1679 42.8604C78.6904 43.134 78.1978 43.3803 77.6925 43.5981C74.3905 45.0108 70.6649 45.0658 67.3227 43.7512C72.2918 41.9975 76.4398 40.4664 79.9613 42.3594C79.7247 42.5125 79.4046 42.6934 79.1679 42.8604Z" fill="var(--fill-0, #167287)"/>
<path id="Vector_209" d="M71.582 31.0019C69.4106 31.5447 67.4062 32.2546 65.4575 32.9087C63.3044 33.7139 61.106 34.3925 58.8737 34.9408C57.8469 35.1741 56.794 35.2724 55.7418 35.2331C54.6776 35.1747 53.6424 34.8646 52.7213 34.3284C50.6891 33.1592 50.3829 31.4333 53.3477 29.4847L54.0019 29.0811C54.5618 28.7547 55.1431 28.4664 55.7418 28.2182C57.1864 27.5803 58.7426 27.2336 60.3214 27.1978C61.9001 27.162 63.4704 27.4378 64.9424 28.0094L70.2596 22.6508C65.5764 21.0578 60.5286 20.8739 55.7418 22.1219C54.1621 22.5344 52.617 23.0696 51.1206 23.7225L45.8174 20.6604L39.4702 24.321L44.7177 27.3552C39.3867 31.3916 39.2753 35.595 45.2745 39.0607C47.9401 40.6106 50.948 41.4762 54.0297 41.5799C54.6143 41.5799 55.199 41.5799 55.7836 41.5799C58.9952 41.3466 62.1581 40.6625 65.1791 39.5478C71.2618 37.5157 76.1892 35.1217 80.2815 37.4879C83.0654 39.0746 82.2719 41.0649 79.2654 42.8048C78.7879 43.0783 78.2953 43.3246 77.7899 43.5424C76.1198 44.2445 74.3263 44.6061 72.5145 44.6061C70.7028 44.6061 68.9093 44.2445 67.2392 43.5424L61.6714 49.1098C64.9665 50.357 68.4807 50.9211 72.0006 50.768C75.5204 50.6149 78.9724 49.7477 82.1467 48.2191L87.3942 51.2533L93.7275 47.5927L88.4799 44.5724C93.7553 40.4804 94.3678 36.0404 88.2016 32.4355L88.1041 32.3659C82.439 29.3038 76.6903 29.7214 71.582 31.0019Z" fill="var(--fill-0, #167287)"/>
<g id="Group_7" opacity="0.2">
<path id="Vector_210" d="M71.582 31.0016C69.4106 31.5444 67.4062 32.2543 65.4575 32.9085C63.3044 33.7137 61.106 34.3922 58.8737 34.9406C57.8469 35.1739 56.794 35.2721 55.7418 35.2328C54.6776 35.1744 53.6424 34.8644 52.7213 34.3282C50.6891 33.159 50.3829 31.4331 53.3477 29.4845L54.0019 29.0809C54.5618 28.7545 55.1431 28.4661 55.7418 28.2179C57.1864 27.5801 58.7426 27.2334 60.3214 27.1976C61.9001 27.1617 63.4704 27.4375 64.9424 28.0091L70.2596 22.6505C65.5764 21.0575 60.5286 20.8737 55.7418 22.1217C54.1621 22.5341 52.617 23.0693 51.1206 23.7223L45.8174 20.6602L39.4702 24.3208L44.7177 27.355C39.3867 31.3913 39.2753 35.5947 45.2745 39.0604C47.9401 40.6104 50.948 41.4759 54.0297 41.5797C54.6143 41.5797 55.199 41.5797 55.7836 41.5797C58.9952 41.3464 62.1581 40.6623 65.1791 39.5476C71.2618 37.5155 76.1892 35.1215 80.2815 37.4876C83.0654 39.0743 82.2719 41.0647 79.2654 42.8045C78.7879 43.0781 78.2953 43.3243 77.7899 43.5422C76.1198 44.2442 74.3263 44.6059 72.5145 44.6059C70.7028 44.6059 68.9093 44.2442 67.2392 43.5422L61.6714 49.1096C64.9665 50.3567 68.4807 50.9209 72.0006 50.7678C75.5204 50.6146 78.9724 49.7474 82.1467 48.2188L87.3942 51.253L93.7275 47.5925L88.4799 44.5721C93.7553 40.4801 94.3678 36.0401 88.2016 32.4352L88.1041 32.3656C82.439 29.3036 76.6903 29.7211 71.582 31.0016Z" fill="var(--fill-0, white)"/>
</g>
<path id="Vector_211" opacity="0.45" d="M39.4141 24.3487L45.8166 21.4537L51.0639 23.7502L45.7609 20.6882L39.4141 24.3487Z" fill="var(--fill-0, #F5F5F5)"/>
<path id="Vector_212" opacity="0.45" d="M54.9484 22.3584C59.4648 21.4544 64.1294 21.6117 68.5746 22.8177L64.9001 28.0372L70.2031 22.6785C65.2717 21.0084 59.9456 20.8966 54.9484 22.3584Z" fill="var(--fill-0, #F5F5F5)"/>
<path id="Vector_213" opacity="0.45" d="M88.0068 32.505L88.1043 32.5746C94.2705 36.1795 93.672 40.6195 88.3827 44.7115C93.0596 39.6173 92.2244 36.0681 87.1438 33.1313C82.0633 30.1945 75.5909 30.2502 71.5821 31.0018C76.6905 29.7213 82.4391 29.3037 88.0068 32.505Z" fill="var(--fill-0, #F5F5F5)"/>
<path id="Vector_214" opacity="0.45" d="M88.3821 44.7115L92.4045 47.8014L87.2964 51.3924L93.6293 47.7318L88.3821 44.7115Z" fill="var(--fill-0, #F5F5F5)"/>
<path id="Vector_215" opacity="0.45" d="M77.6916 43.5981C74.5601 45.1742 70.943 45.488 67.5868 44.4749L61.574 49.249L67.1414 43.6816C68.817 44.3704 70.6133 44.7179 72.425 44.7035C74.2366 44.6892 76.0271 44.3133 77.6916 43.5981Z" fill="var(--fill-0, #F5F5F5)"/>
<path id="Vector_216" opacity="0.45" d="M58.8176 34.9686C56.4097 35.9011 52.9718 35.748 51.2181 34.2448C49.4643 32.7416 50.5639 30.974 53.2919 29.5125C50.3273 31.4611 50.6335 33.187 52.6656 34.3562C53.5866 34.8924 54.6217 35.2024 55.6859 35.2608C56.7381 35.3001 57.7908 35.2019 58.8176 34.9686Z" fill="var(--fill-0, #F5F5F5)"/>
<path id="Vector_217" opacity="0.45" d="M44.6061 27.4248C44.1607 27.8146 40.347 31.3777 42.0312 34.9269C43.8127 38.7266 49.408 41.1485 53.9176 41.6495C50.836 41.5458 47.8282 40.6803 45.1628 39.1303C39.1779 35.6646 39.2892 31.4612 44.6061 27.4248Z" fill="var(--fill-0, #F5F5F5)"/>
</g>
</svg>
