<svg preserveAspectRatio="none" width="100%" height="100%" overflow="visible" style="display: block;" viewBox="0 0 181.177 278.175" fill="none" xmlns="http://www.w3.org/2000/svg">
<g id="Bottom">
<path id="Vector" d="M46.619 140.953C46.619 140.953 61.1228 163.139 63.8371 172.464C66.621 182.207 69.8641 184.907 70.6575 195.986C70.8385 198.394 70.6576 203.349 70.8107 205.312C70.8026 205.74 70.889 206.164 71.0637 206.555C71.2384 206.945 71.4972 207.292 71.8216 207.572C72.1459 207.851 72.5279 208.055 72.9402 208.17C73.3526 208.284 73.7851 208.306 74.207 208.235C78.7864 208.137 84.1593 198.492 85.5651 188.985C86.971 179.479 87.2633 158.713 86.957 156.277C86.5696 153.857 85.5356 151.588 83.9644 149.707C83.1424 148.578 82.2098 147.534 81.1805 146.59C78.7308 142.623 76.1417 134.634 73.5945 129.275L46.619 140.953Z" fill="var(--fill-0, #C8856A)"/>
<path id="Vector_2" d="M97.6469 163.334C98.4501 164.201 99.0997 165.199 99.5678 166.284C100.138 168.233 97.118 175.707 95.8931 178.463C94.1273 182.197 93.8925 186.473 95.2389 190.377C96.9649 196.613 95.5451 203.294 92.6082 209.404C88.4557 217.471 81.945 224.084 73.9424 228.361C64.0876 233.928 59.1462 229.572 59.1462 229.572C59.1462 229.572 54.6921 225.299 56.1814 222.807C57.6708 220.316 97.6469 163.334 97.6469 163.334Z" fill="var(--fill-0, #263238)"/>
<path id="Vector_3" d="M81.1806 146.631C81.5007 146.548 82.0435 146.325 83.1153 147.119C83.5051 147.425 86.5395 151.642 88.683 153.73C90.8266 155.818 96.1577 159.534 97.6192 163.389C96.965 171.615 90.8405 178.616 91.4391 186.118C92.0376 193.62 93.8749 202.069 84.549 213.496C75.2231 224.923 63.6701 228.472 58.9515 227.066C54.2328 225.661 53.5508 221.151 57.4482 211.436C61.6239 201.108 61.276 180.815 61.276 180.815C61.19 177.975 60.9157 175.143 60.4547 172.339C60.0511 169.653 58.5896 166.994 57.7683 164.378C57.2455 163.181 57.1282 161.847 57.4342 160.578C58.0132 159.403 58.9355 158.432 60.0789 157.794C61.7532 156.516 63.5646 155.428 65.4796 154.551C67.4162 153.657 69.5951 153.432 71.6737 153.911C73.0897 154.486 74.5346 154.988 76.0026 155.414C77.0142 155.571 78.0497 155.447 78.9951 155.054C79.9406 154.661 80.7593 154.015 81.3615 153.187C81.9794 152.443 82.346 151.522 82.4085 150.557C82.471 149.592 82.2263 148.632 81.7095 147.815C81.5534 147.411 81.3769 147.017 81.1806 146.631Z" fill="var(--fill-0, #37474F)"/>
<path id="Vector_4" d="M89.6435 204.853C89.6435 204.853 83.1711 197.058 71.0752 199.814C58.9794 202.57 56.2095 209.557 55.1933 213.482C53.9824 218.186 53.4952 226.343 58.9933 227.4C64.9508 228.556 71.0335 226.426 79.733 219.411C88.4326 212.396 89.6435 204.853 89.6435 204.853Z" fill="var(--fill-0, #FAFAFA)"/>
<path id="Vector_5" d="M79.0229 169.68C78.8692 169.8 78.6905 169.883 78.5001 169.924C78.3098 169.965 78.1126 169.963 77.9233 169.917C75.8354 169.402 65.4656 169.597 60.9279 176.111C60.051 175.693 59.9535 174.594 60.5521 172.868C66.3146 167.175 76.1138 166.952 78.6471 167.565C78.8031 167.6 78.9502 167.667 79.0786 167.762C79.2071 167.857 79.3141 167.978 79.3929 168.117C79.4716 168.256 79.5202 168.41 79.5356 168.569C79.551 168.728 79.5329 168.889 79.4823 169.04C79.4039 169.298 79.2424 169.523 79.0229 169.68Z" fill="var(--fill-0, #FAFAFA)"/>
<path id="Vector_6" d="M61.3038 183.293C61.0162 182.773 60.8596 182.19 60.8475 181.596C60.8354 181.002 60.9681 180.414 61.2342 179.883C67.0663 174.872 76.1695 174.691 78.5915 175.276C78.7454 175.314 78.8898 175.383 79.0161 175.479C79.1423 175.575 79.2477 175.696 79.3258 175.834C79.4039 175.972 79.4532 176.125 79.4705 176.282C79.4878 176.44 79.4729 176.599 79.4267 176.751C79.3467 177.005 79.1913 177.228 78.9812 177.391C78.8275 177.511 78.6488 177.594 78.4585 177.635C78.2681 177.676 78.0709 177.674 77.8816 177.628C75.8494 177.127 65.9807 177.322 61.3038 183.293Z" fill="var(--fill-0, #FAFAFA)"/>
<path id="Vector_7" d="M60.1071 200.399C59.7374 198.838 59.9297 197.197 60.65 195.764C66.4404 190.308 75.9612 190.085 78.5084 190.697C78.8027 190.773 79.0553 190.961 79.2117 191.222C79.368 191.483 79.4154 191.794 79.3436 192.089C79.2494 192.411 79.0344 192.683 78.7437 192.849C78.453 193.015 78.1093 193.062 77.7846 192.98C75.5854 192.563 64.1716 192.757 60.1071 200.399Z" fill="var(--fill-0, #FAFAFA)"/>
<path id="Vector_8" d="M78.94 185.102C78.7863 185.222 78.6076 185.305 78.4172 185.346C78.2268 185.387 78.0296 185.385 77.8404 185.339C75.7664 184.838 65.6193 185.033 60.9981 191.324C60.7387 190.73 60.6213 190.083 60.6551 189.436C60.6889 188.788 60.8731 188.158 61.1929 187.594C67.0251 182.569 76.1283 182.388 78.5503 182.987C78.7041 183.025 78.8486 183.094 78.9748 183.19C79.1011 183.286 79.2065 183.407 79.2846 183.545C79.3627 183.683 79.4119 183.836 79.4293 183.993C79.4466 184.151 79.4317 184.31 79.3854 184.462C79.301 184.713 79.1465 184.936 78.94 185.102Z" fill="var(--fill-0, #FAFAFA)"/>
<path id="Vector_9" d="M41.2045 176.695C41.2045 176.695 41.5942 199.633 41.7751 217.365C41.8865 230.24 32.5884 236.684 25.1416 245.689C23.5131 247.652 19.7966 251.257 18.4603 252.899C18.1438 253.212 17.9017 253.592 17.752 254.011C17.6023 254.43 17.549 254.877 17.5957 255.32C17.6425 255.762 17.7883 256.189 18.0224 256.567C18.2564 256.946 18.5726 257.266 18.9475 257.506C22.5248 260.652 37.1957 261.041 45.1854 254.722C53.175 248.403 60.1904 235.431 64.909 230.449C66.6759 228.599 68.3483 226.662 69.9199 224.645C71.4371 222.696 70.936 220.9 71.0056 218.757C71.0056 217.727 70.7829 214.902 70.7829 214.902C71.7294 209.835 74.5133 194.302 75.947 189.347L41.2045 176.695Z" fill="var(--fill-0, #C8856A)"/>
<path id="Vector_10" d="M74.4855 237.547C74.6168 238.772 74.5368 240.01 74.2489 241.208C73.4973 243.184 66.2314 247.638 63.4615 249.197C60.6915 250.756 57.6989 252.927 55.3883 258.814C52.9246 265.106 47.51 269.852 41.1767 273.206C32.5964 277.443 22.9469 279.023 13.4634 277.744C1.63205 276.352 0.198365 269.713 0.198365 269.713C0.198365 269.713 -0.873392 263.407 1.96614 262.224C4.80567 261.041 74.4855 237.547 74.4855 237.547Z" fill="var(--fill-0, #263238)"/>
<path id="Vector_11" d="M71.1447 213.44C71.4788 213.565 72.0773 213.719 72.5367 215.027C72.6898 215.528 72.5366 220.928 73.0934 224.018C73.6502 227.317 75.752 233.455 74.555 237.589C68.8063 244.103 59.2437 246.246 54.9984 252.899C50.753 259.552 46.9948 267.792 31.9202 271.703C16.8456 275.614 4.88897 271.578 1.75713 267.527C-1.3747 263.477 0.908077 259.246 10.3453 253.47C20.3533 247.318 32.8528 230.073 32.8667 230.073C34.575 227.63 36.1277 225.083 37.5158 222.445C38.9077 219.926 39.3113 216.878 40.2996 214.094C40.5866 212.762 41.2941 211.557 42.3179 210.657C43.5476 210.006 44.944 209.74 46.3267 209.891C48.5449 209.836 50.7623 210.028 52.9383 210.462C55.1224 210.895 57.1032 212.034 58.5756 213.705C59.4019 215.055 60.2986 216.36 61.262 217.616C62.0334 218.365 62.994 218.89 64.041 219.135C65.0879 219.38 66.1818 219.336 67.2056 219.008C68.1946 218.767 69.0824 218.221 69.7424 217.446C70.4023 216.671 70.8005 215.707 70.8803 214.693C70.9917 214.281 71.08 213.862 71.1447 213.44Z" fill="var(--fill-0, #37474F)"/>
<path id="Vector_12" d="M41.4967 267.513C41.4967 267.513 40.94 257.005 28.9694 251.925C16.9988 246.845 10.3036 251.02 6.96301 253.72C2.98209 256.949 -2.58561 263.463 1.3953 267.764C5.69635 272.385 12.1688 274.306 23.9445 273.721C35.7202 273.137 41.4967 267.513 41.4967 267.513Z" fill="var(--fill-0, #FAFAFA)"/>
<path id="Vector_13" d="M54.7617 231.534C54.5571 231.54 54.3537 231.501 54.166 231.419C53.9784 231.337 53.8111 231.215 53.676 231.061C52.2841 229.349 43.3758 223.183 35.4279 225.883C34.9407 224.993 35.5532 224.004 37.1539 222.933C45.6168 221.652 54.0379 227.456 55.7639 229.516C55.8735 229.641 55.9552 229.787 56.0037 229.946C56.0523 230.105 56.0665 230.272 56.0454 230.436C56.0243 230.601 55.9685 230.759 55.8816 230.9C55.7946 231.042 55.6786 231.163 55.5412 231.256C55.3156 231.426 55.0438 231.523 54.7617 231.534Z" fill="var(--fill-0, #FAFAFA)"/>
<path id="Vector_14" d="M31.1825 232.119C31.273 231.501 31.5113 230.913 31.8772 230.407C32.2431 229.901 32.7258 229.49 33.2843 229.21C41.3575 228.556 49.1801 233.97 50.8365 235.946C50.9446 236.071 51.0255 236.217 51.0739 236.375C51.1222 236.533 51.1371 236.699 51.1174 236.863C51.0978 237.026 51.0441 237.184 50.9597 237.326C50.8754 237.468 50.7623 237.591 50.6277 237.686C50.3457 237.894 49.9956 237.989 49.6473 237.95C49.2989 237.911 48.978 237.742 48.7486 237.477C47.3845 235.821 38.9634 229.975 31.1825 232.119Z" fill="var(--fill-0, #FAFAFA)"/>
<path id="Vector_15" d="M19.4207 245.773C20.0901 244.222 21.2889 242.959 22.8031 242.21C31.1546 241.152 39.3531 246.817 41.0652 248.849C41.1733 248.973 41.2541 249.119 41.3025 249.277C41.3509 249.435 41.3657 249.601 41.3461 249.765C41.3264 249.929 41.2727 250.087 41.1883 250.229C41.104 250.37 40.9909 250.493 40.8564 250.589C40.6308 250.758 40.3589 250.855 40.0769 250.867C39.8723 250.873 39.6688 250.833 39.4812 250.752C39.2935 250.67 39.1262 250.548 38.9912 250.394C37.46 248.584 27.6609 241.82 19.4207 245.773Z" fill="var(--fill-0, #FAFAFA)"/>
<path id="Vector_16" d="M44.9766 244.409C44.7719 244.415 44.5685 244.375 44.3808 244.293C44.1932 244.212 44.0259 244.089 43.8909 243.936C42.4989 242.251 33.7716 236.211 25.8932 238.688C26.0582 238.035 26.3694 237.427 26.8034 236.911C27.2374 236.395 27.7829 235.984 28.3987 235.71C36.4858 235.042 44.2945 240.456 45.9509 242.432C46.0593 242.558 46.1404 242.705 46.1889 242.864C46.2375 243.023 46.2524 243.19 46.2327 243.355C46.2131 243.52 46.1593 243.679 46.0748 243.822C45.9904 243.965 45.8771 244.089 45.7421 244.186C45.5119 244.329 45.2472 244.406 44.9766 244.409Z" fill="var(--fill-0, #FAFAFA)"/>
<path id="Vector_17" d="M83.1294 6.10352e-05C83.1294 6.10352e-05 37.9613 28.1015 17.2633 52.5981C9.84436 61.3667 5.36234 68.9105 15.1198 89.7187C22.6222 105.725 34.9269 123.123 46.5913 143.736L137.206 21.2536L83.1294 6.10352e-05Z" fill="var(--fill-0, #167287)"/>
<path id="Vector_18" opacity="0.4" d="M83.1294 6.10352e-05C83.1294 6.10352e-05 37.9613 28.1015 17.2633 52.5981C9.84436 61.3667 5.36234 68.9105 15.1198 89.7187C22.6222 105.725 34.9269 123.123 46.5913 143.736L137.206 21.2536L83.1294 6.10352e-05Z" fill="var(--fill-0, white)"/>
<path id="Vector_19" opacity="0.5" d="M44.9765 140.953C59.3273 126.116 102.171 43.6346 102.171 43.6346L99.9577 43.4258C87.7505 39.0276 81.8626 23.2719 81.8626 23.2719C80.8465 29.7857 84.0897 38.7631 88.3908 43.4119C82.0157 48.7566 67.6093 60.8935 45.5055 79.8644C41.6638 83.1631 33.8689 89.4543 35.1217 100.742C36.7502 115.482 38.1422 129.929 38.1422 129.929L44.9765 140.953Z" fill="var(--fill-0, #167287)"/>
<path id="Vector_20" d="M83.0601 6.10352e-05L181.024 8.12847C181.803 19.7643 179.743 39.3198 171.823 53.0156C166.089 62.9534 159.421 69.2028 135.522 83.859C113.251 97.5269 93.2768 109.01 88.1963 112.211C84.3546 114.605 85.6908 123.485 85.1758 134.063C84.6608 145.198 83.8952 151.364 79.4132 175.276C77.2279 186.898 74.8616 196.961 74.8616 196.961C74.8616 196.961 55.7644 200.385 40.9404 193.662C40.9404 193.662 39.4092 135.677 39.2144 121.439C39.0473 109.274 37.4884 98.0419 46.174 88.3825C53.6069 80.101 99.9859 43.4675 99.9859 43.4675C99.9859 43.4675 76.2118 22.2557 83.0601 6.10352e-05Z" fill="var(--fill-0, #167287)"/>
<path id="Vector_21" opacity="0.4" d="M83.0601 6.10352e-05L181.024 8.12847C181.803 19.7643 179.743 39.3198 171.823 53.0156C166.089 62.9534 159.421 69.2028 135.522 83.859C113.251 97.5269 93.2768 109.01 88.1963 112.211C84.3546 114.605 85.6908 123.485 85.1758 134.063C84.6608 145.198 83.8952 151.364 79.4132 175.276C77.2279 186.898 74.8616 196.961 74.8616 196.961C74.8616 196.961 55.7644 200.385 40.9404 193.662C40.9404 193.662 39.4092 135.677 39.2144 121.439C39.0473 109.274 37.4884 98.0419 46.174 88.3825C53.6069 80.101 99.9859 43.4675 99.9859 43.4675C99.9859 43.4675 76.2118 22.2557 83.0601 6.10352e-05Z" fill="var(--fill-0, white)"/>
<path id="Vector_22" opacity="0.5" d="M169.498 7.16819L168.107 7.05684C168.635 23.0492 167.244 35.3114 156.526 47.8241C148.87 43.3702 150.081 38.6796 152.266 30.3146C152.921 27.7815 153.658 24.9282 154.243 21.713C155.248 16.5541 155.756 11.3106 155.76 6.0547L154.368 5.92944C154.407 11.1491 153.941 16.3604 152.976 21.4903C152.406 24.6498 151.668 27.4753 151.014 29.9806C148.828 38.3317 147.395 43.8991 155.677 48.868C152.961 51.8765 150.015 54.6687 146.866 57.2191C130.524 70.5669 107.265 86.5314 93.36 96.0656C88.5022 99.3921 84.6605 102.023 82.6979 103.47C74.6665 109.358 74.6386 112.531 75.8774 126.603C76.9492 138.907 71.2423 180.607 68.0409 197.74L69.4328 197.643C72.676 180.175 78.3133 138.781 77.2276 126.477C75.9888 112.253 76.2811 109.859 83.5052 104.556C85.4539 103.164 89.2956 100.506 94.1395 97.1791C108.059 87.631 131.346 71.6526 147.729 58.2073C167.759 41.8113 170.153 27.4335 169.498 7.16819Z" fill="var(--fill-0, #167287)"/>
</g>
</svg>
