<svg preserveAspectRatio="none" width="100%" height="100%" overflow="visible" style="display: block;" viewBox="0 0 284.173 361.612" fill="none" xmlns="http://www.w3.org/2000/svg">
<g id="Window">
<g id="window">
<path id="Vector" d="M22.6301 360.844C21.9304 361.256 21.1438 361.499 20.3334 361.553C19.1598 361.713 17.9649 361.545 16.8814 361.066C16.036 360.594 15.3134 359.93 14.7718 359.127C14.2302 358.325 13.8848 357.406 13.7635 356.445L2.23833 187.67L8.04267 190.551L19.5539 359.313C19.6374 360.565 20.3612 361.275 21.3356 361.247C21.7923 361.214 22.2351 361.075 22.6301 360.844Z" fill="var(--fill-0, #E6E6E6)"/>
<path id="Vector_2" d="M21.1549 360.593C20.3058 360.593 20.1527 359.688 20.1249 359.299L7.41656 172.958L270.686 20.968L283.338 206.585C283.339 207.435 283.127 208.271 282.721 209.018C282.315 209.764 281.728 210.397 281.014 210.858L22.1153 360.315C21.8243 360.488 21.4936 360.584 21.1549 360.593Z" fill="var(--fill-0, #FAFAFA)"/>
<path id="Vector_3" d="M270.184 22.1094L271.256 37.8095L282.767 206.585C282.761 207.32 282.573 208.043 282.221 208.688C281.869 209.334 281.363 209.883 280.749 210.287L21.8506 359.688C21.6697 359.815 21.4584 359.892 21.2381 359.911C21.0015 359.911 20.9598 359.243 20.9598 359.243L8.26538 173.32L270.184 22.1094ZM271.437 19.8407L6.81778 172.596L19.5539 359.313C19.6374 360.565 20.3612 361.275 21.3356 361.247C21.7938 361.222 22.2384 361.083 22.6301 360.844L281.529 211.387C282.344 210.87 283.014 210.154 283.477 209.307C283.94 208.46 284.179 207.509 284.173 206.543L272.662 37.7816L271.437 19.8407Z" fill="var(--fill-0, #EBEBEB)"/>
<path id="Vector_4" d="M270.365 4.64171C270.059 3.24986 268.778 2.72095 267.345 3.55606L8.44616 153.013C7.6279 153.524 6.9564 154.238 6.49746 155.087L0.651372 152.303C1.10843 151.445 1.78589 150.724 2.614 150.215L261.513 0.75845C262.398 0.300874 263.373 0.0437224 264.369 0.005236C265.365 -0.0332504 266.357 0.147867 267.275 0.535749C268.051 0.963437 268.727 1.5504 269.26 2.25806C269.792 2.96572 270.169 3.77807 270.365 4.64171Z" fill="var(--fill-0, #167287)"/>
<path id="Vector_5" opacity="0.2" d="M270.365 4.64171C270.059 3.24986 268.778 2.72095 267.345 3.55606L8.44616 153.013C7.6279 153.524 6.9564 154.238 6.49746 155.087L0.651372 152.303C1.10843 151.445 1.78589 150.724 2.614 150.215L261.513 0.75845C262.398 0.300874 263.373 0.0437224 264.369 0.005236C265.365 -0.0332504 266.357 0.147867 267.275 0.535749C268.051 0.963437 268.727 1.5504 269.26 2.25806C269.792 2.96572 270.169 3.77807 270.365 4.64171Z" fill="var(--fill-0, white)"/>
<path id="Vector_6" d="M6.49736 155.087C6.00155 155.927 5.76435 156.896 5.81536 157.87L6.81749 172.624L1.01348 169.743L0.0113511 155.003C-0.00205913 154.892 -0.00205913 154.78 0.0113511 154.669C-0.00353442 154.437 -0.00353442 154.205 0.0113511 153.973C0.138664 153.387 0.354559 152.824 0.6516 152.303L6.49736 155.087Z" fill="var(--fill-0, #167287)"/>
<path id="Vector_7" opacity="0.2" d="M6.49736 155.087C6.00155 155.927 5.76435 156.896 5.81536 157.87L6.81749 172.624L1.01348 169.743L0.0113511 155.003C-0.00205913 154.892 -0.00205913 154.78 0.0113511 154.669C-0.00353442 154.437 -0.00353442 154.205 0.0113511 153.973C0.138664 153.387 0.354559 152.824 0.6516 152.303L6.49736 155.087Z" fill="var(--fill-0, black)"/>
<path id="Vector_8" d="M270.421 5.0871L271.437 19.8407L90.4587 124.466C88.8858 125.371 87.5078 124.689 87.3825 122.935L87.0067 117.368C86.8814 115.614 85.5034 114.932 83.9166 115.837L19.6374 152.776C18.2455 153.486 18.2455 155.226 18.0506 157.592L17.3547 163.159C17.3456 164.122 17.0995 165.067 16.6383 165.912C16.177 166.757 15.5147 167.475 14.71 168.003L6.81777 172.554L5.81558 157.87C5.80556 156.904 6.0434 155.952 6.50641 155.104C6.96941 154.256 7.64211 153.541 8.46025 153.027L267.359 3.56998C268.918 2.63744 270.31 3.37513 270.421 5.0871Z" fill="var(--fill-0, #167287)"/>
<path id="Vector_9" d="M262.431 13.1182C263.656 12.4223 264.714 12.9373 264.798 14.2874C264.806 15.029 264.623 15.7603 264.267 16.411C263.911 17.0617 263.394 17.6102 262.765 18.0036C261.555 18.7134 260.497 18.1845 260.399 16.8344C260.398 16.094 260.583 15.3652 260.939 14.7156C261.294 14.066 261.807 13.5165 262.431 13.1182Z" fill="var(--fill-0, white)"/>
<path id="Vector_10" d="M254.511 17.739C255.722 17.0431 256.794 17.572 256.878 18.9221C256.88 19.6627 256.695 20.392 256.34 21.0419C255.985 21.6917 255.471 22.241 254.845 22.6383C253.635 23.3343 252.577 22.8054 252.479 21.4553C252.477 20.7146 252.661 19.9853 253.017 19.3355C253.372 18.6856 253.886 18.1364 254.511 17.739Z" fill="var(--fill-0, white)"/>
<path id="Vector_11" d="M246.591 22.3042C247.802 21.6082 248.86 22.1371 248.957 23.4872C248.957 24.2274 248.771 24.9557 248.416 25.6051C248.061 26.2546 247.548 26.8042 246.925 27.2035C245.7 27.8994 244.642 27.3705 244.559 26.0204C244.554 25.2793 244.737 24.549 245.093 23.8987C245.448 23.2484 245.964 22.6996 246.591 22.3042Z" fill="var(--fill-0, white)"/>
<path id="Vector_12" d="M271.437 19.8407L272.662 37.7816L8.04267 190.551L6.81778 172.596L12.7195 169.186C14.2924 168.267 14.7518 166.917 15.3642 164.342L16.9789 157.62C17.4799 155.282 18.0506 153.681 19.6374 152.776L86.2829 114.389C87.8836 113.47 89.1642 113.345 90.5422 115.252L93.3261 119.427C94.37 120.903 94.8989 121.766 96.4718 120.819L271.437 19.8407Z" fill="var(--fill-0, #E0E0E0)"/>
<path id="Vector_13" d="M6.81766 172.596L8.04249 190.551L2.23848 187.67L1.01366 169.743L6.81766 172.596Z" fill="var(--fill-0, #E0E0E0)"/>
<path id="Vector_14" opacity="0.15" d="M6.81766 172.596L8.04249 190.551L2.23848 187.67L1.01366 169.743L6.81766 172.596Z" fill="var(--fill-0, black)"/>
<path id="Vector_15" opacity="0.2" d="M20.5698 173.612L16.0602 176.201L17.6191 172.986C17.6923 172.872 17.7311 172.739 17.7311 172.603C17.7311 172.467 17.6923 172.335 17.6191 172.22C17.4799 172.067 17.2433 172.22 17.1041 172.457L14.8772 177.036C14.8712 177.092 14.8712 177.148 14.8772 177.203C14.8704 177.282 14.8704 177.361 14.8772 177.44C14.8674 177.504 14.8674 177.57 14.8772 177.635C14.8772 177.635 14.8772 177.704 14.9607 177.718L17.6191 179.472C17.6576 179.493 17.7006 179.503 17.7444 179.503C17.7881 179.503 17.8311 179.493 17.8696 179.472C17.9886 179.383 18.0802 179.262 18.1341 179.124C18.1928 179.005 18.2149 178.872 18.1976 178.74C18.1802 178.609 18.1242 178.486 18.0367 178.386L16.1298 177.356L20.6394 174.754C20.7498 174.664 20.8366 174.548 20.8923 174.417C20.9481 174.286 20.9712 174.144 20.9595 174.002C20.9456 173.64 20.7647 173.487 20.5698 173.612Z" fill="var(--fill-0, black)"/>
<path id="Vector_16" opacity="0.2" d="M24.3144 171.441L28.81 168.838L26.9589 167.613C26.7918 167.502 26.764 167.182 26.8753 166.876C26.9867 166.569 27.2233 166.43 27.3764 166.528L30.0349 168.281C30.0412 168.313 30.0412 168.347 30.0349 168.379C30.0492 168.443 30.0492 168.509 30.0349 168.574C30.0492 168.652 30.0492 168.732 30.0349 168.81C30.0408 168.866 30.0408 168.922 30.0349 168.977L27.8079 173.556C27.7609 173.668 27.6838 173.764 27.5852 173.835C27.5426 173.865 27.4915 173.882 27.4391 173.882C27.3866 173.882 27.3355 173.865 27.2929 173.835C27.2231 173.717 27.1863 173.582 27.1863 173.445C27.1863 173.308 27.2231 173.173 27.2929 173.055L28.8657 169.84L24.3561 172.443C24.1612 172.554 23.9803 172.443 23.9525 172.109C23.9557 171.977 23.9901 171.847 24.053 171.731C24.1159 171.615 24.2055 171.516 24.3144 171.441Z" fill="var(--fill-0, black)"/>
<path id="Vector_17" opacity="0.2" d="M38.8042 158.636C38.8042 158.371 38.5259 158.413 38.4145 158.636L37.8717 160.111C36.7721 160.014 35.5195 161.03 34.74 162.811C33.7379 165.108 33.9189 167.794 35.1576 168.796C35.4513 169.038 35.8166 169.176 36.1966 169.188C36.5767 169.201 36.9502 169.088 37.2593 168.866C38.1394 168.291 38.8162 167.453 39.194 166.472C39.2655 166.357 39.3035 166.225 39.3035 166.089C39.3035 165.954 39.2655 165.821 39.194 165.707C39.0269 165.581 38.8042 165.706 38.679 165.999C37.9274 167.711 36.5773 168.504 35.6587 167.753C34.74 167.001 34.6009 164.969 35.3525 163.271C35.5043 162.78 35.7799 162.336 36.1529 161.983C36.5259 161.629 36.9836 161.378 37.482 161.253L37.0783 162.366C36.9809 162.644 37.0784 162.909 37.3011 162.784L39.1244 161.601C39.193 161.538 39.2454 161.46 39.2769 161.372C39.3084 161.285 39.3182 161.191 39.3053 161.099L38.8042 158.636Z" fill="var(--fill-0, black)"/>
<path id="Vector_18" opacity="0.2" d="M86.4081 121.682L87.8835 118.3C87.9842 118.145 88.0377 117.963 88.0377 117.778C88.0377 117.593 87.9842 117.412 87.8835 117.256C87.6747 117.089 87.3546 117.256 87.1737 117.66L85.6983 121.042L83.9028 119.567C83.6801 119.386 83.3739 119.567 83.193 119.97C83.1057 120.133 83.066 120.318 83.0783 120.502C83.0906 120.687 83.1545 120.864 83.2626 121.014L85.072 122.49L83.527 125.858C83.4398 126.021 83.4 126.205 83.4123 126.39C83.4246 126.574 83.4885 126.752 83.5966 126.902C83.6499 126.938 83.713 126.958 83.7776 126.958C83.8421 126.958 83.9052 126.938 83.9585 126.902C84.1152 126.802 84.2368 126.656 84.3065 126.484L85.7818 123.102L87.5912 124.577C87.6416 124.62 87.7058 124.644 87.7722 124.644C87.8385 124.644 87.9027 124.62 87.9531 124.577C88.1086 124.48 88.2265 124.333 88.2871 124.16C88.3765 124 88.4175 123.817 88.4051 123.635C88.3928 123.452 88.3276 123.276 88.2176 123.13L86.4081 121.682Z" fill="var(--fill-0, black)"/>
<path id="Vector_19" d="M45.2908 162.617L44.915 157.049C44.905 156.083 45.1428 155.131 45.6058 154.283C46.0688 153.435 46.7415 152.72 47.5597 152.206L252.632 33.8984C254.219 32.9798 255.597 33.6757 255.722 35.4295L256.098 40.9969C256.105 41.964 255.865 42.9169 255.4 43.7648C254.934 44.6126 254.259 45.3272 253.44 45.8405L48.3809 164.148C46.7941 165.066 45.4161 164.37 45.2908 162.617Z" fill="var(--fill-0, #FAFAFA)"/>
<path id="Vector_20" d="M249.431 46.3416C249.339 46.3562 249.245 46.3562 249.152 46.3416C248.989 46.2805 248.851 46.1664 248.76 46.0175C248.669 45.8686 248.631 45.6936 248.651 45.5204L248.791 43.2517L247.594 42.5001C247.491 42.4354 247.405 42.3476 247.342 42.2437C247.279 42.1398 247.241 42.0226 247.232 41.9016C247.218 41.7156 247.249 41.5291 247.322 41.3574C247.395 41.1857 247.507 41.0335 247.649 40.9134L249.319 39.6329C249.355 39.5993 249.379 39.5555 249.389 39.5076L250.001 37.1136C250.042 36.9115 250.144 36.7269 250.294 36.585C250.443 36.443 250.633 36.3505 250.837 36.3203C250.977 36.308 251.118 36.3354 251.243 36.3994C251.369 36.4634 251.474 36.5614 251.546 36.6821L252.298 37.9626L253.69 37.4059C253.826 37.3553 253.973 37.3428 254.115 37.3698C254.257 37.3968 254.389 37.4622 254.497 37.559C254.632 37.7087 254.715 37.8973 254.735 38.0975C254.755 38.2977 254.711 38.4992 254.609 38.6725L253.495 40.8994C253.495 40.8994 253.495 41.0247 253.495 41.0386L253.926 43.029C253.957 43.2083 253.945 43.3923 253.892 43.5663C253.839 43.7402 253.746 43.8994 253.62 44.0311C253.533 44.1232 253.427 44.1948 253.309 44.2405C253.191 44.2863 253.064 44.3051 252.938 44.2956L251.546 44.1564L250.155 46.0214C250.068 46.1287 249.957 46.2137 249.832 46.2694C249.706 46.3251 249.568 46.3498 249.431 46.3416ZM248.262 41.7485L249.459 42.5001C249.584 42.5782 249.685 42.6903 249.749 42.8234C249.813 42.9564 249.838 43.105 249.821 43.2517L249.737 44.7549L250.683 43.5161C250.768 43.3941 250.884 43.2964 251.018 43.2329C251.152 43.1694 251.301 43.1423 251.449 43.1542L252.841 43.2934C252.85 43.2428 252.85 43.1909 252.841 43.1403L252.409 41.15C252.358 40.9092 252.393 40.6582 252.507 40.4401L253.481 38.4776L252.382 38.9091C252.214 38.9802 252.026 38.9868 251.854 38.9277C251.682 38.8686 251.538 38.748 251.449 38.589L250.864 37.5868L250.308 39.7164C250.246 39.9567 250.11 40.1712 249.918 40.3288L248.248 41.6232C248.248 41.6232 248.276 41.7067 248.262 41.7485Z" fill="var(--fill-0, #E0E0E0)"/>
<g id="Group" opacity="0.2">
<path id="Vector_21" d="M259.077 33.0494C258.899 33.0561 258.722 33.0191 258.562 32.9414C258.402 32.8637 258.263 32.7478 258.158 32.604C258.083 32.5016 258.031 32.3843 258.005 32.26C257.979 32.1358 257.98 32.0074 258.008 31.8835C258.035 31.7596 258.089 31.6431 258.166 31.5417C258.242 31.4403 258.339 31.3564 258.451 31.2956L266.509 26.619C266.742 26.5008 267.009 26.468 267.263 26.5266C267.518 26.5851 267.744 26.7311 267.901 26.9392C267.974 27.0423 268.025 27.1596 268.049 27.2834C268.074 27.4072 268.073 27.5349 268.045 27.6581C268.018 27.7813 267.965 27.8974 267.889 27.9989C267.814 28.1005 267.719 28.1851 267.609 28.2475L259.536 32.9102C259.398 32.9953 259.239 33.0432 259.077 33.0494Z" fill="var(--fill-0, black)"/>
<path id="Vector_22" d="M259.383 37.5451C259.203 37.5468 259.024 37.5061 258.862 37.4263C258.7 37.3465 258.559 37.2299 258.451 37.0858C258.363 36.9809 258.3 36.8573 258.266 36.7244C258.233 36.5916 258.231 36.4529 258.259 36.3189C258.287 36.1849 258.345 36.059 258.429 35.9508C258.513 35.8425 258.62 35.7547 258.743 35.694L266.816 31.0313C267.048 30.913 267.315 30.8803 267.57 30.9388C267.824 30.9973 268.05 31.1434 268.207 31.3514C268.281 31.4557 268.331 31.574 268.356 31.6989C268.381 31.8238 268.38 31.9525 268.352 32.0768C268.325 32.2012 268.272 32.3184 268.196 32.4212C268.121 32.5239 268.025 32.6099 267.915 32.6737L259.842 37.3364C259.705 37.4357 259.549 37.5067 259.383 37.5451Z" fill="var(--fill-0, black)"/>
<path id="Vector_23" d="M259.689 42.0269C259.508 42.032 259.329 41.9928 259.166 41.9128C259.004 41.8328 258.863 41.7143 258.757 41.5676C258.682 41.4652 258.63 41.348 258.604 41.2237C258.578 41.0994 258.579 40.9711 258.606 40.8472C258.634 40.7233 258.688 40.6067 258.764 40.5053C258.84 40.404 258.938 40.3201 259.049 40.2593L267.122 35.5966C267.354 35.4755 267.622 35.4413 267.877 35.4999C268.132 35.5586 268.358 35.7064 268.514 35.9167C268.587 36.0199 268.637 36.1372 268.662 36.261C268.686 36.3848 268.685 36.5124 268.657 36.6357C268.63 36.7589 268.577 36.875 268.502 36.9765C268.427 37.078 268.331 37.1627 268.221 37.2251L260.149 41.8878C260.008 41.9678 259.851 42.0154 259.689 42.0269Z" fill="var(--fill-0, black)"/>
</g>
</g>
<path id="Vector_24" d="M18.7881 195.882L263.433 54.6369L273.65 204.4L29.0049 345.631L18.7881 195.882Z" fill="var(--fill-0, #EBEBEB)"/>
<path id="Vector_25" d="M126.162 184.315C126.672 184.144 127.216 184.096 127.748 184.176C128.19 184.244 128.604 184.432 128.945 184.719C129.279 184.988 129.546 185.331 129.725 185.721C129.906 186.104 130.028 186.512 130.087 186.932C130.11 187.122 130.082 187.315 130.006 187.491C129.93 187.667 129.809 187.82 129.655 187.934L128.389 188.658C128.325 188.708 128.249 188.742 128.169 188.756C128.089 188.771 128.007 188.766 127.929 188.741C127.801 188.669 127.695 188.563 127.623 188.435C127.411 188.109 127.091 187.867 126.718 187.753C126.13 187.685 125.537 187.844 125.062 188.199C124.749 188.387 124.455 188.606 124.185 188.853C123.919 189.111 123.686 189.401 123.489 189.716C123.289 190.011 123.134 190.335 123.03 190.676C122.932 191.001 122.894 191.34 122.919 191.678C122.914 191.991 123.007 192.297 123.183 192.555C123.27 192.649 123.376 192.725 123.493 192.777C123.61 192.83 123.737 192.858 123.865 192.861C124.259 192.868 124.653 192.821 125.034 192.722C125.494 192.611 126.078 192.485 126.746 192.305C127.358 192.135 127.991 192.055 128.625 192.068C129.088 192.078 129.538 192.223 129.92 192.485C130.281 192.768 130.552 193.15 130.699 193.585C130.899 194.173 131.011 194.788 131.033 195.408C131.084 196.107 131.037 196.81 130.894 197.496C130.76 198.213 130.536 198.91 130.226 199.57C129.917 200.253 129.529 200.898 129.071 201.491C128.592 202.094 128.046 202.641 127.442 203.119L127.567 204.915C127.575 205.12 127.537 205.324 127.456 205.513C127.396 205.679 127.284 205.821 127.136 205.917L125.674 206.752C125.625 206.791 125.564 206.813 125.5 206.813C125.437 206.813 125.376 206.791 125.327 206.752C125.268 206.7 125.221 206.635 125.19 206.563C125.159 206.491 125.144 206.413 125.146 206.334L125.02 204.525C124.519 204.7 123.992 204.784 123.461 204.776C123.002 204.765 122.553 204.64 122.153 204.414C121.755 204.175 121.428 203.834 121.207 203.425C120.932 202.923 120.766 202.368 120.719 201.797C120.697 201.607 120.724 201.414 120.8 201.238C120.876 201.062 120.997 200.909 121.151 200.795L122.404 200.071C122.473 200.021 122.552 199.985 122.636 199.966C122.72 199.947 122.806 199.945 122.891 199.96C123.024 200.027 123.128 200.141 123.183 200.28C123.283 200.465 123.404 200.638 123.545 200.795C123.674 200.961 123.855 201.079 124.06 201.129C124.32 201.199 124.593 201.199 124.853 201.129C125.263 201.032 125.653 200.868 126.008 200.642C126.369 200.431 126.713 200.194 127.038 199.932C127.36 199.664 127.646 199.355 127.888 199.013C128.123 198.697 128.315 198.351 128.458 197.983C128.587 197.608 128.639 197.21 128.611 196.814C128.619 196.515 128.509 196.225 128.305 196.007C128.068 195.846 127.782 195.777 127.498 195.812C127.06 195.843 126.626 195.918 126.203 196.035C125.688 196.174 125.09 196.299 124.422 196.424C123.89 196.559 123.341 196.61 122.793 196.578C122.364 196.561 121.95 196.41 121.61 196.146C121.258 195.849 120.998 195.458 120.859 195.019C120.641 194.396 120.519 193.743 120.497 193.084C120.453 192.394 120.5 191.702 120.636 191.024C120.773 190.329 120.988 189.652 121.276 189.006C121.555 188.358 121.91 187.746 122.334 187.183C122.743 186.629 123.21 186.121 123.726 185.665L123.601 183.87C123.59 183.664 123.628 183.459 123.712 183.271C123.772 183.106 123.884 182.964 124.032 182.868L125.424 182.033C125.473 181.993 125.535 181.972 125.598 181.972C125.661 181.972 125.723 181.993 125.772 182.033C125.83 182.085 125.877 182.149 125.908 182.222C125.939 182.294 125.955 182.372 125.953 182.45L126.162 184.315Z" fill="var(--fill-0, #167287)"/>
<path id="Vector_26" d="M137.729 177.662C138.239 177.491 138.783 177.443 139.315 177.523C139.752 177.606 140.162 177.792 140.512 178.066C140.839 178.342 141.105 178.683 141.292 179.068C141.469 179.453 141.591 179.86 141.654 180.279C141.677 180.484 141.643 180.691 141.556 180.878C141.483 181.039 141.367 181.179 141.222 181.281L139.955 182.005C139.761 182.116 139.594 182.158 139.496 182.088C139.367 182.019 139.257 181.918 139.176 181.796C138.978 181.46 138.659 181.211 138.285 181.1C137.695 181.038 137.103 181.202 136.629 181.56C136.309 181.738 136.014 181.958 135.752 182.214C135.479 182.464 135.24 182.749 135.042 183.063C134.855 183.363 134.705 183.686 134.597 184.023C134.499 184.348 134.461 184.687 134.486 185.025C134.482 185.342 134.574 185.652 134.75 185.916C134.836 186.011 134.941 186.086 135.059 186.137C135.177 186.187 135.304 186.211 135.432 186.208C135.826 186.215 136.219 186.168 136.601 186.069L138.313 185.665C138.921 185.5 139.548 185.415 140.178 185.415C140.644 185.412 141.099 185.56 141.475 185.835C141.851 186.111 142.128 186.5 142.266 186.946C142.452 187.533 142.565 188.141 142.6 188.755C142.65 189.459 142.603 190.166 142.461 190.857C142.316 191.571 142.092 192.267 141.793 192.931C141.151 194.309 140.198 195.519 139.009 196.466L139.134 198.276C139.145 198.477 139.106 198.677 139.023 198.86C138.963 199.026 138.851 199.168 138.703 199.264L137.241 200.113C137.192 200.152 137.131 200.174 137.067 200.174C137.004 200.174 136.943 200.152 136.893 200.113C136.835 200.061 136.788 199.996 136.757 199.924C136.726 199.852 136.711 199.774 136.712 199.695L136.587 197.886C136.09 198.074 135.56 198.159 135.028 198.136C134.569 198.129 134.118 198.005 133.72 197.775C133.322 197.541 132.995 197.205 132.774 196.8C132.493 196.295 132.326 195.734 132.286 195.158C132.256 194.953 132.29 194.744 132.384 194.559C132.453 194.399 132.57 194.263 132.718 194.17L133.971 193.446C134.179 193.321 134.332 193.279 134.444 193.335C134.515 193.363 134.579 193.406 134.632 193.461C134.685 193.516 134.725 193.582 134.75 193.655C134.853 193.838 134.974 194.011 135.112 194.17C135.246 194.328 135.426 194.44 135.627 194.49C135.887 194.56 136.16 194.56 136.42 194.49C136.827 194.393 137.217 194.233 137.575 194.017C137.936 193.801 138.28 193.559 138.605 193.293C138.927 193.03 139.212 192.726 139.454 192.388C139.689 192.068 139.876 191.717 140.011 191.344C140.151 190.976 140.208 190.582 140.178 190.189C140.188 189.886 140.078 189.591 139.872 189.368C139.632 189.214 139.348 189.145 139.065 189.173C138.623 189.212 138.186 189.287 137.756 189.396C137.255 189.535 136.657 189.66 135.975 189.799C135.446 189.923 134.902 189.97 134.36 189.938C133.929 189.927 133.514 189.776 133.177 189.507C132.828 189.21 132.564 188.826 132.412 188.394C132.209 187.767 132.092 187.116 132.064 186.459C132.019 185.764 132.066 185.067 132.203 184.385C132.342 183.695 132.557 183.023 132.843 182.381C133.119 181.727 133.474 181.11 133.901 180.543C134.31 179.994 134.777 179.49 135.293 179.04L135.168 177.231C135.15 177.03 135.189 176.827 135.279 176.646C135.339 176.477 135.451 176.331 135.599 176.229L136.991 175.394C137.042 175.353 137.106 175.331 137.172 175.331C137.237 175.331 137.301 175.353 137.353 175.394C137.411 175.446 137.458 175.51 137.489 175.583C137.52 175.655 137.536 175.733 137.534 175.811L137.729 177.662Z" fill="var(--fill-0, #167287)"/>
<path id="Vector_27" d="M149.295 170.981C149.805 170.807 150.351 170.764 150.882 170.856C151.319 170.928 151.731 171.11 152.079 171.385C152.406 171.661 152.672 172.002 152.858 172.387C153.038 172.776 153.16 173.188 153.22 173.612C153.243 173.812 153.21 174.015 153.123 174.197C153.053 174.365 152.931 174.507 152.775 174.6L151.522 175.324C151.327 175.449 151.16 175.477 151.063 175.421C150.93 175.351 150.819 175.245 150.743 175.115C150.544 174.782 150.225 174.538 149.852 174.433C149.56 174.395 149.264 174.415 148.98 174.491C148.695 174.568 148.429 174.699 148.196 174.879C147.879 175.063 147.585 175.282 147.319 175.533C147.048 175.786 146.81 176.071 146.609 176.382C146.416 176.679 146.266 177.003 146.164 177.342C146.066 177.667 146.028 178.006 146.052 178.344C146.046 178.662 146.138 178.973 146.317 179.235C146.402 179.331 146.507 179.406 146.625 179.457C146.743 179.507 146.871 179.532 146.999 179.527C147.388 179.533 147.776 179.491 148.154 179.402L149.88 178.985C150.487 178.816 151.115 178.736 151.745 178.748C152.208 178.743 152.661 178.884 153.039 179.152C153.409 179.435 153.686 179.823 153.833 180.265C154.02 180.856 154.133 181.469 154.167 182.088C154.21 182.787 154.163 183.489 154.028 184.176C153.885 184.891 153.661 185.587 153.36 186.25C153.047 186.93 152.655 187.57 152.19 188.157C151.728 188.77 151.185 189.318 150.576 189.785L150.701 191.595C150.711 191.796 150.673 191.996 150.59 192.179C150.525 192.35 150.408 192.497 150.256 192.597L148.864 193.432C148.813 193.469 148.752 193.489 148.69 193.489C148.627 193.489 148.566 193.469 148.516 193.432C148.457 193.377 148.41 193.31 148.379 193.236C148.348 193.161 148.333 193.081 148.335 193.001L148.21 191.205C147.709 191.379 147.181 191.464 146.651 191.456C146.192 191.441 145.743 191.317 145.342 191.094C144.945 190.85 144.614 190.51 144.382 190.105C144.11 189.597 143.949 189.038 143.909 188.463C143.88 188.258 143.914 188.05 144.006 187.865C144.076 187.704 144.192 187.568 144.34 187.475L145.593 186.751C145.659 186.699 145.735 186.662 145.817 186.643C145.899 186.623 145.984 186.622 146.066 186.64C146.136 186.67 146.199 186.714 146.252 186.769C146.304 186.824 146.345 186.889 146.372 186.96C146.475 187.14 146.592 187.312 146.72 187.475C146.857 187.639 147.042 187.756 147.249 187.809C147.511 187.865 147.781 187.865 148.043 187.809C148.449 187.704 148.839 187.54 149.198 187.322C149.559 187.107 149.904 186.866 150.228 186.598C150.514 186.333 150.766 186.034 150.979 185.707C151.214 185.387 151.401 185.036 151.536 184.663C151.676 184.295 151.733 183.901 151.703 183.508C151.72 183.362 151.702 183.215 151.65 183.078C151.598 182.94 151.514 182.818 151.405 182.72C151.296 182.621 151.165 182.551 151.023 182.514C150.882 182.477 150.733 182.474 150.59 182.506C150.147 182.531 149.708 182.606 149.281 182.729C148.766 182.854 148.182 182.993 147.5 183.118C146.972 183.246 146.428 183.297 145.885 183.272C145.457 183.248 145.045 183.098 144.702 182.84C144.352 182.538 144.088 182.149 143.937 181.713C143.734 181.086 143.617 180.436 143.589 179.778C143.538 179.084 143.585 178.385 143.728 177.704C143.869 177.017 144.079 176.345 144.354 175.7C144.637 175.051 144.997 174.439 145.426 173.877C145.831 173.32 146.298 172.811 146.818 172.359L146.693 170.55C146.675 170.349 146.714 170.146 146.804 169.965C146.864 169.8 146.976 169.658 147.124 169.562L148.516 168.713C148.568 168.674 148.632 168.654 148.697 168.654C148.762 168.654 148.825 168.674 148.878 168.713C148.935 168.769 148.981 168.836 149.012 168.91C149.043 168.984 149.059 169.064 149.059 169.144L149.295 170.981Z" fill="var(--fill-0, #167287)"/>
<path id="Vector_28" d="M160.862 164.315C161.372 164.143 161.916 164.095 162.449 164.175C162.889 164.246 163.302 164.433 163.646 164.718C163.975 164.992 164.241 165.334 164.425 165.72C164.606 166.103 164.728 166.512 164.787 166.931C164.813 167.138 164.774 167.347 164.676 167.53C164.611 167.694 164.494 167.831 164.342 167.92L163.089 168.657C163.022 168.708 162.945 168.741 162.862 168.756C162.78 168.77 162.696 168.765 162.616 168.741C162.49 168.665 162.385 168.56 162.309 168.435C162.106 168.105 161.789 167.863 161.419 167.753C160.83 167.683 160.237 167.842 159.762 168.198C159.449 168.387 159.156 168.606 158.885 168.852C158.615 169.105 158.376 169.39 158.176 169.701C157.98 170.002 157.83 170.33 157.73 170.675C157.632 171 157.595 171.339 157.619 171.678C157.615 171.99 157.707 172.296 157.883 172.554C157.969 172.65 158.074 172.726 158.192 172.776C158.31 172.827 158.437 172.851 158.565 172.847C158.955 172.866 159.344 172.823 159.721 172.721L161.446 172.304C162.053 172.135 162.682 172.055 163.312 172.067C163.774 172.078 164.224 172.223 164.606 172.485C164.976 172.763 165.252 173.146 165.399 173.584C165.586 174.176 165.698 174.788 165.733 175.408C165.777 176.107 165.731 176.808 165.594 177.495C165.454 178.211 165.23 178.907 164.926 179.569C164.617 180.255 164.225 180.901 163.757 181.49C163.287 182.097 162.745 182.644 162.142 183.119L162.254 184.914C162.266 185.118 162.232 185.323 162.156 185.513C162.096 185.682 161.978 185.825 161.822 185.916L160.43 186.751C160.379 186.792 160.315 186.814 160.25 186.814C160.184 186.814 160.12 186.792 160.069 186.751C160.015 186.696 159.972 186.631 159.943 186.559C159.915 186.488 159.9 186.411 159.902 186.334L159.776 184.524C159.275 184.698 158.748 184.783 158.217 184.775C157.758 184.768 157.307 184.643 156.909 184.413C156.507 184.175 156.175 183.834 155.949 183.425C155.679 182.921 155.518 182.366 155.475 181.796C155.445 181.592 155.479 181.382 155.573 181.198C155.637 181.03 155.754 180.889 155.907 180.794L157.16 180.07C157.227 180.021 157.304 179.986 157.385 179.967C157.466 179.948 157.551 179.945 157.633 179.959C157.703 179.989 157.766 180.033 157.818 180.088C157.871 180.143 157.912 180.208 157.939 180.279C158.034 180.464 158.151 180.637 158.287 180.794C158.424 180.958 158.609 181.075 158.816 181.128C159.077 181.185 159.348 181.185 159.609 181.128C160.014 181.031 160.4 180.866 160.751 180.641C161.115 180.43 161.464 180.193 161.794 179.931C162.113 179.66 162.398 179.351 162.643 179.013C162.875 178.696 163.062 178.349 163.2 177.983C163.339 177.609 163.396 177.211 163.367 176.813C163.371 176.664 163.344 176.516 163.289 176.377C163.234 176.239 163.152 176.112 163.047 176.006C162.812 175.842 162.524 175.773 162.24 175.811C161.802 175.845 161.369 175.919 160.945 176.034C160.43 176.159 159.846 176.298 159.164 176.424C158.636 176.551 158.092 176.602 157.549 176.577C157.12 176.56 156.706 176.409 156.366 176.145C156.005 175.853 155.739 175.461 155.601 175.018C155.389 174.394 155.272 173.742 155.253 173.083C155.202 172.394 155.249 171.7 155.392 171.023C155.531 170.331 155.741 169.655 156.018 169.005C156.305 168.361 156.659 167.75 157.076 167.182C157.489 166.632 157.955 166.123 158.468 165.665L158.357 163.855C158.341 163.655 158.375 163.455 158.454 163.271C158.519 163.104 158.636 162.962 158.788 162.867L160.18 162.032C160.23 161.989 160.295 161.965 160.361 161.965C160.427 161.965 160.491 161.989 160.542 162.032C160.596 162.087 160.638 162.152 160.667 162.224C160.696 162.296 160.71 162.372 160.709 162.45L160.862 164.315Z" fill="var(--fill-0, #167287)"/>
</g>
</svg>
