<svg preserveAspectRatio="none" width="100%" height="100%" overflow="visible" style="display: block;" viewBox="0 0 31.178 65.9012" fill="none" xmlns="http://www.w3.org/2000/svg">
<g id="plants">
<path id="Vector" d="M14.6147 12.952C14.9904 11.2993 14.8861 9.57367 14.314 7.97826C13.742 6.38285 12.7259 4.9841 11.3856 3.94675C7.80854 0.968191 3.0345 -0.228795 2.50559 0.0356563C1.97669 0.300108 2.5056 5.26899 6.23575 9.23576C7.25895 10.4503 8.5451 11.416 9.99678 12.0599C11.4485 12.7037 13.0276 13.0088 14.6147 12.952Z" fill="var(--fill-0, #455A64)"/>
<path id="Vector_2" d="M16.73 24.2956C16.3024 22.6655 15.4218 21.1899 14.1901 20.0396C12.9585 18.8892 11.4263 18.1113 9.7708 17.7957C5.23337 16.7658 0.361901 17.8792 0.0278568 18.3525C-0.306187 18.8257 2.394 23.0012 7.5856 24.8245C9.05135 25.4303 10.635 25.6974 12.2183 25.6058C13.8017 25.5142 15.3439 25.0664 16.73 24.2956Z" fill="var(--fill-0, #455A64)"/>
<path id="Vector_3" d="M25.4444 26.0077C26.9794 25.3078 28.2845 24.187 29.2084 22.7754C30.1322 21.3638 30.6369 19.7192 30.6638 18.0324C30.8865 13.3975 29.3694 9.09669 28.8544 8.90183C28.3394 8.70697 24.2196 12.3536 23.0365 17.0998C21.756 22.2775 24.665 24.8942 25.4444 26.0077Z" fill="var(--fill-0, #455A64)"/>
<path id="Vector_4" d="M30.4696 65.1881C31.2968 61.0618 31.4005 56.8232 30.7759 52.6615C30.3692 48.7887 29.6382 44.957 28.5905 41.2065C26.4322 33.3914 23.2347 25.9014 19.0837 18.9369C16.5872 14.3177 13.3578 10.1342 9.52113 6.54948C9.43762 6.47989 9.21491 6.64692 9.2845 6.73043C12.2808 10.4087 14.9101 14.3711 17.135 18.5611C19.2981 22.2041 21.1826 26.0054 22.7723 29.9326C25.446 36.6418 27.2878 43.6533 28.2565 50.8103C28.7525 55.5397 28.9709 60.294 28.9107 65.0489C28.8922 65.2556 28.9566 65.4612 29.0898 65.6205C29.2229 65.7797 29.4138 65.8795 29.6206 65.898C29.8273 65.9164 30.0329 65.852 30.1921 65.7189C30.3514 65.5858 30.4512 65.3948 30.4696 65.1881Z" fill="var(--fill-0, #37474F)"/>
<path id="Vector_5" d="M24.5256 29.6682C25.4844 27.7881 26.2357 25.8093 26.7665 23.7667C27.3458 21.8281 27.5489 19.7967 27.365 17.7818C27.365 17.5034 27.1145 17.8653 27.0867 18.0462C26.7682 19.8142 26.3453 21.5617 25.8201 23.2796C25.2523 25.1082 24.4275 26.8468 23.3704 28.4433C23.2484 28.6586 23.1913 28.9046 23.2061 29.1516C23.2209 29.3986 23.307 29.6361 23.4539 29.8352C23.5283 29.9106 23.6196 29.9673 23.7202 30.0005C23.8208 30.0338 23.9279 30.0426 24.0326 30.0263C24.1373 30.01 24.2366 29.969 24.3223 29.9067C24.4081 29.8444 24.4778 29.7627 24.5256 29.6682Z" fill="var(--fill-0, #37474F)"/>
<path id="Vector_6" d="M24.0654 29.0001C22.1085 26.7866 19.7463 24.9677 17.1062 23.6414C15.9349 22.9769 14.716 22.4 13.4595 21.9156C11.9728 21.3237 10.4058 20.9578 8.81074 20.8299C8.74115 20.8299 8.36535 20.9691 8.49061 20.9969C9.97507 21.4678 11.4339 22.016 12.861 22.6393C14.1721 23.201 15.4338 23.8714 16.6329 24.6436C19.0318 26.149 21.2582 27.9133 23.2721 29.9048C23.7174 30.3919 24.3855 29.4176 24.0654 29.0001Z" fill="var(--fill-0, #37474F)"/>
<path id="Vector_7" d="M23.1471 40.2741C23.0678 38.592 22.5149 36.9666 21.5521 35.5851C20.5892 34.2036 19.2556 33.1223 17.7049 32.4658C13.5294 30.5172 8.49088 30.5868 8.10117 30.9904C7.71145 31.3941 9.49302 36.0429 14.114 38.9101C15.4203 39.8017 16.9109 40.3873 18.4748 40.6235C20.0387 40.8596 21.6357 40.7402 23.1471 40.2741Z" fill="var(--fill-0, #455A64)"/>
<path id="Vector_8" d="M29.3273 46.4259C27.875 43.851 25.9426 41.5784 23.6347 39.7311C22.6503 38.8563 21.5985 38.0605 20.4891 37.351C19.1641 36.4554 17.7087 35.7699 16.1743 35.3189C16.1048 35.3189 15.715 35.3189 15.8264 35.4163C17.1838 36.1845 18.4987 37.0255 19.7653 37.9356C20.9288 38.7684 22.0185 39.6997 23.0222 40.7193C25.07 42.6803 26.8909 44.8653 28.4505 47.2332C28.7149 47.6229 29.5639 46.8852 29.3273 46.4259Z" fill="var(--fill-0, #37474F)"/>
</g>
</svg>
