<svg preserveAspectRatio="none" width="100%" height="100%" overflow="visible" style="display: block;" viewBox="0 0 221.477 258.637" fill="none" xmlns="http://www.w3.org/2000/svg">
<g id="piggu-bank">
<path id="Vector" d="M180.368 70.6652C191.713 68.8558 197.545 63.3441 201.386 56.524C204.17 51.5412 205.27 42.8839 204.003 36.4953C203.303 32.9151 202.054 29.4644 200.301 26.2652C202.319 21.0597 201.038 15.2418 198.491 10.2451C195.234 3.88431 189.054 -0.889727 181.579 0.140242C180.354 0.307264 181.245 1.46248 182.247 1.90787C190.822 5.80505 193.452 12.305 194.246 18.8467C193.648 18.3453 193.021 17.8805 192.367 17.4548C188.948 15.4801 185.14 14.2729 181.208 13.9172C177.275 13.5615 173.313 14.0657 169.595 15.3949C162.816 18.1786 161.8 24.7899 166.435 30.0789C169.728 33.5634 174.057 35.8925 178.779 36.72C183.501 37.5475 188.364 36.8293 192.645 34.672C193.56 37.6913 193.937 40.8477 193.759 43.9974C193.563 47.0105 192.621 49.9277 191.017 52.4861C189.413 55.0446 187.199 57.164 184.572 58.6536C181.899 59.9751 178.952 60.6475 175.97 60.6161C172.943 60.5611 169.96 59.8736 167.215 58.5979C166.832 58.4779 166.428 58.4377 166.029 58.4796C165.63 58.5215 165.244 58.6448 164.895 58.8417C164.545 59.0386 164.24 59.3051 163.997 59.6246C163.755 59.9441 163.58 60.31 163.484 60.6996C160.325 69.9275 174.258 71.6256 180.368 70.6652ZM189.402 28.0329C186.061 29.7866 181.231 30.6496 177.724 29.3134C175.736 28.7238 173.952 27.591 172.574 26.0426C170.583 23.412 173.409 22.0897 176.541 22.1036C179.001 22.0041 181.449 22.4897 183.685 23.5204C185.921 24.5512 187.88 26.0977 189.402 28.0329Z" fill="var(--fill-0, #167287)"/>
<path id="Vector_2" opacity="0.2" d="M200.3 26.2652C201.643 28.7053 202.685 31.2991 203.404 33.9899C200.946 37.0328 197.498 39.1164 193.661 39.8775C193.491 38.1124 193.146 36.3687 192.631 34.672C196.133 32.9058 198.862 29.9136 200.3 26.2652Z" fill="var(--fill-0, black)"/>
<path id="Vector_3" opacity="0.2" d="M189.402 28.0328C189.017 27.5445 188.604 27.0797 188.163 26.641C189.588 25.8223 190.852 24.7518 191.894 23.4815C193.102 22.2132 193.919 20.6232 194.246 18.9023C194.237 20.7024 193.791 22.4734 192.948 24.0636C192.104 25.6538 190.887 27.0158 189.402 28.0328Z" fill="var(--fill-0, black)"/>
<path id="Vector_4" d="M93.1504 209.307C93.1504 209.238 93.1504 209.182 93.1504 209.112V208.918C92.4962 204.38 95.1409 199.703 101.112 196.168C111.955 189.752 129.661 189.557 140.643 195.751C146.684 199.147 149.426 203.768 148.883 208.277V208.486C148.883 208.556 160.478 206.858 160.478 206.858L157.833 209.641C150.718 217.284 146.084 226.901 144.54 237.228L143.065 247.054V247.152C142.606 249.935 140.546 252.636 136.899 254.793C128.464 259.79 114.628 259.929 106.151 255.127C102.462 253.039 100.361 250.381 99.8317 247.625V247.472L93.1504 209.307Z" fill="var(--fill-0, #167287)"/>
<path id="Vector_5" opacity="0.1" d="M93.1504 209.307C93.1504 209.238 93.1504 209.182 93.1504 209.112V208.918C92.4962 204.38 95.1409 199.703 101.112 196.168C111.955 189.752 129.661 189.557 140.643 195.751C146.684 199.147 149.426 203.768 148.883 208.277V208.486C148.883 208.556 160.478 206.858 160.478 206.858L157.833 209.641C150.718 217.284 146.084 226.901 144.54 237.228L143.065 247.054V247.152C142.606 249.935 140.546 252.636 136.899 254.793C128.464 259.79 114.628 259.929 106.151 255.127C102.462 253.039 100.361 250.381 99.8317 247.625V247.472L93.1504 209.307Z" fill="var(--fill-0, white)"/>
<path id="Vector_6" d="M151.263 174.915V174.72V174.525C150.623 170.001 153.351 165.45 159.225 161.79C163.401 159.201 185.184 159.006 197.781 158.825C205.284 158.741 209.39 157.934 208.833 162.485V162.68C208.833 162.75 217.046 152.339 217.046 152.339C210.669 165.325 206.313 179.209 204.128 193.51L201.205 212.662V212.773C200.732 215.557 198.686 218.243 195.039 220.4C186.604 225.397 172.838 225.55 164.292 220.734C160.603 218.661 158.487 215.988 157.958 213.232V213.149L151.263 174.915Z" fill="var(--fill-0, #167287)"/>
<path id="Vector_7" d="M86.4269 187.539C86.4269 187.469 86.4269 187.4 86.4269 187.344V187.135C86.9837 182.598 84.1581 178.116 78.2006 174.609C74.0249 172.103 52.1994 172.34 39.5886 172.479C32.1 172.549 27.966 171.839 28.6202 176.362V176.571C28.6135 176.636 28.6135 176.701 28.6202 176.766L37.3615 226.357V226.455C37.8904 229.239 40.0061 231.869 43.6948 233.957C52.2412 238.759 65.9656 238.606 74.4424 233.623C78.0893 231.466 80.1354 228.751 80.6087 225.982V225.843L86.4269 187.539Z" fill="var(--fill-0, #167287)"/>
<path id="Vector_8" d="M86.4269 187.539C86.4269 187.469 86.4269 187.4 86.4269 187.344V187.135C86.9837 182.598 84.1581 178.116 78.2006 174.609C74.0249 172.103 52.1994 172.34 39.5886 172.479C32.1 172.549 27.966 171.839 28.6202 176.362V176.571C28.6135 176.636 28.6135 176.701 28.6202 176.766L37.3615 226.357V226.455C37.8904 229.239 40.0061 231.869 43.6948 233.957C52.2412 238.759 65.9656 238.606 74.4424 233.623C78.0893 231.466 80.1354 228.751 80.6087 225.982V225.843L86.4269 187.539Z" fill="var(--fill-0, #167287)"/>
<path id="Vector_9" d="M87.8049 44.6098C100.137 39.112 116.952 36.8294 131.372 36.6763C143.073 36.5477 154.685 38.7255 165.544 43.0854C176.403 47.4453 186.297 53.9018 194.66 62.0861C203.023 70.2704 209.692 80.0221 214.285 90.7841C218.879 101.546 221.306 113.108 221.43 124.808C221.778 157.544 204.727 188.249 180.479 206.927C168.275 215.949 155.054 223.507 141.088 229.447C122.923 236.824 111.482 237.618 95.029 237.798C83.3279 237.927 71.7161 235.749 60.857 231.389C49.9978 227.03 40.104 220.573 31.7409 212.389C23.3778 204.204 16.7091 194.453 12.1159 183.691C7.52269 172.929 5.09493 161.367 4.97131 149.667C4.72076 127.077 13.1002 106.993 26.4905 90.9167C32.0582 84.2636 40.883 74.0614 47.8844 68.8837C61.5253 58.765 74.1223 50.7201 87.8049 44.6098Z" fill="var(--fill-0, #167287)"/>
<path id="Vector_10" opacity="0.3" d="M87.8049 44.6098C100.137 39.112 116.952 36.8294 131.372 36.6763C143.073 36.5477 154.685 38.7255 165.544 43.0854C176.403 47.4453 186.297 53.9018 194.66 62.0861C203.023 70.2704 209.692 80.0221 214.285 90.7841C218.879 101.546 221.306 113.108 221.43 124.808C221.778 157.544 204.727 188.249 180.479 206.927C168.275 215.949 155.054 223.507 141.088 229.447C122.923 236.824 111.482 237.618 95.029 237.798C83.3279 237.927 71.7161 235.749 60.857 231.389C49.9978 227.03 40.104 220.573 31.7409 212.389C23.3778 204.204 16.7091 194.453 12.1159 183.691C7.52269 172.929 5.09493 161.367 4.97131 149.667C4.72076 127.077 13.1002 106.993 26.4905 90.9167C32.0582 84.2636 40.883 74.0614 47.8844 68.8837C61.5253 58.765 74.1223 50.7201 87.8049 44.6098Z" fill="var(--fill-0, white)"/>
<path id="Vector_11" opacity="0.5" d="M111.275 188.311C113.339 179.566 107.922 170.802 99.1758 168.738C90.4295 166.674 81.6658 172.09 79.6015 180.836C77.5372 189.582 82.954 198.345 91.7003 200.409C100.447 202.474 109.21 197.057 111.275 188.311Z" fill="var(--fill-0, #167287)"/>
<path id="Vector_12" opacity="0.5" d="M16.3292 143.793C16.3324 140.739 15.475 137.745 13.8552 135.155C12.2354 132.565 9.91876 130.485 7.1708 129.151C5.62714 135.864 4.88889 142.737 4.97167 149.625C5.0016 152.793 5.2014 155.957 5.57018 159.103C8.7223 157.971 11.4476 155.892 13.3734 153.151C15.2992 150.411 16.3315 147.143 16.3292 143.793Z" fill="var(--fill-0, #167287)"/>
<path id="Vector_13" opacity="0.3" d="M167.075 188.945C201.178 160.773 221.096 99.0172 193.258 60.7274C202.05 68.9336 209.084 78.8397 213.934 89.8452C218.784 100.851 221.349 112.726 221.472 124.752C221.82 157.489 204.769 188.193 180.521 206.872C168.317 215.893 155.096 223.452 141.13 229.392C122.965 236.768 111.524 237.562 95.071 237.743C82.6994 237.891 70.433 235.455 59.0574 230.59C47.6817 225.724 37.4475 218.537 29.0101 209.488L28.1611 208.556C78.4932 243.992 132.987 217.116 167.075 188.945Z" fill="var(--fill-0, #167287)"/>
<path id="Vector_14" d="M72.9952 76.7477L59.3264 84.8343C45.5185 81.0206 29.0938 83.6095 18.7657 101.536C18.7657 101.536 14.7291 59.9759 19.9071 48.4235L23.888 46.0713C26.35 44.9127 29.1323 44.6231 31.7802 45.2501C48.8035 47.9921 64.2817 61.9384 72.9952 76.7477Z" fill="var(--fill-0, #167287)"/>
<path id="Vector_15" d="M59.3264 84.8481C41.454 80.4777 27.9384 86.24 18.7656 101.55C18.7656 101.55 2.49396 41.9235 27.9662 47.5187C45.1983 51.2489 59.3264 84.8481 59.3264 84.8481Z" fill="var(--fill-0, #167287)"/>
<path id="Vector_16" opacity="0.2" d="M59.3264 84.8481C41.454 80.4777 27.9384 86.24 18.7656 101.55C18.7656 101.55 2.49396 41.9235 27.9662 47.5187C45.1983 51.2489 59.3264 84.8481 59.3264 84.8481Z" fill="var(--fill-0, white)"/>
<path id="Vector_17" opacity="0.5" d="M33.4643 79.1695C49.9587 72.9201 59.3263 84.8483 59.3263 84.8483C41.454 80.4779 27.9384 86.2401 18.7656 101.55C18.4007 96.7207 19.6448 91.9059 22.3038 87.8573C24.9627 83.8087 28.8869 80.7539 33.4643 79.1695Z" fill="var(--fill-0, #167287)"/>
<path id="Vector_18" d="M87.0121 100.409C102.24 113.966 115.964 131.224 126.153 157.182L139.251 149.486C144.137 144.419 156.525 101.648 131.568 86.0312C114.906 75.6201 87.0121 100.409 87.0121 100.409Z" fill="var(--fill-0, #167287)"/>
<path id="Vector_19" d="M87.0121 100.409C104.484 115.867 117.92 135.356 126.153 157.183C126.153 157.183 153.324 108.983 128.158 88.0494C113.459 75.8568 87.0121 100.409 87.0121 100.409Z" fill="var(--fill-0, #167287)"/>
<path id="Vector_20" opacity="0.2" d="M87.0121 100.409C104.484 115.867 117.92 135.356 126.153 157.183C126.153 157.183 153.324 108.983 128.158 88.0494C113.459 75.8568 87.0121 100.409 87.0121 100.409Z" fill="var(--fill-0, white)"/>
<path id="Vector_21" opacity="0.5" d="M87.0121 100.409C87.0121 100.409 102.156 100.256 115.394 117.974C127.782 134.565 126.153 157.183 126.153 157.183C117.92 135.355 104.484 115.867 87.0121 100.409Z" fill="var(--fill-0, #167287)"/>
<path id="Vector_22" d="M21.5079 145.909C26.7972 142.777 34.3693 143.222 42.8044 147.969C59.0482 157.127 72.3828 178.756 72.5638 196.307C72.6612 204.659 69.7799 210.602 64.8943 213.525C62.5558 214.916 53.3969 220.359 50.975 221.723C45.6857 224.799 38.1553 224.325 29.762 219.607C13.5182 210.463 0.197479 188.819 0.00260917 171.268C-0.0948258 162.917 2.78646 156.988 7.65821 154.065C10.0523 152.659 19.1834 147.273 21.5079 145.909Z" fill="var(--fill-0, #167287)"/>
<path id="Vector_23" opacity="0.2" d="M7.71352 154.065C10.052 152.673 19.183 147.273 21.5075 145.909C26.7969 142.777 34.3689 143.222 42.804 147.969C49.9507 152.192 56.1186 157.885 60.8991 164.671L7.60216 196.21C3.0088 188.082 0.183188 179.229 0.0996722 171.157C-0.0395206 162.903 2.88353 156.988 7.71352 154.065Z" fill="var(--fill-0, white)"/>
<path id="Vector_24" opacity="0.1" d="M69.376 180.594L18.3201 210.671C14.1049 206.366 10.4777 201.522 7.53263 196.266L60.8295 164.726C64.37 169.613 67.244 174.949 69.376 180.594Z" fill="var(--fill-0, white)"/>
<path id="Vector_25" d="M29.1354 156.083C12.8916 146.939 -0.0950585 153.745 0.0580535 171.282C0.211165 188.819 13.5737 210.476 29.8175 219.621C46.0613 228.765 59.0479 221.959 58.8948 204.408C58.7417 186.857 45.3792 165.214 29.1354 156.083Z" fill="var(--fill-0, #167287)"/>
<path id="Vector_26" d="M29.1354 156.083C12.8916 146.939 -0.0950585 153.745 0.0580535 171.282C0.211165 188.819 13.5737 210.476 29.8175 219.621C46.0613 228.765 59.0479 221.959 58.8948 204.408C58.7417 186.857 45.3792 165.214 29.1354 156.083Z" fill="var(--fill-0, #167287)"/>
<path id="Vector_27" opacity="0.3" d="M29.1354 156.083C12.8916 146.939 -0.0950585 153.745 0.0580535 171.282C0.211165 188.819 13.5737 210.476 29.8175 219.621C46.0613 228.765 59.0479 221.959 58.8948 204.408C58.7417 186.857 45.3792 165.214 29.1354 156.083Z" fill="var(--fill-0, white)"/>
<path id="Vector_28" d="M39.9642 205.118C41.9546 206.245 43.5274 205.02 43.4995 202.334L43.3604 188.945C43.3261 187.608 42.9782 186.298 42.3448 185.121C41.7114 183.943 40.8101 182.931 39.7137 182.166C37.7373 181.053 36.1506 182.278 36.1784 184.95L36.3315 198.34C36.3642 199.675 36.7099 200.984 37.3409 202.161C37.9718 203.339 38.8704 204.351 39.9642 205.118Z" fill="var(--fill-0, #167287)"/>
<path id="Vector_29" d="M43.3607 189L43.4999 202.39C43.5191 202.919 43.4437 203.447 43.2772 203.949C43.0053 203.868 42.7437 203.756 42.4978 203.615C41.4058 202.849 40.5084 201.839 39.8775 200.664C39.2466 199.489 38.8999 198.183 38.865 196.85L38.7258 183.461C38.7093 182.933 38.7798 182.406 38.9346 181.902C39.205 181.981 39.4662 182.088 39.7141 182.222C40.8105 182.987 41.7117 183.999 42.3452 185.177C42.9786 186.354 43.3265 187.664 43.3607 189Z" fill="var(--fill-0, #167287)"/>
<path id="Vector_30" opacity="0.15" d="M43.3607 189L43.4999 202.39C43.5191 202.919 43.4437 203.447 43.2772 203.949C43.0053 203.868 42.7437 203.756 42.4978 203.615C41.4058 202.849 40.5084 201.839 39.8775 200.664C39.2466 199.489 38.8999 198.183 38.865 196.85L38.7258 183.461C38.7093 182.933 38.7798 182.406 38.9346 181.902C39.205 181.981 39.4662 182.088 39.7141 182.222C40.8105 182.987 41.7117 183.999 42.3452 185.177C42.9786 186.354 43.3265 187.664 43.3607 189Z" fill="var(--fill-0, black)"/>
<path id="Vector_31" d="M19.2665 193.44C21.2429 194.554 22.8296 193.343 22.8018 190.657L22.6487 177.267C22.6149 175.932 22.2687 174.623 21.6378 173.446C21.007 172.269 20.109 171.256 19.016 170.489C17.0256 169.375 15.4528 170.6 15.4807 173.272L15.6198 186.662C15.653 187.999 16.0004 189.309 16.6339 190.486C17.2674 191.664 18.1693 192.676 19.2665 193.44Z" fill="var(--fill-0, #167287)"/>
<path id="Vector_32" d="M22.6209 177.323L22.774 190.712C22.7795 191.24 22.7044 191.766 22.5513 192.271C22.2785 192.193 22.0166 192.081 21.7719 191.937C20.6765 191.174 19.7758 190.164 19.1424 188.989C18.509 187.814 18.1605 186.507 18.1252 185.173L17.9861 171.783C17.9668 171.254 18.0422 170.726 18.2088 170.224C18.4804 170.3 18.742 170.407 18.9882 170.544C20.0812 171.312 20.9792 172.325 21.6101 173.502C22.2409 174.679 22.5872 175.988 22.6209 177.323Z" fill="var(--fill-0, #167287)"/>
<path id="Vector_33" opacity="0.15" d="M22.6209 177.323L22.774 190.712C22.7795 191.24 22.7044 191.766 22.5513 192.271C22.2785 192.193 22.0166 192.081 21.7719 191.937C20.6765 191.174 19.7758 190.164 19.1424 188.989C18.509 187.814 18.1605 186.507 18.1252 185.173L17.9861 171.783C17.9668 171.254 18.0422 170.726 18.2088 170.224C18.4804 170.3 18.742 170.407 18.9882 170.544C20.0812 171.312 20.9792 172.325 21.6101 173.502C22.2409 174.679 22.5872 175.988 22.6209 177.323Z" fill="var(--fill-0, black)"/>
<path id="Vector_34" opacity="0.3" d="M53.1601 217.046C60.4399 206.802 55.4568 185.549 47.1192 172.73C54.1762 182.473 58.7835 194.136 58.8949 204.394C59.0897 221.945 46.0613 228.752 29.8175 219.607C24.2516 216.352 19.2963 212.15 15.1744 207.192C25.4747 219.273 45.3932 227.986 53.1601 217.046Z" fill="var(--fill-0, white)"/>
<path id="Vector_35" d="M73.3433 150.293C72.369 153.967 76.3218 151.086 79.9963 152.061C83.6708 153.035 85.6611 157.503 86.6494 153.828C87.0351 152.092 86.7347 150.274 85.8109 148.755C84.8872 147.235 83.4116 146.132 81.6929 145.675C79.9742 145.218 78.1455 145.444 76.5893 146.305C75.0331 147.165 73.87 148.594 73.3433 150.293Z" fill="var(--fill-0, #263238)"/>
<path id="Vector_36" d="M23.5396 124.947C21.3126 128.037 26.031 126.757 29.107 128.984C32.183 131.211 32.4613 136.082 34.6744 133.006C35.2365 132.277 35.6466 131.443 35.8802 130.552C36.1138 129.662 36.1663 128.734 36.0345 127.823C35.9026 126.912 35.5892 126.036 35.1128 125.249C34.6363 124.461 34.0066 123.777 33.2609 123.237C32.5151 122.698 31.6686 122.313 30.7716 122.107C29.8745 121.9 28.945 121.876 28.0384 122.036C27.1318 122.195 26.2664 122.535 25.4937 123.035C24.7209 123.535 24.0564 124.186 23.5396 124.947Z" fill="var(--fill-0, #263238)"/>
<path id="Vector_37" d="M91.6609 83.1778L135.674 57.1224L125.763 51.555L81.7643 77.5965L91.6609 83.1778Z" fill="var(--fill-0, #167287)"/>
<path id="Vector_38" opacity="0.2" d="M91.6609 83.1778L135.674 57.1224L125.763 51.555L81.7643 77.5965L91.6609 83.1778Z" fill="var(--fill-0, black)"/>
<path id="Vector_39" d="M125.763 51.555L125.833 57.2338L86.7056 80.3802L81.7643 77.5965L125.763 51.555Z" fill="var(--fill-0, #167287)"/>
<path id="Vector_40" opacity="0.2" d="M125.763 51.555L125.833 57.2338L130.788 60.0175L135.673 57.1224L125.763 51.555Z" fill="var(--fill-0, black)"/>
</g>
</svg>
