<svg preserveAspectRatio="none" width="100%" height="100%" overflow="visible" style="display: block;" viewBox="0 0 88.2145 83.7161" fill="none" xmlns="http://www.w3.org/2000/svg">
<g id="speech-bubble">
<path id="Vector" d="M62.8208 9.5598C71.011 14.8835 76.8684 23.1241 79.2038 32.6088L80.0111 36.9375C81.3618 46.5795 79.0062 56.375 73.4193 64.3488C67.8324 72.3226 59.4298 77.8817 49.9057 79.9051C40.3816 81.9284 30.4445 80.2656 22.0981 75.2518C13.7517 70.238 7.61686 62.2463 4.93058 52.8881L3.91445 48.6012C2.60497 41.2172 3.48228 33.6115 6.43847 26.7195C9.39465 19.8275 14.3008 13.9498 20.5536 9.80912C26.8063 5.66846 34.133 3.44547 41.6325 3.41354C49.132 3.38161 56.4774 5.54213 62.7651 9.62939L62.8208 9.5598Z" fill="var(--fill-0, white)"/>
<path id="Vector_2" d="M6.80933 19.1078C1.06612 27.8898 -1.15989 38.5122 0.574286 48.861C2.30846 59.2098 7.87567 68.5264 16.1681 74.9568C24.4604 81.3871 34.87 84.4598 45.3253 83.5634C55.7807 82.667 65.5152 77.8671 72.5918 70.1191L85.3001 72.7775C85.7787 72.8734 86.275 72.8233 86.7248 72.6337C87.1745 72.4441 87.557 72.1238 87.8225 71.7143C88.088 71.3048 88.2244 70.8249 88.2139 70.337C88.2035 69.849 88.0467 69.3755 87.7638 68.9777L80.1639 58.4554C84.3595 48.8408 84.7824 37.9994 81.3484 28.0873C77.9144 18.1752 70.8752 9.91872 61.6307 4.95994C52.3862 0.00117041 41.6137 -1.29655 31.456 1.32488C21.2982 3.94632 12.4993 10.2948 6.80933 19.1078ZM62.8205 9.5597C71.0107 14.8834 76.868 23.124 79.2034 32.6087L80.0108 36.9374C81.3615 46.5794 79.0059 56.3749 73.419 64.3487C67.832 72.3225 59.4294 77.8816 49.9053 79.9049C40.3812 81.9283 30.4441 80.2655 22.0977 75.2517C13.7513 70.2379 7.6165 62.2462 4.93022 52.888L3.9141 48.6011C2.60461 41.2171 3.48193 33.6114 6.43811 26.7194C9.39429 19.8274 14.3005 13.9497 20.5532 9.80902C26.806 5.66836 34.1326 3.44537 41.6321 3.41344C49.1317 3.38151 56.477 5.54203 62.7648 9.6293L62.8205 9.5597Z" fill="var(--fill-0, #455A64)"/>
<path id="Vector_3" opacity="0.7" d="M62.8208 9.5598C71.011 14.8835 76.8684 23.1241 79.2038 32.6088L80.0111 36.9375C81.3618 46.5795 79.0062 56.375 73.4193 64.3488C67.8324 72.3226 59.4298 77.8817 49.9057 79.9051C40.3816 81.9284 30.4445 80.2656 22.0981 75.2518C13.7517 70.238 7.61686 62.2463 4.93058 52.8881L3.91445 48.6012C2.60497 41.2172 3.48228 33.6115 6.43847 26.7195C9.39465 19.8275 14.3008 13.9498 20.5536 9.80912C26.8063 5.66846 34.133 3.44547 41.6325 3.41354C49.132 3.38161 56.4774 5.54213 62.7651 9.62939L62.8208 9.5598Z" fill="var(--fill-0, white)"/>
</g>
</svg>
