<svg preserveAspectRatio="none" width="100%" height="100%" overflow="visible" style="display: block;" viewBox="0 0 244.232 308.455" fill="none" xmlns="http://www.w3.org/2000/svg">
<g id="Top">
<g id="Arm">
<path id="Vector" d="M132.614 91.2293C110.761 89.6286 103.481 109.49 98.5817 127.125C96.8696 133.305 88.4346 162.241 88.4346 162.241C88.4346 162.241 65.4539 157.426 54.5133 153.25C48.1661 150.828 45.3405 147.808 43.3779 142.756C40.594 135.601 40.079 131.551 38.868 130.229C37.657 128.907 29.4725 124.16 26.6051 121.418C23.7378 118.677 22.3041 119.595 18.9495 119.539C14.899 119.456 -0.328651 121.655 0.00541201 122.782C0.215393 124.112 0.849033 125.338 1.8121 126.279C2.77516 127.219 4.01617 127.824 5.35041 128.002C8.48225 128.531 16.8338 127.696 16.8338 127.696C16.8338 127.696 15.5672 131.565 14.8851 133.263C14.2031 134.961 14.8851 135.88 18.0865 139.262C17.6671 139.669 17.3377 140.159 17.1195 140.7C16.9013 141.242 16.7992 141.824 16.8199 142.408C17.2754 143.945 18.1247 145.336 19.2836 146.444C18.667 147.151 18.3001 148.041 18.2396 148.977C18.2396 150.466 20.6338 153.417 23.1392 155.741C24.7774 159.33 26.8482 162.705 29.3055 165.791C31.9641 168.922 34.8732 169.451 38.0885 169.966C41.7632 170.579 44.046 172.026 49.8642 174.977C55.6825 177.928 84.8434 192.918 95.5334 195.34C106.223 197.761 109.216 195.075 112.362 187.406C118.361 172.806 130.206 148.587 134.828 132.734L132.614 91.2293Z" fill="var(--fill-0, #C8856A)"/>
<path id="Vector_2" d="M134.493 89.9765C125 89.2528 113.795 88.7656 106.251 104.716C98.7064 120.667 90.8559 151.468 90.8559 151.468C90.8559 151.468 94.5167 157.314 106.084 162.784C117.65 168.254 122.634 166.319 122.634 166.319L135.787 133.082L134.493 89.9765Z" fill="var(--fill-0, #37474F)"/>
<path id="Vector_3" d="M88.3784 162.241C94.1684 163.683 99.4326 166.732 103.564 171.038C100.975 166.32 95.964 160.794 89.3945 158.776L88.3784 162.241Z" fill="var(--fill-0, #AF6152)"/>
<path id="Vector_4" d="M35.3603 133.124C32.2692 132.398 29.5074 130.665 27.5098 128.197C25.6168 125.705 23.6959 122.81 22.7494 123.158C21.1626 123.715 19.4088 127.905 22.123 132.233C24.8373 136.562 28.9157 140.737 29.5699 141.976C30.2241 143.215 30.3493 146.708 30.3493 149.423C30.519 152.132 31.5183 154.723 33.2116 156.844C34.905 158.966 37.2103 160.515 39.8144 161.281C36.6724 161.054 33.7377 159.629 31.616 157.3C27.4402 153.208 28.4842 147.042 28.1362 144.412C27.7882 141.781 27.7186 141.266 24.6285 137.773C21.5385 134.279 18.1839 130.521 19.7707 125.246C21.3575 119.971 23.5567 121.335 24.6424 122.462C25.7281 123.59 30.057 131.704 35.3603 133.124Z" fill="var(--fill-0, #AF6152)"/>
<path id="Vector_5" d="M16.7917 127.612L20.2434 127.891L19.6171 129.004C18.8547 128.908 18.0808 129.032 17.3858 129.36C16.6908 129.687 16.1034 130.206 15.6921 130.855L16.7917 127.612Z" fill="var(--fill-0, #AF6152)"/>
<path id="Vector_6" d="M18.0447 139.178C19.0746 140.334 22.4846 143.688 23.1667 144.37C23.8487 145.052 25.338 144.175 25.6303 142.227C25.9831 140.641 25.7088 138.98 24.8647 137.592C25.9425 138.906 26.502 140.57 26.4375 142.268C26.1452 144.788 24.7673 145.651 23.7512 145.734C22.7352 145.818 20.2577 141.614 18.0447 139.178Z" fill="var(--fill-0, #AF6152)"/>
<path id="Vector_7" d="M19.2414 146.36C19.993 147.237 21.2456 148.239 23.4169 150.536C24.6696 151.928 25.4073 152.832 26.3538 152.304C27.3002 151.775 28.191 148.991 27.1749 147.126C26.5915 146.039 25.8814 145.025 25.0593 144.106L25.7135 143.451C27.0723 144.849 28.0748 146.554 28.6364 148.42C29.1653 150.953 27.6203 153.695 26.3538 153.501C25.0872 153.306 24.4052 152.498 22.6932 150.466C20.9812 148.434 19.2414 146.36 19.2414 146.36Z" fill="var(--fill-0, #AF6152)"/>
<path id="Vector_8" d="M25.6862 152.902C26.1177 153.528 26.3682 155.213 25.2547 155.686C24.9147 155.835 24.5474 155.912 24.176 155.912C23.8047 155.912 23.4374 155.835 23.0974 155.686C23.4043 156.038 23.8128 156.285 24.2665 156.395C24.7203 156.505 25.1969 156.471 25.6305 156.298C27.0224 155.686 27.0224 154.016 26.8136 152.735L25.6862 152.902Z" fill="var(--fill-0, #AF6152)"/>
</g>
<path id="Vector_9" d="M107.559 131.607C108.562 103.352 120.24 91.7861 134.549 89.9766C134.549 89.9766 152.059 91.3685 163.487 92.9413C177.406 94.7925 191.228 100.081 195.167 101.432C200.735 103.937 208.78 117.841 210.005 137.759C210.882 151.9 213.235 169.897 211.564 194.992C210.478 211.346 210.284 223.831 207.569 245.349C188.082 253.06 123.594 245.669 106.627 213.03C108.367 208.061 108.77 191.303 108.506 181.811C108.241 172.318 107.197 140.501 107.559 131.607Z" fill="var(--fill-0, #455A64)"/>
<g id="Head">
<path id="Vector_10" d="M167.036 79.3845C167.412 71.3953 174.219 62.2926 176.891 55.0411C179.48 48.0819 180.886 42.6954 179.745 36.5573C179.077 32.9246 176.167 28.2062 173.328 27.5242C174.817 13.5222 163.835 8.44199 158.253 7.81566C155.64 7.59132 153.046 7.19142 150.486 6.61867C147.382 5.74181 146.436 3.45917 143.805 1.71936C139.295 -1.2592 132.391 -0.507597 130.401 5.07372C127.241 1.88638 123.553 2.4292 119.419 4.02983C117.663 4.65508 116.211 5.92529 115.357 7.5824C114.504 9.23951 114.314 11.1592 114.825 12.9516C108.729 10.4463 103.968 15.1089 103.857 18.519C103.773 21.0382 104.553 23.0703 103.203 25.4782C101.671 28.2619 98.2195 28.582 96.925 26.6891C96.758 30.2801 98.4562 32.7854 102.256 32.1313C101.725 33.1869 101.433 34.3467 101.402 35.528C101.371 36.7093 101.601 37.883 102.075 38.9652C102.708 40.3106 103.735 41.431 105.021 42.1771C106.307 42.9231 107.79 43.2593 109.271 43.1408C109.912 45.0337 110.204 46.7874 111.624 48.3046C112.975 49.8618 114.685 51.0658 116.607 51.812C122.717 53.8719 129.218 53.9972 135.593 54.5957L143.165 55.236C143.61 55.236 145.851 55.1385 146.171 55.4865L167.036 79.3845Z" fill="var(--fill-0, #263238)"/>
<path id="Vector_11" d="M175.291 68.1107C170.182 72.0635 166.034 68.9597 166.034 68.9597L169.556 94.7924C166.591 106.345 147.939 110.492 140.701 108.196C133.463 105.899 133.825 101.724 137.541 95.0012L136.553 90.8256C133.453 91.2543 130.329 91.4914 127.199 91.5355C120.95 91.438 115.73 87.0259 113.183 80.5816C110.192 72.1712 108.85 63.2634 109.23 54.3453C109.396 52.1731 109.245 49.9884 108.784 47.8593C107.504 42.2919 108.13 38.7705 109.021 33.8016C115.117 27.5383 130.512 23.7942 146.144 30.8926C145.517 39.7587 149.721 46.2029 156.416 48.75C156.416 51.1301 156.834 57.1011 160.675 56.5026C163.459 56.0851 163.195 52.5915 165.672 49.1815C168.15 45.7715 174.678 44.1569 177.796 48.3603C182.167 54.1922 180.886 63.782 175.291 68.1107Z" fill="var(--fill-0, #C8856A)"/>
<path id="Vector_12" d="M147.688 45.159L166.744 47.9427C165.686 48.8038 164.886 49.9406 164.433 51.2274L147.925 49.5016L147.688 45.159Z" fill="var(--fill-0, #263238)"/>
<path id="Vector_13" d="M103.161 47.553C103.406 48.5563 103.91 49.4778 104.622 50.2253C104.883 50.4953 105.082 50.8181 105.207 51.1718C105.854 53.6856 106.677 56.1506 107.671 58.5486C108.425 60.1392 109.625 61.4765 111.125 62.3981C112.625 63.3197 114.36 63.786 116.12 63.7402C117.015 63.7534 117.908 63.6552 118.778 63.4479H118.973C119.714 63.2624 120.416 62.9467 121.047 62.5154L121.158 62.4319L121.339 62.3066L121.548 62.1396L121.743 61.9726L121.952 61.7638L122.161 61.555C122.289 61.408 122.41 61.2547 122.522 61.0957C123.154 60.2259 123.626 59.2502 123.914 58.2146C124.708 55.584 123.914 51.9791 125.724 51.5337C125.798 51.5204 125.873 51.5204 125.947 51.5337H126.183C128.689 51.5337 128.967 55.4587 130.749 58.2563C131.746 60.0314 133.219 61.493 135.002 62.4765C136.785 63.4601 138.807 63.9267 140.84 63.8237H141.55H142.121C142.557 63.7825 142.99 63.708 143.415 63.601L143.819 63.5036L144.195 63.3644C144.28 63.3429 144.364 63.3149 144.445 63.2809C144.94 63.091 145.407 62.8384 145.837 62.5293L146.283 62.1674C146.553 61.9271 146.8 61.6615 147.02 61.3741C147.607 60.5645 148.028 59.6468 148.259 58.6739C148.788 56.6835 148.44 53.1065 148.565 51.2971C148.576 50.9281 148.656 50.5644 148.802 50.2253C149.344 49.4575 149.623 48.5344 149.596 47.5948C149.521 47.0837 149.306 46.6034 148.974 46.2077C148.642 45.812 148.207 45.5163 147.716 45.3539L146.324 45.2008C141.982 44.7693 136.414 44.6579 133.226 45.6322C129.232 46.871 127.979 48.2489 125.64 48.2629C123.302 48.2768 121.868 46.871 117.762 45.674C114.505 44.6997 109.411 44.8389 105.43 45.2843L104.219 45.4374C103.578 45.34 102.966 46.3978 103.161 47.553ZM130.916 49.6269C131.179 49.2096 131.543 48.8651 131.974 48.6247C132.03 48.5704 132.096 48.5278 132.169 48.4995L132.28 48.4299C132.455 48.3213 132.636 48.2237 132.823 48.1376L133.338 47.901C133.892 47.6652 134.459 47.4607 135.036 47.2885L135.718 47.1076C136.31 46.9649 136.909 46.858 137.514 46.7875H137.931C141.898 46.3838 144.543 47.2885 145.587 48.0958C146.631 48.9031 146.853 52.7585 146.784 54.7071V54.8463C146.784 54.8463 146.784 54.9437 146.784 54.9994C146.784 55.0551 146.784 55.5005 146.784 55.7927C146.784 56.085 146.784 56.1129 146.784 56.2799C146.784 56.5444 146.7 56.8088 146.645 57.1011C146.616 57.1926 146.593 57.2855 146.575 57.3795C146.581 57.435 146.581 57.491 146.575 57.5465V57.7413L146.491 57.978C146.465 58.0683 146.433 58.1566 146.394 58.2424C146.363 58.3375 146.326 58.4305 146.283 58.5208C146.242 58.6163 146.195 58.7092 146.144 58.7991C145.641 59.7457 144.872 60.5243 143.932 61.0388C142.992 61.5533 141.922 61.7812 140.854 61.6942C139.696 61.7593 138.537 61.5948 137.443 61.2102C136.349 60.8257 135.342 60.2286 134.479 59.4533C133.347 58.3606 132.48 57.0225 131.946 55.5422C130.93 53.3292 130.303 50.8099 130.916 49.6269ZM107.044 48.1237C107.304 47.8527 107.61 47.6311 107.949 47.4695H108.019L108.436 47.2885L108.701 47.1911L108.909 47.1215H109.049H109.257C109.556 47.0487 109.858 46.9929 110.162 46.9545C110.329 46.9408 110.497 46.9408 110.663 46.9545H110.956H111.192H112.278C112.863 46.9545 113.475 46.9545 114.157 47.0937C117.052 47.4556 120.212 48.7361 121.117 49.8774C122.021 51.0187 122.188 53.5658 122.091 55.7371C122.066 56.228 122.006 56.7164 121.91 57.1985C121.916 57.2354 121.916 57.273 121.91 57.3099C121.91 57.3099 121.91 57.4073 121.91 57.463C121.91 57.5186 121.91 57.463 121.91 57.5604V57.7413L121.799 58.1032C121.756 58.203 121.718 58.3053 121.687 58.4094V58.5208L121.604 58.7295C121.58 58.794 121.547 58.8549 121.506 58.9105C120.699 60.525 119.057 61.9447 115.8 61.8751C114.713 61.8759 113.639 61.6384 112.654 61.1792C109.591 59.7874 108.478 56.4191 107.991 54.8881C107.239 52.7724 106.279 48.9727 107.044 48.1237Z" fill="var(--fill-0, #37474F)"/>
<path id="Vector_14" d="M117.066 65.4661L126.878 69.1545L128.437 53.19C127.894 52.1461 127.24 51.4363 126.155 51.4363C126.077 51.4156 125.996 51.4156 125.918 51.4363H125.695C125.587 51.4539 125.483 51.4917 125.389 51.5476C125.389 51.5476 125.097 51.8538 124.958 52.0208C123.905 53.2662 122.973 54.6084 122.174 56.0293C121.311 57.4212 120.42 59.0775 119.557 60.7338C119.056 61.6524 118.597 62.585 118.096 63.5175C117.72 64.2413 117.386 64.8537 117.066 65.4661Z" fill="var(--fill-0, #AF6152)"/>
<path id="Vector_15" d="M136.553 90.7839C146.144 88.4595 153.423 86.497 157.641 78.828C159.562 74.9158 161.06 70.8098 162.109 66.5797C162.109 66.5797 162.109 75.3205 159.687 81.556C157.78 86.3439 152.463 91.0206 137.416 94.194L136.553 90.7839Z" fill="var(--fill-0, #AF6152)"/>
<path id="Vector_16" d="M135.509 54.2061C135.568 54.7505 135.787 55.2653 136.138 55.686C136.488 56.1067 136.955 56.4147 137.48 56.5713C138.005 56.728 138.564 56.7264 139.088 56.5667C139.612 56.407 140.077 56.0963 140.425 55.6736C140.773 55.2508 140.989 54.7348 141.045 54.19C141.101 53.6453 140.996 53.096 140.741 52.611C140.487 52.126 140.095 51.7268 139.615 51.4634C139.135 51.2 138.588 51.0841 138.042 51.1301C137.672 51.1613 137.312 51.2663 136.983 51.4387C136.654 51.6112 136.363 51.8477 136.127 52.1343C135.891 52.421 135.715 52.7519 135.609 53.1077C135.502 53.4635 135.469 53.837 135.509 54.2061Z" fill="var(--fill-0, #263238)"/>
<path id="Vector_17" d="M135.579 41.4289L142.162 42.8208C142.358 41.917 142.19 40.9724 141.695 40.1911C141.201 39.4098 140.418 38.8546 139.518 38.6452C139.075 38.5533 138.618 38.5534 138.175 38.6456C137.732 38.7378 137.313 38.9201 136.943 39.1812C136.574 39.4423 136.262 39.7765 136.027 40.1632C135.793 40.5499 135.64 40.9807 135.579 41.4289Z" fill="var(--fill-0, #263238)"/>
<path id="Vector_18" d="M138.641 70.0314L129.83 73.9146C130.375 75.0895 131.352 76.0088 132.558 76.4807C133.763 76.9527 135.105 76.9409 136.302 76.4478C136.891 76.1969 137.423 75.8276 137.863 75.363C138.303 74.8984 138.644 74.3483 138.863 73.7467C139.082 73.1452 139.176 72.5051 139.137 71.866C139.099 71.2269 138.93 70.6025 138.641 70.0314Z" fill="var(--fill-0, #AF6152)"/>
<path id="Vector_19" d="M133.713 76.6983C133.786 75.3092 134.369 73.9959 135.35 73.0098C136.331 72.0236 137.642 71.4339 139.03 71.3536C139.207 72.3725 139.037 73.4213 138.548 74.3323C138.058 75.2432 137.277 75.9636 136.33 76.3782C135.504 76.7241 134.598 76.8349 133.713 76.6983Z" fill="var(--fill-0, #FFA8A7)"/>
<path id="Vector_20" d="M110.802 44.2404L117.413 42.6676C117.333 42.2324 117.165 41.8181 116.919 41.4501C116.673 41.082 116.355 40.7679 115.984 40.5269C115.613 40.2859 115.196 40.1232 114.76 40.0485C114.324 39.9739 113.877 39.9889 113.447 40.0927C112.559 40.3147 111.79 40.8684 111.298 41.6398C110.806 42.4113 110.629 43.342 110.802 44.2404Z" fill="var(--fill-0, #263238)"/>
<path id="Vector_21" d="M114.059 54.6933C114.166 55.2305 114.429 55.7243 114.815 56.1129C115.201 56.5015 115.693 56.7677 116.229 56.878C116.766 56.9883 117.323 56.9379 117.831 56.7331C118.339 56.5284 118.775 56.1783 119.085 55.7267C119.395 55.2752 119.565 54.7423 119.573 54.1946C119.582 53.647 119.428 53.109 119.133 52.6481C118.837 52.1871 118.412 51.8236 117.91 51.6032C117.409 51.3827 116.854 51.315 116.314 51.4086C115.948 51.472 115.599 51.608 115.287 51.8084C114.974 52.0089 114.705 52.2699 114.495 52.5759C114.285 52.882 114.138 53.227 114.063 53.5906C113.988 53.9543 113.987 54.3292 114.059 54.6933Z" fill="var(--fill-0, #263238)"/>
</g>
<g id="laptop">
<path id="Vector_22" d="M28.4143 245.766V247.047C28.3857 247.967 28.5996 248.878 29.0345 249.689C29.4694 250.5 30.11 251.182 30.8919 251.668L120.866 307.62C121.651 308.102 122.547 308.371 123.468 308.401C124.388 308.43 125.3 308.218 126.114 307.787L177.058 280.66C177.874 280.229 178.56 279.59 179.049 278.808C179.538 278.025 179.812 277.128 179.842 276.206V274.452C179.843 274.569 179.811 274.683 179.749 274.781C179.687 274.88 179.599 274.959 179.494 275.009L123.525 304.962L28.4143 245.766Z" fill="var(--fill-0, #37474F)"/>
<path id="Vector_23" d="M123.539 304.962L123.414 308.455C122.495 308.426 121.602 308.152 120.825 307.662L30.8505 251.71C30.0656 251.227 29.4226 250.546 28.9874 249.734C28.5521 248.922 28.34 248.009 28.3728 247.089V245.808L123.539 304.962Z" fill="var(--fill-0, #263238)"/>
<path id="Vector_24" d="M179.369 274.856C179.443 274.813 179.507 274.753 179.553 274.68C179.599 274.607 179.626 274.524 179.633 274.438C179.637 274.352 179.617 274.266 179.575 274.19C179.534 274.113 179.472 274.05 179.396 274.007L86.8333 216.44C86.3773 216.146 85.8451 215.991 85.3022 215.995C84.8158 215.987 84.3359 216.107 83.9103 216.343L28.8039 245.78L123.525 304.683L179.369 274.856Z" fill="var(--fill-0, #455A64)"/>
<path id="Vector_25" d="M85.2883 216.203C85.7798 216.213 86.26 216.352 86.6802 216.607L179.229 274.174C179.271 274.201 179.306 274.238 179.33 274.282C179.354 274.326 179.368 274.375 179.369 274.425C179.366 274.474 179.351 274.522 179.324 274.564C179.297 274.605 179.26 274.639 179.216 274.661L123.538 304.447L29.2215 245.794L84.0077 216.565C84.4027 216.358 84.8419 216.248 85.2883 216.245M85.2883 215.828C84.7727 215.827 84.2652 215.956 83.8128 216.203L28.4002 245.808L123.538 304.962L179.466 275.079C179.57 275.015 179.655 274.926 179.715 274.82C179.774 274.714 179.805 274.595 179.805 274.473C179.805 274.352 179.774 274.232 179.715 274.126C179.655 274.02 179.57 273.931 179.466 273.868L86.9029 216.301C86.4121 215.989 85.842 215.825 85.2605 215.828H85.2883Z" fill="var(--fill-0, #37474F)"/>
<path id="Vector_26" d="M124.193 300.327L154.077 284.362L69.9353 232.043L39.8975 247.896L124.193 300.327Z" fill="var(--fill-0, #37474F)"/>
<path id="Vector_27" d="M39.8975 247.896L40.9971 248.578L69.8935 233.337L152.922 284.975L154.063 284.376L69.9353 232.043L39.8975 247.896Z" fill="var(--fill-0, #263238)"/>
<path id="Vector_28" d="M140.144 253.742L139.602 254.034L124.945 261.856L99.862 246.267L99.347 245.947L114.547 237.819L140.144 253.742Z" fill="var(--fill-0, #263238)"/>
<path id="Vector_29" d="M139.601 254.034L124.944 261.856L99.8619 246.267L114.519 238.431L139.601 254.034Z" fill="var(--fill-0, #37474F)"/>
<g id="arm">
<path id="Vector_30" d="M242.285 192.612C235.325 169.938 228.686 148.24 222.171 131.176C218.566 121.739 216.395 108.753 195.586 102.963C183.392 113.388 189.503 139.986 191.939 146.625L208.002 198.611C208.002 198.611 204.591 203.273 193.066 215.786C183.253 226.434 178.451 230.373 166.731 232.822C155.011 235.272 153.897 234.548 147.968 237.777C144.808 239.489 137.598 243.47 135.148 244.987C132.698 246.504 128.536 251.543 124.569 255.022C120.853 258.558 125.961 259.88 129.01 258.711C132.196 257.324 135.19 255.532 137.918 253.38C140.386 251.919 142.97 250.662 145.643 249.622C145.032 252.739 144.738 255.91 144.766 259.086C144.905 260.784 144.766 262.886 146.297 264C147.468 264.565 148.715 264.955 150 265.155C150.079 265.77 150.381 266.334 150.849 266.742C151.776 267.3 152.881 267.484 153.939 267.257C154.518 267.153 155.09 267.014 155.651 266.839C155.773 267.375 156.034 267.87 156.408 268.273C156.782 268.676 157.255 268.973 157.781 269.136C160.199 269.659 162.712 269.524 165.061 268.746C165.409 268.565 167.984 266.881 168.735 266.394C169.835 265.698 170.823 265.266 171.269 264.473C171.714 263.68 169.877 261.689 168.485 261.536C166.925 261.52 165.373 261.76 163.891 262.246C164.406 260.928 164.743 259.547 164.894 258.14C165.979 256.01 175.249 257.277 183.197 255.161C189.197 253.575 193.261 247.645 195.725 245.92C210.841 235.3 214.738 232.836 230.523 219.474C245.556 206.753 246.001 204.749 242.285 192.612Z" fill="var(--fill-0, #C8856A)"/>
<path id="Vector_31" d="M144.112 250.304L145.643 249.622C146.089 247.746 146.796 245.942 147.745 244.263C146.047 245.112 144.85 247.896 144.112 250.304ZM150.543 250.123C150.035 251.746 149.722 253.423 149.61 255.12C149.443 256.794 149.373 258.476 149.401 260.158C149.377 261.843 149.578 263.524 150 265.155C149.942 263.493 149.988 261.829 150.139 260.172C150.278 258.516 150.403 256.86 150.57 255.217C150.683 253.575 150.911 251.942 151.253 250.332C151.435 249.532 151.687 248.75 152.004 247.993C152.269 247.212 152.675 246.486 153.201 245.85C151.928 246.994 151.006 248.476 150.543 250.123ZM155.526 256.971C155.326 258.61 155.224 260.26 155.22 261.912C155.182 263.565 155.326 265.218 155.651 266.839C155.748 263.554 156.096 260.325 156.486 257.096C156.667 255.482 156.904 253.881 157.182 252.28C157.306 251.479 157.474 250.684 157.683 249.9C157.839 249.1 158.152 248.339 158.602 247.659C157.503 248.928 156.759 250.465 156.444 252.113C156.021 253.708 155.714 255.332 155.526 256.971ZM166.188 261.48C165.53 261.566 164.891 261.759 164.295 262.051L163.933 262.246L164.017 262.622C164.039 262.807 164.039 262.994 164.017 263.179C163.989 263.405 163.942 263.628 163.877 263.847C163.689 264.336 163.446 264.803 163.154 265.238C163.678 265.025 164.131 264.668 164.462 264.208C164.641 263.971 164.773 263.702 164.852 263.415C164.901 263.224 164.929 263.028 164.935 262.831C165.438 262.542 165.958 262.286 166.494 262.065C167.145 261.826 167.823 261.667 168.512 261.592C167.764 261.335 166.958 261.297 166.188 261.48Z" fill="var(--fill-0, #AF6152)"/>
<path id="Vector_32" d="M195.112 101.432C205.9 104.981 214.599 107.472 220.167 122.198C226.973 140.056 235.59 167.392 235.59 167.392C235.59 167.392 232.945 174.671 219.93 178.665C206.916 182.66 200.833 179.584 200.833 179.584C200.833 179.584 193.066 156.897 190.032 147.446C186.997 137.996 181.235 110.423 195.112 101.432Z" fill="var(--fill-0, #37474F)"/>
</g>
<path id="Vector_33" d="M122.035 305.644C121.157 305.95 120.222 306.057 119.297 305.956C118.372 305.854 117.482 305.548 116.69 305.059L27.106 249.288C26.3301 248.805 25.6706 248.157 25.1749 247.389C24.6791 246.621 24.3594 245.753 24.2386 244.848L16.1932 184.915C16.1655 184.572 16.1655 184.227 16.1932 183.885C16.2192 183.063 16.4085 182.254 16.7503 181.506C17.092 180.758 17.5793 180.086 18.1837 179.528L111.276 237.443C111.848 237.803 112.335 238.283 112.703 238.85C113.071 239.418 113.311 240.058 113.405 240.728L122.035 305.644Z" fill="var(--fill-0, #263238)"/>
<path id="Vector_34" d="M123.539 304.962L122.898 305.31C122.62 305.449 122.328 305.574 122.035 305.685L113.35 240.825C113.255 240.156 113.015 239.515 112.647 238.948C112.28 238.381 111.792 237.9 111.22 237.541L18.1279 179.626C18.5218 179.27 18.9563 178.961 19.4224 178.707L112.681 236.719C113.253 237.078 113.739 237.559 114.105 238.126C114.47 238.694 114.707 239.335 114.797 240.004L123.539 304.962Z" fill="var(--fill-0, #455A64)"/>
<path id="Vector_35" d="M112.529 238.751L114.032 237.958C114.451 238.554 114.723 239.241 114.825 239.962L123.538 304.962L122.898 305.31C122.62 305.449 122.327 305.574 122.035 305.685L113.35 240.825C113.244 240.079 112.963 239.368 112.529 238.751Z" fill="var(--fill-0, #37474F)"/>
<path id="Vector_36" d="M72.4124 248.926C71.8696 244.917 67.9168 239.475 63.5881 236.789C59.2595 234.103 56.1835 235.161 56.7263 239.183C57.2691 243.205 61.208 248.634 65.5367 251.32C69.8653 254.006 72.9413 252.948 72.4124 248.926Z" fill="var(--fill-0, #167287)"/>
</g>
</g>
</svg>
