<svg preserveAspectRatio="none" width="100%" height="100%" overflow="visible" style="display: block;" viewBox="0 0 640.194 231.687" fill="none" xmlns="http://www.w3.org/2000/svg">
<g id="money-icon">
<path id="Vector" d="M23.9745 225.201L26.0763 228.904L21.0793 231.687L18.9635 227.985C15.2471 229.446 10.8764 229.641 7.48013 225.772L12.9504 220.413C13.5927 221.272 14.5406 221.85 15.5979 222.029C16.6551 222.208 17.7406 221.973 18.6295 221.374C20.2859 220.427 21.0236 219.133 20.1745 217.657C18.7826 215.291 15.9013 216.781 12.1848 217.727C8.19002 218.701 4.05599 218.924 1.28606 214.052C-1.20549 209.682 0.0472414 205.701 3.97248 202.598L1.87067 198.895L6.90944 196.014L9.01125 199.716C13.2984 198.116 16.987 198.784 19.8404 201.595L14.6625 206.731C13.4376 205.34 11.6002 204.992 9.37316 206.258C7.14607 207.525 7.04864 208.819 7.68892 209.933C8.73287 211.77 10.4728 211.324 14.398 210.197C18.5738 209.098 23.7657 207.747 26.9254 213.287C29.403 217.824 27.9136 222.07 23.9745 225.201Z" fill="var(--fill-0, #F0F0F0)"/>
<path id="Vector_2" d="M28.3311 135.956L21.8587 133.367L23.4315 129.442C20.4667 127.591 17.3906 124.32 18.3649 118.989L18.4763 118.349L27.2454 119.435L27.0784 120.172C26.8694 121.022 26.9938 121.92 27.4261 122.681C27.8585 123.442 28.5658 124.009 29.4029 124.264C30.8783 124.849 31.8388 124.626 32.2563 123.582C32.8131 122.19 31.6161 121.244 29.2498 119.574C28.7209 119.198 28.1641 118.808 27.5934 118.377C24.378 115.871 21.3854 112.587 23.5846 107.089C25.3802 102.579 29.1524 100.672 34.1076 101.675L35.6805 97.7357L42.153 100.38L40.5383 104.291C42.2387 105.238 43.6168 106.671 44.495 108.408C45.3732 110.144 45.7113 112.104 45.4657 114.034V114.744L37.0167 113.742L37.1559 113.018C37.2639 112.237 37.0771 111.444 36.6319 110.793C36.1867 110.142 35.5151 109.68 34.7479 109.497C33.2029 108.884 32.2424 109.065 31.8388 110.054C31.3377 111.32 32.0754 112.016 35.4578 114.466C38.8402 116.915 43.4196 120.353 40.9002 126.63C39.1046 131.126 35.1376 133.089 29.9318 132.087L28.3311 135.956ZM23.6682 132.601L27.5516 134.146L29.041 130.402L29.6256 130.542C32.4095 131.182 37.4204 131.46 39.5779 126.046C41.7354 120.632 37.7684 117.862 34.6087 115.524C31.449 113.185 29.556 111.877 30.5164 109.455C30.7809 108.815 31.9084 106.783 35.2351 108.063C36.1845 108.327 37.023 108.892 37.6251 109.672C38.2272 110.452 38.5607 111.406 38.5757 112.392L44.1434 113.046C44.2548 109.761 42.6401 107.075 39.3134 105.099L38.7984 104.792L40.3017 101.048L36.3625 99.5451L34.9706 103.303L34.386 103.15C31.1706 102.384 26.9253 102.524 24.8791 107.618C23.1392 111.974 25.0462 114.577 28.4564 117.263C28.9992 117.681 29.556 118.071 30.071 118.432C32.3816 120.061 34.553 121.606 33.5508 124.097C32.841 125.893 31.101 126.436 28.9018 125.489C27.8913 125.145 27.0247 124.474 26.4397 123.581C25.8546 122.688 25.5846 121.626 25.6725 120.562L19.6594 119.866C19.1583 124.32 22.0674 127.02 24.6703 128.523L25.1993 128.816L23.6682 132.601Z" fill="var(--fill-0, #F0F0F0)"/>
<path id="Vector_3" d="M254.478 48.8818L255.466 43.4675C251.193 41.8669 246.446 38.5125 246.293 31.4698V30.6208L257.735 29.73V30.7182C257.682 31.8489 258.064 32.957 258.801 33.8159C259.539 34.6748 260.576 35.2197 261.702 35.3391C262.51 35.5362 263.358 35.4878 264.138 35.1999C264.406 35.0658 264.638 34.8695 264.815 34.6274C264.991 34.3852 265.108 34.1043 265.154 33.8081C265.502 31.8595 263.762 31.0244 260.296 29.4655C259.516 29.1315 258.709 28.7696 257.874 28.366C253.128 26.0137 248.465 22.6037 249.843 15.046C250.956 8.92182 255.313 5.4422 261.841 5.41437L262.829 7.43866e-05L271.765 1.55894L270.777 6.98716C276.067 9.06101 279.129 12.8747 279.574 18.0384L279.658 18.9571L268.648 19.8757V18.9014C268.648 16.3125 266.462 15.3661 264.667 15.046C262.551 14.6562 261.354 15.1573 261.117 16.4378C260.769 18.2751 262.231 19.0267 266.852 21.1283C271.473 23.23 278.558 26.6122 276.93 35.2278C275.802 41.4076 271.25 44.9707 264.402 44.9707L263.414 50.385L254.478 48.8818ZM257.526 42.2566L256.58 47.4204L261.925 48.3947L262.857 43.2448H263.637C267.353 43.3562 273.798 42.4097 275.148 34.8937C276.498 27.3777 270.721 24.9281 266.086 22.7707C261.451 20.6134 258.709 19.4303 259.322 16.1038C259.475 15.213 260.379 12.3597 264.973 13.1948C268.021 13.7515 269.928 15.4218 270.346 17.8436L277.667 17.2312C276.971 13.0556 274.215 10.0214 269.455 8.35117L268.731 8.08671L269.664 2.93688L264.263 1.96258L263.316 7.11242H262.537C258.25 6.95932 252.793 8.25374 251.596 15.2547C250.497 21.2675 253.615 24.1487 258.64 26.6261C259.447 27.0159 260.24 27.3638 260.992 27.6979C264.36 29.1871 267.534 30.579 266.908 34.0169C266.827 34.6114 266.601 35.1769 266.249 35.6626C265.896 36.1484 265.429 36.5393 264.889 36.8006C263.77 37.2627 262.534 37.3649 261.354 37.0929C259.978 36.9121 258.701 36.2796 257.723 35.2946C256.746 34.3096 256.123 33.0279 255.953 31.6507L248.144 32.2492C248.659 38.0671 253.072 40.7534 256.774 41.9922L257.526 42.2566Z" fill="var(--fill-0, #F0F0F0)"/>
<path id="Vector_4" d="M29.7786 37.5521L28.86 41.6302L23.2923 40.4054L24.2666 36.3551C20.6058 34.9633 17.307 32.1796 17.3905 27.1967L24.8791 26.8905C24.7956 27.936 25.1086 28.9746 25.756 29.7998C26.4033 30.6251 27.3375 31.1765 28.3728 31.3445C30.1962 31.7481 31.5881 31.2749 31.95 29.6603C32.5207 27.0576 29.4167 26.2085 26.09 24.4409C22.7633 22.6732 19.4088 19.9591 20.5919 14.6005C21.6637 9.78471 25.227 7.64126 30.0988 8.0449L31.0035 3.96678L36.5712 5.20552L35.6665 9.28364C39.8423 10.926 42.0833 13.8489 42.2921 17.7739L35.1515 18.0941C35.1515 16.2429 34.0797 14.8093 31.616 14.2665C29.1523 13.7236 28.2475 14.6005 27.9691 15.8253C27.5237 17.8435 29.1523 18.609 32.6738 20.4324C36.1954 22.2557 41.0254 24.8306 39.7309 30.913C38.6174 35.8123 34.7061 37.8722 29.7786 37.5521Z" fill="var(--fill-0, #F0F0F0)"/>
<path id="Vector_5" d="M587.914 71.1514L583.975 64.0112C577.641 66.2381 568.956 67.0176 562.163 59.0423L561.62 58.402L573.354 47.2672L573.967 48.0328C575.04 49.4775 576.622 50.4599 578.393 50.7804C580.164 51.1009 581.99 50.7356 583.501 49.7586C585.534 48.6313 587.677 46.7244 586.146 44.0242C584.615 41.324 581.386 41.8669 575.929 43.3701C574.704 43.7041 573.424 44.066 572.088 44.3861C564.543 46.112 556.108 46.5713 550.694 36.7727C546.198 28.6165 547.979 20.7804 555.691 14.6005L551.752 7.47428L562.887 1.32231L566.84 8.47641C574.871 5.73447 581.998 7.12632 587.343 12.6937L587.983 13.3479L576.778 24.1765L576.152 23.4249C574.022 20.8917 570.974 20.6412 567.327 22.6176C565.225 23.7868 562.998 25.7075 564.418 28.2685C565.838 30.8295 568.413 30.5094 576.013 28.4912C583.613 26.473 594.331 23.8703 600.497 35.0746C604.979 43.1752 602.974 51.4845 595.027 57.9427L598.966 65.0829L587.914 71.1514ZM584.782 61.7703L588.596 68.7296L596.488 64.3731L592.688 57.4138L593.287 56.9406C601.081 50.9278 603.03 43.4397 598.854 35.8819C593.287 25.9024 583.947 28.2685 576.389 30.1753C569.081 32.1239 565.044 33.1956 562.776 29.0897C561.996 27.6978 560.799 24.079 566.395 20.9891C570.417 18.7761 574.148 18.971 576.806 21.518L585.353 13.2644C580.356 8.62951 574.064 7.69697 566.631 10.3137L565.907 10.5781L562.107 3.61886L554.16 8.08669L557.973 15.0459L557.361 15.5192C549.928 21.0866 548.119 28.3798 552.253 35.8541C557.055 44.581 564.418 44.2052 571.656 42.5906C572.965 42.2844 574.217 41.9365 575.414 41.6024C580.745 40.1271 585.353 38.8187 587.691 43.1056C589.403 46.1955 588.178 49.1741 584.337 51.2897C582.608 52.3879 580.551 52.8497 578.519 52.5957C576.486 52.3417 574.606 51.3878 573.201 49.8978L564.098 58.583C570.389 65.3613 578.393 64.2896 584.072 62.1322L584.782 61.7703Z" fill="var(--fill-0, #F0F0F0)"/>
<path id="Vector_6" d="M439.089 54.0176L440.217 57.6782L435.275 59.2092L434.148 55.5347C430.598 56.1054 426.715 55.4234 424.502 51.3592L430.278 47.7404C430.689 48.6078 431.411 49.2887 432.301 49.6473C433.191 50.0059 434.183 50.0158 435.08 49.6751C436.709 49.174 437.614 48.1719 437.154 46.7104C436.431 44.3721 433.577 45.1237 430.125 45.2212C426.423 45.3047 422.762 44.6922 421.273 39.8904C419.881 35.5617 421.815 32.277 425.852 30.3423L424.725 26.6817L429.708 25.1368L430.849 28.7973C434.913 28.2267 438.031 29.535 439.98 32.5553L434.412 36.0489C433.605 34.5596 432.06 33.9332 429.861 34.657C427.662 35.3808 427.314 36.4525 427.661 37.5521C428.218 39.3615 429.889 39.278 433.508 39.0831C437.127 38.8882 442.193 38.763 443.891 44.2329C445.339 48.6033 443.154 52.0273 439.089 54.0176Z" fill="var(--fill-0, #F0F0F0)"/>
<path id="Vector_7" d="M628.683 159.116L627.945 163.111L622.559 162.109L623.296 158.114C619.691 156.889 616.337 154.342 616.337 149.443L623.603 148.9C623.563 149.914 623.906 150.906 624.564 151.679C625.221 152.452 626.145 152.951 627.152 153.076C628.934 153.41 630.27 152.909 630.562 151.322C631.035 148.775 627.987 148.051 624.702 146.436C621.194 144.697 618.049 142.261 619.023 137.069C619.914 132.351 623.296 130.208 628.043 130.388L628.78 126.394L634.223 127.41L633.485 131.405C637.591 132.866 639.86 135.58 640.194 139.422L633.235 139.978C633.235 138.183 632.079 136.819 629.671 136.373C627.263 135.928 626.4 136.805 626.178 138.016C625.816 139.992 627.416 140.73 630.91 142.331C634.404 143.931 639.262 146.325 638.106 152.282C637.229 157.126 633.499 159.269 628.683 159.116Z" fill="var(--fill-0, #F0F0F0)"/>
</g>
</svg>
